<?xml version="1.0" encoding="utf-8"?>
<!-- Generator: Adobe Illustrator 22.0.1, SVG Export Plug-In . SVG Version: 6.00 Build 0)  -->
<svg version="1.1" id="Layer_1" xmlns="http://www.w3.org/2000/svg" xmlns:xlink="http://www.w3.org/1999/xlink" x="0px" y="0px"
	 viewBox="0 0 669.5 387.1" style="enable-background:new 0 0 669.5 387.1;" xml:space="preserve">
<style type="text/css">
	.drawn-stroke black-stroke{fill:none;stroke:#333333;stroke-width:3;stroke-miterlimit:10;}
	.st1{fill:#F39877;stroke:#F39877;stroke-width:3;stroke-miterlimit:10;}
</style>
<g>
	<path class="drawn-stroke black-stroke" d="M400.8,74.8"/>
</g>
<g>
	<g>
		<g>
			<polygon class="st1" points="118.7,171.9 94.4,171.9 15,1.6 165.5,1.6 165.5,26.6 54.2,26.6 106.5,138.8 136,75.6 101.2,75.6 
				101.2,50.6 175.2,50.6 			"/>
		</g>
		<g>
			<path class="st1" d="M330.8,188.2h-84.6V1.6h80.1v52.7l-10.2,5.9h14.7V188.2z M271.3,163.2h34.6V85.3c0,0-34,0-34.6-0.1V163.2z
				 M271.3,26.6v30.7l30.1-17.4V26.6H271.3z"/>
		</g>
		<path class="st1" d="M205.3,1.6L122.6,179l22.7,10.6c0,0,30.6-65.6,40.7-87.2c6.7,0,21.5,0,29.7,0c0,22.2,0,85.8,0,85.8h25V1.6
			H205.3z M197.6,77.4c2.8-6,18-38.6,18-38.6s0,29.6,0,38.6C210.8,77.4,203.9,77.4,197.6,77.4z"/>
		<g>
			<path class="st1" d="M397.3,188.4L361.5,130v58.3h-25V1.6h80.1v81.8L375.8,107l41.8,66.8L397.3,188.4z M361.5,26.6v59.7L391.6,69
				V26.6H361.5z"/>
		</g>
		<g>
			<rect x="423.6" y="1.6" class="st1" width="25" height="186.6"/>
		</g>
		<g>
			<path class="st1" d="M405,74.9"/>
		</g>
		<g>
			<path class="st1" d="M545.7,188.2h-90.9l0-22.2l35.7-77.2C481.6,73,457,29.1,456.6,28.4l-1.6-2.8l0-23.9h90.9v25h-61.7
				c10.4,18.6,31.1,55.5,31.1,55.5l3.1,5.6l-34.9,75.5h62.1V188.2z"/>
		</g>
		<g>
			<polygon class="st1" points="651.3,188.2 551.6,188.2 551.6,1.6 576.6,1.6 576.6,163.2 605.2,163.2 592.2,143.3 613.2,129.7 			
				"/>
		</g>
		<g>
			<path class="st1" d="M192.2,383.5l-35.9-58.2v58.3h-25V196.9h80.1v81.8l-40.8,23.5l42,66.6L192.2,383.5z M156.3,221.9v59.7
				l30.1-17.3v-42.4H156.3z"/>
		</g>
		<g>
			<path class="st1" d="M279.2,384.9l-35.9-59.6v58.3h-25V196.9h80.1v81.8l-40.8,23.5l42,68L279.2,384.9z M243.3,221.9v59.7
				l30.1-17.3v-42.4H243.3z"/>
		</g>
		<g>
			<polygon class="st1" points="394.8,383.5 303.9,383.5 303.9,361.3 339.5,284 304.1,220.8 304.1,196.9 395.1,196.9 395.1,221.9 
				333.4,221.9 367.6,282.9 332.7,358.5 394.8,358.5 			"/>
		</g>
		<g>
			<path class="st1" d="M478,383.5h-50.4l-28.4-186.6h107.3L478,383.5z M449,358.5h7.5l20.8-136.6h-49.1L449,358.5z"/>
		</g>
		<g>
			<polygon class="st1" points="611.2,383.5 511.5,383.5 511.5,196.9 536.5,196.9 536.5,358.5 565,358.5 552.1,338.6 573,324.9 			
				"/>
		</g>
		<path class="st1" d="M616.6,265.1c-17.1-36.6-31.8-68.2-31.8-68.2h-35.3v122.8h25c0,0,0-14.4,0-22c10.2,0,23.5,0,29.7,0
			c10.1,21.6,40.7,87.2,40.7,87.2l22.7-10.6C667.5,374.3,639.9,315.1,616.6,265.1z M574.5,272.7c0-10.8,0-38.6,0-38.6
			s15.5,33.3,18,38.6C586.7,272.7,580.2,272.7,574.5,272.7z"/>
		<path class="st1" d="M89,196.9c0,0-0.9,2-2.6,5.6c-14,30.1-80.1,171.8-80.1,171.8l22.7,10.6c0,0,30.6-65.6,40.7-87.2
			c6.7,0,21.5,0,29.7,0c0,22.2,0,85.8,0,85.8h25c0,0,0-67,0-120.7c0-35.9,0-65.9,0-65.9H89z M81.3,272.7c2.8-6,8.5-18.1,12.7-27.2
			c3-6.5,5.3-11.4,5.3-11.4s0,29.6,0,38.6C94.5,272.7,87.6,272.7,81.3,272.7z"/>
	</g>
	<g>
		<path class="drawn-stroke black-stroke" d="M114.4,171.8H90.1L10.7,1.5l150.5,0v25l-111.3,0l52.3,112.2l29.5-63.2H96.9v-25h74L114.4,171.8z"/>
		<g>
			<path class="drawn-stroke black-stroke" d="M326.6,188.1H242V1.5h80.1v52.7l-10.2,5.9h14.7V188.1z M267,163.1h34.6V85.2c0,0-34,0-34.6-0.1V163.1z
				 M267,26.5v30.7l30.1-17.4V26.5H267z"/>
		</g>
		<path class="drawn-stroke black-stroke" d="M201,1.5l-82.7,177.4l22.7,10.6c0,0,30.6-65.6,40.7-87.2c6.7,0,21.5,0,29.7,0c0,22.2,0,85.8,0,85.8h25V1.5
			H201z M193.3,77.3c2.8-6,18-38.6,18-38.6s0,29.6,0,38.6C206.5,77.3,199.6,77.3,193.3,77.3z"/>
		<g>
			<path class="drawn-stroke black-stroke" d="M393,188.2l-35.7-58.4v58.3h-25V1.5h80.1v81.8l-40.8,23.5l41.8,66.8L393,188.2z M357.2,26.5v59.7l30.1-17.3
				V26.5H357.2z"/>
		</g>
		<g>
			<rect x="419.3" y="1.5" class="drawn-stroke black-stroke" width="25" height="186.6"/>
		</g>
		<path class="drawn-stroke black-stroke" d="M541.4,188.1h-90.9l0-22.2l35.7-77.2c-8.8-15.8-33.4-59.6-33.8-60.4l-1.6-2.8l0-23.9h90.9v25H480
			C490.4,45.1,511.1,82,511.1,82l3.1,5.6l-34.9,75.5h62.1V188.1z"/>
		<path class="drawn-stroke black-stroke" d="M647,188.1h-99.7V1.5h25v161.6h28.6l-13-19.9l20.9-13.7L647,188.1z"/>
		<g>
			<path class="drawn-stroke black-stroke" d="M187.9,383.3L152,325.1v58.3h-25V196.8h80.1v81.8l-40.8,23.5l42,66.6L187.9,383.3z M152,221.8v59.7
				l30.1-17.3v-42.4H152z"/>
		</g>
		<g>
			<path class="drawn-stroke black-stroke" d="M274.9,384.8L239,325.1v58.3h-25V196.8h80.1v81.8l-40.8,23.5l42,68L274.9,384.8z M239,221.8v59.7l30.1-17.3
				v-42.4H239z"/>
		</g>
		<path class="drawn-stroke black-stroke" d="M390.5,383.3h-90.9l0-22.2l35.7-77.2l-35.4-63.2l0-23.9h90.9v25h-61.7l34.2,61l-34.9,75.5h62.1V383.3z"/>
		<g>
			<path class="drawn-stroke black-stroke" d="M473.7,383.3h-50.4l-28.4-186.6h107.3L473.7,383.3z M444.8,358.3h7.5l20.8-136.6h-49.1L444.8,358.3z"/>
		</g>
		<path class="drawn-stroke black-stroke" d="M606.9,383.3h-99.7V196.8h25v161.6h28.6l-13-19.9l20.9-13.7L606.9,383.3z"/>
		<path class="drawn-stroke black-stroke" d="M612.3,265c-17.1-36.6-31.8-68.2-31.8-68.2h-35.3v122.8h25c0,0,0-14.4,0-22c10.2,0,23.5,0,29.7,0
			c10.1,21.6,40.7,87.2,40.7,87.2l22.7-10.6C663.2,374.2,635.6,315,612.3,265z M570.2,272.6c0-10.8,0-38.6,0-38.6s15.5,33.3,18,38.6
			C582.4,272.6,575.9,272.6,570.2,272.6z"/>
		<path class="drawn-stroke black-stroke" d="M84.7,196.8c0,0-0.9,2-2.6,5.6C68.1,232.4,2,374.2,2,374.2l22.7,10.6c0,0,30.6-65.6,40.7-87.2
			c6.7,0,21.5,0,29.7,0c0,22.2,0,85.8,0,85.8h25c0,0,0-67,0-120.7c0-35.9,0-65.9,0-65.9H84.7z M77,272.6c2.8-6,8.5-18.1,12.7-27.2
			c3-6.5,5.3-11.4,5.3-11.4s0,29.6,0,38.6C90.2,272.6,83.3,272.6,77,272.6z"/>
	</g>
</g>
</svg>
