<?xml version="1.0" encoding="utf-8"?>
<!-- Generator: Adobe Illustrator 22.0.1, SVG Export Plug-In . SVG Version: 6.00 Build 0)  -->
<svg x="0px" y="0px" width="150" height="150" viewBox="0 0 147.5 152.6" style="enable-background:new 0 0 147.5 152.6;" xml:space="preserve">
	<g>
		<path class="pink-fill" d="M145.7,0.8H3.6c-0.7,0-1.3,0.6-1.3,1.3v148.4c0,0.7,0.6,1.3,1.3,1.3h8.9c-0.1,0-0.2-0.1-0.2-0.2V17.2
			c0-0.1,0.1-0.2,0.2-0.2h124.4c0.1,0,0.2,0.1,0.2,0.2v134.4c0,0.1-0.1,0.2-0.2,0.2h8.9c0.7,0,1.3-0.6,1.3-1.3V2.1
			C147,1.3,146.4,0.8,145.7,0.8z"/>
		<g>
			<path class="black-stroke" d="M10.3,151.7c0,0.1-8.7,0.2-8.7,0.2c-0.7,0-1.3-0.6-1.3-1.3V2.1c0-0.7,0.6-1.3,1.3-1.3h142.1
				c0.7,0,1.3,0.6,1.3,1.3v148.4c0,0.7-0.6,1.3-1.3,1.3h-8.9L10.3,151.7z"/>
			<path class="black-stroke" d="M10.3,151.4V17.2c0-0.1,0.1-0.2,0.2-0.2h124.4c0.1,0,0.2,0.1,0.2,0.2v134.4"/>
		</g>
	</g>
	<rect x="16.4" y="24.1" class="no-fill" width="112.4" height="24.3"/>
	<rect x="16.4" y="125.9" class="no-fill" width="112.4" height="18.3"/>
	<g>
		<g>
			<path class="pink-stroke" d="M39.1,98c-0.1,0-0.7-0.2-1.1-0.8c-0.1-0.1-0.4-0.8-0.1-1.3c0.2-0.4,0.8-0.7,1.3-0.6c0-0.1-0.1-0.3-0.1-0.6
				c0-0.1,0-0.4,0.2-0.6c0.2-0.3,0.5-0.4,0.6-0.4c0.1-0.1,0.3-0.1,0.4-0.1c-0.1,0-0.5-0.1-0.8-0.4c-0.1-0.1-0.4-0.4-0.4-0.9
				c0-0.1,0-0.4,0.2-0.7c0.3-0.5,0.9-0.5,1-0.5c0.3,0,0.6,0.1,0.7,0.2c-0.1-0.1-0.2-0.4-0.2-0.8c0-0.7,0.5-1.1,0.6-1.2
				c0.7-0.6,1.6-0.4,1.7-0.4"/>
			<circle class="pink-stroke" cx="68.1" cy="85" r="6.2"/>
			<circle class="pink-fill" cx="67.2" cy="82.2" r="1.1"/>
			<circle class="pink-stroke" cx="83.3" cy="82.9" r="6.2"/>
			<circle class="pink-fill" cx="80.9" cy="81.5" r="1.1"/>
			<line class="pink-stroke" x1="70.5" y1="97.3" x2="84.6" y2="93.6"/>
			<path class="pink-stroke" d="M87.3,95.4c-1.3,0.2-2.5-0.7-2.6-2c-0.2-1.3,0.7-2.5,2-2.6"/>
			<path class="pink-stroke" d="M38.5,107.3c1.8-0.2,3.3-0.4,5.2-0.6c8-0.9,16-1.8,23.9-2.6c8.6-0.9,17.1-1.9,25.7-2.8
				c6.5-0.7,12.9-1.4,19.4-2.1c0,0,1-0.1,0.8-1.5c-0.8-4.7-2.4-9.4-5-13.4C100.5,72,87.1,69.8,85,69.5c-4.5-0.7-8.1-0.2-10.1,0
				c-3.5,0.4-10.3,1.4-17,6.3c-7.4,5.5-10.3,12.8-11.7,16.4c-1.2,3-1.8,6.2-2.5,9.4c-0.5,1.9-0.8,3.6-2.3,4.7
				c-1.2,0.9-3.2,1.5-4.9,0.5c-2.8-1.7-1.3-7.5-0.9-10C38,84.2,46.6,73.2,58.3,68.1c2.9-1.3,10.7-4.6,20.4-3.1"/>
			<path class="pink-stroke" d="M40.8,106.4c-2-0.8-3.8-2.9-3.7-5c0.1-1.7,1-3.2,2.5-3.9c0.7-0.4,1.5-0.6,2.2-1c2.7-1.4,2.9-4.5,1.5-6.9
				c-0.6-1.1-1.4-2.2-1.4-3.5c0-1.3,0.6-2.7,1.6-3.6c0.6-0.6,1.5-1.1,2.4-1.3c1.1-0.2,2.2,0.1,3.3-0.1c2.6-0.6,3.3-2.8,3.6-5.2
				c0.3-2.7,2-5.1,5-4.9c1.2,0.1,2.2,0.5,3.4,0.4c0.9-0.1,1.9-0.4,2.6-0.9c0.8-0.6,1.1-2.4,1.7-3.2c0.8-1.1,2.2-1.7,3.5-1.9
				c2-0.2,3.8,2.2,5.8,2.1c2.6,0,3.3-2.5,5.3-3.6c1.4-0.8,3.2-0.7,4.6,0.1c1.5,0.8,2.2,2.3,3.2,3.5c1.5,1.8,3.2,1.6,5.3,1
				c3.5-0.9,7.1,2,6.1,5.7"/>
			<path class="pink-stroke" d="M45.6,81.4c1.1-2,2.6-3.9,4.6-5.6c1.1-0.9,2.2-1.7,3.4-2.4"/>
			<polyline class="pink-stroke" points="59.6,71.4 61.6,68.5 64.7,69.2 		"/>
		</g>
		<g>
			<path class="black-stroke" d="M38,98c-0.1,0-0.7-0.2-1.1-0.8c-0.1-0.1-0.4-0.8-0.1-1.3c0.2-0.4,0.8-0.7,1.3-0.6c0-0.1-0.1-0.3-0.1-0.6
				c0-0.1,0-0.4,0.2-0.6c0.2-0.3,0.5-0.4,0.6-0.4c0.1-0.1,0.3-0.1,0.4-0.1c-0.1,0-0.5-0.1-0.8-0.4c-0.1-0.1-0.4-0.4-0.4-0.9
				c0-0.1,0-0.4,0.2-0.7c0.3-0.5,0.9-0.5,1-0.5c0.3,0,0.6,0.1,0.7,0.2c-0.1-0.1-0.2-0.4-0.2-0.8c0-0.7,0.5-1.1,0.6-1.2
				c0.7-0.6,1.6-0.4,1.7-0.4"/>
			<circle class="black-stroke" cx="67" cy="85" r="6.2"/>
			<circle class="black-fill" cx="66.1" cy="82.2" r="1.1"/>
			<circle class="black-stroke" cx="82.2" cy="82.9" r="6.2"/>
			<circle class="black-fill" cx="79.8" cy="81.5" r="1.1"/>
			<line class="black-stroke" x1="69.5" y1="97.3" x2="83.6" y2="93.6"/>
			<path class="black-stroke" d="M86.2,95.4c-1.3,0.2-2.5-0.7-2.6-2c-0.2-1.3,0.7-2.5,2-2.6"/>
			<path class="black-stroke" d="M37.4,107.3c1.8-0.2,3.3-0.4,5.2-0.6c8-0.9,16-1.8,23.9-2.6c8.6-0.9,17.1-1.9,25.7-2.8
				c6.5-0.7,12.9-1.4,19.4-2.1c0,0,1-0.1,0.8-1.5c-0.8-4.7-2.4-9.4-5-13.4C99.4,72,86,69.8,84,69.5c-4.5-0.7-8.1-0.2-10.1,0
				c-3.5,0.4-10.3,1.4-17,6.3c-7.4,5.5-10.3,12.8-11.7,16.4c-1.2,3-1.8,6.2-2.5,9.4c-0.5,1.9-0.8,3.6-2.3,4.7
				c-1.2,0.9-3.2,1.5-4.9,0.5c-2.8-1.7-1.3-7.5-0.9-10C37,84.2,45.5,73.2,57.3,68.1c2.9-1.3,10.7-4.6,20.4-3.1"/>
			<path class="black-stroke" d="M39.8,106.4c-2-0.8-3.8-2.9-3.7-5c0.1-1.7,1-3.2,2.5-3.9c0.7-0.4,1.5-0.6,2.2-1c2.7-1.4,2.9-4.5,1.5-6.9
				c-0.6-1.1-1.4-2.2-1.4-3.5c0-1.3,0.6-2.7,1.6-3.6c0.6-0.6,1.5-1.1,2.4-1.3c1.1-0.2,2.2,0.1,3.3-0.1c2.6-0.6,3.3-2.8,3.6-5.2
				c0.3-2.7,2-5.1,5-4.9c1.2,0.1,2.2,0.5,3.4,0.4c0.9-0.1,1.9-0.4,2.6-0.9c0.8-0.6,1.1-2.4,1.7-3.2c0.8-1.1,2.2-1.7,3.5-1.9
				c2-0.2,3.8,2.2,5.8,2.1c2.6,0,3.3-2.5,5.3-3.6c1.4-0.8,3.2-0.7,4.6,0.1c1.5,0.8,2.2,2.3,3.2,3.5c1.5,1.8,3.2,1.6,5.3,1
				c3.5-0.9,7.1,2,6.1,5.7"/>
			<path class="black-stroke" d="M44.5,81.4c1.1-2,2.6-3.9,4.6-5.6c1.1-0.9,2.2-1.7,3.4-2.4"/>
			<polyline class="black-stroke" points="58.5,71.4 60.6,68.5 63.6,69.2 		"/>
		</g>
	</g>
</svg>
