<?xml version="1.0" encoding="utf-8"?>
<!-- Generator: Adobe Illustrator 22.0.1, SVG Export Plug-In . SVG Version: 6.00 Build 0)  -->
<svg version="1.1" xmlns="http://www.w3.org/2000/svg" xmlns:xlink="http://www.w3.org/1999/xlink" x="0px" y="0px"
	 viewBox="0 0 147.5 152.6" style="enable-background:new 0 0 147.5 152.6;" xml:space="preserve">
<g id="Layer_2">
</g>
<g id="Layer_1">
	<g>
		<ellipse transform="matrix(0.9444 -0.3289 0.3289 0.9444 -16.5474 29.2403)" class="pink-fill" cx="78.2" cy="63.5" rx="2.5" ry="0.8"/>
		<path class="pink-fill" d="M105.7,74.5c-0.5-0.9-1.8-1.1-3-0.4c-1.2,0.6-1.7,1.9-1.2,2.8c0.5,0.9,1.8,1.1,3,0.4
			C105.6,76.6,106.1,75.4,105.7,74.5z M104,74.9c-0.3,0-0.5-0.2-0.5-0.5c0-0.3,0.2-0.5,0.5-0.5c0.3,0,0.5,0.2,0.5,0.5
			C104.5,74.7,104.3,74.9,104,74.9z"/>
		<path class="pink-fill" d="M95.1,78c-0.5-0.9-1.8-1.1-3-0.4c-1.2,0.6-1.7,1.9-1.2,2.8c0.5,0.9,1.8,1.1,3,0.4
			C95.1,80.2,95.6,78.9,95.1,78z M93.5,78.4c-0.3,0-0.5-0.2-0.5-0.5c0-0.3,0.2-0.5,0.5-0.5c0.3,0,0.5,0.2,0.5,0.5
			C94,78.2,93.8,78.4,93.5,78.4z"/>
		<path class="pink-stroke" d="M74.2,88.6c0,0-4.1-4.4-7.9-2.5c0,0,0.5,5.8,5.8,5.2"/>
		<path class="pink-stroke" d="M80.2,84.2c-9.5,8.6-14.4,21.2-14.4,21.2"/>
		<path class="pink-stroke" d="M78.9,81c0,0-1.1,0.9-1.9,1.9c14.9,7.1,33.4-4.7,33.4-4.7c0.2,0,0.1,0.5,0.1,0.5c0,8.8-3.5,28.9-29.7,28.9
			c-25.1,0-38.6-14.2-40.4-16.2c-0.1-0.1-0.3-0.1-0.4,0c-3.3,3.4-11.4,1.6-11.8,1.1c-0.5-0.5,0-0.5,0-0.5c0.9,0.4,1.3-0.2,1.3-0.2
			c3.9-6.2,8.2-5.5,9.9-4.9c0.3,0.2,0.8-0.1,0.8-0.5c0.3-5.9,10.3-7,11.3-7.4c1.1-0.4,0.3,0.5,0.3,0.5s-1.4,0.7-2.6,4.4
			c-0.8,2.6-3,3.8-4.3,4.3c-0.4,0.2-0.4,0.6-0.1,0.8c8.9,4.6,16.6,2,18.1,1.5c0.1-0.1,0.2-0.2,0.2-0.3c-0.6-2.2-2.6-10.8,2.4-19
			c5.1-8.5,15.1-12.3,23.9-11.1c1.4,0.2,11.6,1.7,16.7,10.6c1.8,3.2,2.4,6.3,2.5,8.3"/>
	</g>
	<g>
		<ellipse transform="matrix(0.9444 -0.3289 0.3289 0.9444 -16.6073 28.8862)" class="black-fill" cx="77.1" cy="63.5" rx="2.5" ry="0.8"/>
		<path class="black-fill" d="M104.6,74.5c-0.5-0.9-1.8-1.1-3-0.4c-1.2,0.6-1.7,1.9-1.2,2.8c0.5,0.9,1.8,1.1,3,0.4
			C104.5,76.6,105.1,75.4,104.6,74.5z M102.9,74.9c-0.3,0-0.5-0.2-0.5-0.5c0-0.3,0.2-0.5,0.5-0.5c0.3,0,0.5,0.2,0.5,0.5
			C103.4,74.7,103.2,74.9,102.9,74.9z"/>
		<path class="black-fill" d="M94,78c-0.5-0.9-1.8-1.1-3-0.4s-1.7,1.9-1.2,2.8c0.5,0.9,1.8,1.1,3,0.4C94,80.2,94.5,78.9,94,78z M92.4,78.4
			c-0.3,0-0.5-0.2-0.5-0.5c0-0.3,0.2-0.5,0.5-0.5c0.3,0,0.5,0.2,0.5,0.5C92.9,78.2,92.7,78.4,92.4,78.4z"/>
		<path class="black-stroke" d="M73.1,88.6c0,0-4.1-4.4-7.9-2.5c0,0,0.5,5.8,5.8,5.2"/>
		<path class="black-stroke" d="M79.1,84.2c-9.5,8.6-14.4,21.2-14.4,21.2"/>
		<path class="black-stroke" d="M77.8,81c0,0-1.1,0.9-1.9,1.9c14.9,7.1,33.4-4.7,33.4-4.7c0.2,0,0.1,0.5,0.1,0.5c0,8.8-3.5,28.9-29.7,28.9
			c-25.1,0-38.6-14.2-40.4-16.2c-0.1-0.1-0.3-0.1-0.4,0c-3.3,3.4-11.4,1.6-11.8,1.1c-0.5-0.5,0-0.5,0-0.5c0.9,0.4,1.3-0.2,1.3-0.2
			c3.9-6.2,8.2-5.5,9.9-4.9c0.3,0.2,0.8-0.1,0.8-0.5c0.3-5.9,10.3-7,11.3-7.4c1.1-0.4,0.3,0.5,0.3,0.5s-1.4,0.7-2.6,4.4
			c-0.8,2.6-3,3.8-4.3,4.3c-0.4,0.2-0.4,0.6-0.1,0.8c8.9,4.6,16.6,2,18.1,1.5c0.1-0.1,0.2-0.2,0.2-0.3c-0.6-2.2-2.6-10.8,2.4-19
			c5.1-8.5,15.1-12.3,23.9-11.1c1.4,0.2,11.6,1.7,16.7,10.6c1.8,3.2,2.4,6.3,2.5,8.3"/>
	</g>
	<g>
		<path class="pink-fill" d="M146.2,0.8H4.1c-0.7,0-1.3,0.6-1.3,1.3v148.4c0,0.7,0.6,1.3,1.3,1.3h8.9c-0.1,0-0.2-0.1-0.2-0.2V17.2
			c0-0.1,0.1-0.2,0.2-0.2h124.4c0.1,0,0.2,0.1,0.2,0.2v134.4c0,0.1-0.1,0.2-0.2,0.2h8.9c0.7,0,1.3-0.6,1.3-1.3V2.1
			C147.5,1.3,146.9,0.8,146.2,0.8z"/>
		<g>
			<path class="black-stroke" d="M10.8,151.7c0,0.1-8.7,0.2-8.7,0.2c-0.7,0-1.3-0.6-1.3-1.3V2.1c0-0.7,0.6-1.3,1.3-1.3h142.1
				c0.7,0,1.3,0.6,1.3,1.3v148.4c0,0.7-0.6,1.3-1.3,1.3h-8.9L10.8,151.7z"/>
			<path class="black-stroke" d="M10.8,151.4V17.2c0-0.1,0.1-0.2,0.2-0.2h124.4c0.1,0,0.2,0.1,0.2,0.2v134.4"/>
		</g>
	</g>
	<rect x="16.9" y="24.1" class="no-fill" width="112.4" height="24.3"/>
	<rect x="16.9" y="125.9" class="no-fill" width="112.4" height="18.3"/>
</g>
</svg>
