<?xml version="1.0" encoding="utf-8"?>
<!-- Generator: Adobe Illustrator 22.0.1, SVG Export Plug-In . SVG Version: 6.00 Build 0)  -->
<svg x="0px" y="0px" width="150" height="150"
	 viewBox="0 0 147.5 152.6" style="enable-background:new 0 0 147.5 152.6;" xml:space="preserve">
<g id="Layer_2">
</g>
<g id="Layer_1">
	<rect x="16.9" y="24.1" class="no-fill" width="112.4" height="24.3"/>
	<rect x="16.9" y="125.9" class="no-fill" width="112.4" height="18.3"/>
	<g>
		<g>
			<path class="pink-fill" d="M146.2,0.8H4.1c-0.7,0-1.3,0.6-1.3,1.3v148.4c0,0.7,0.6,1.3,1.3,1.3h8.9c-0.1,0-0.2-0.1-0.2-0.2V17.2
				c0-0.1,0.1-0.2,0.2-0.2h124.4c0.1,0,0.2,0.1,0.2,0.2v134.4c0,0.1-0.1,0.2-0.2,0.2h8.9c0.7,0,1.3-0.6,1.3-1.3V2.1
				C147.5,1.3,146.9,0.8,146.2,0.8z"/>
			<g>
				<path class="black-stroke" d="M10.8,151.7c0,0.1-8.7,0.2-8.7,0.2c-0.7,0-1.3-0.6-1.3-1.3V2.1c0-0.7,0.6-1.3,1.3-1.3h142.1
					c0.7,0,1.3,0.6,1.3,1.3v148.4c0,0.7-0.6,1.3-1.3,1.3h-8.9L10.8,151.7z"/>
				<path class="black-stroke" d="M10.8,151.4V17.2c0-0.1,0.1-0.2,0.2-0.2h124.4c0.1,0,0.2,0.1,0.2,0.2v134.4"/>
			</g>
		</g>
		<g>
			<g>
				<path class="pink-stroke" d="M91.9,73.4c0.1-0.2,0.2-0.5,0.5-0.8c3.9-6,11.8-5,15.5,0.7c2.6,4,2.6,11.2-1.8,14.1c-1.7,1.1-3.4,1.1-5.3,1
					"/>
				<path class="pink-stroke" d="M82.3,71.3c2.2,0.2,4.6,0.6,7,1.3c1.5,0.5,2.5,0.8,3.8,1.6c7.3,4.6,7.7,15,7.7,16.5
					c0.1,2.2,0.2,6.5-2.2,11.1c-3.1,5.9-8.4,8.5-11.4,10c-12.1,5.9-24.2,2.2-29.7-0.6c-2.3-1.3-3.9-2.6-4.9-4.5
					c-2.1-3.8-1-7.9-0.5-9.3l0.3-1c0.1-0.1-0.1-0.2-0.2-0.2c-4.5,0.5-9.4-0.4-12-4.6c-3.8-6.3,1.2-15.4,7.6-17.8
					c2.3-0.9,4.8-0.6,6.8,0.9c1.3,1,2.2,2.5,3,3.9l0,0l0,0c0.6-0.5,1.2-1,1.9-1.5"/>
				<path class="pink-stroke" d="M62,81.3c-2.3-3.6-4.7-7.3-7-10.9l2.1-2.6c0.2-0.8,0.6-1.8,1.3-2.9c3-4.4,8-5.3,8.7-5.5
					c4.8-0.8,8.5,1.4,9.4,2l4.5,0.5l1.5,10.7c-1.5,2.6-3.3,4.3-4.5,5.2c-0.9,0.8-5.2,4-11.3,4c-1.9,0.1-3.4-0.2-4.5-0.5L62,81.3z"/>
				
					<ellipse transform="matrix(0.9443 -0.3291 0.3291 0.9443 -17.0143 25.3077)" class="pink-fill" cx="66.3" cy="62.9" rx="2.9" ry="1.5"/>
				<path class="pink-stroke" d="M61.9,102.7c1.5,0.4,3.6,0.8,6,0.8c3.2,0,5.8-0.6,7.5-1.2c-0.2-1.2-0.6-2.8-1.2-4.4
					c-1.1-2.5-1.6-3.6-2.7-4.3c-1.9-1.2-4.7-1.1-6.6,0.6c-1.1,1-1.5,2.3-2.1,4.2c-0.5,1.4-0.6,2.6-0.7,3.6L61.9,102.7z"/>
				<path class="pink-stroke" d="M82.9,100.7c-0.1-0.8-0.1-1.9,0.1-3.2c0.2-1.7,0.4-3.1,1.1-4.3c1.2-2.1,4-4.4,6.2-3.5
					c1.3,0.5,1.9,2.1,2.1,2.6l1.6,4.6c-0.8,0.8-2.3,2.1-4.4,2.9c-2.5,1.1-4.7,1-5.9,0.9L82.9,100.7z"/>
				<path class="pink-fill" d="M72.5,102.9c0.3-0.6,0.5-1.3,0.5-2c0-0.8-0.2-1.6-0.5-2.2l-1.7,1.3c-0.4,0.2-0.8-0.1-0.6-0.5l1.1-2.2
					c-0.5-0.4-1.1-0.5-1.7-0.5c-1.9,0-3.5,1.9-3.5,4.2c0,0.9,0.2,1.7,0.6,2.4L72.5,102.9z"/>
				<path class="pink-fill" d="M91.2,99.1c0.2-0.5,0.4-1.1,0.4-1.7c0-0.7-0.2-1.3-0.5-1.9l-1.5,1.1c-0.3,0.2-0.6-0.1-0.5-0.4l0.9-1.9
					c-0.4-0.3-0.9-0.5-1.5-0.5c-1.6,0-3,1.6-3,3.5c0,0.8,0.2,1.5,0.5,2.1c0.2,0.4,0.6,0.8,0.9,1L91.2,99.1z"/>
				<path class="pink-fill" d="M83.1,107c-0.1-0.5-0.5-1.1-1.1-0.9c-0.5,0.2-0.5,0.7-0.5,1.1c0.1,0.4,0,0.8-0.4,0.9
					c-0.4,0.2-0.9,0.3-1.2,0.1c-0.2-0.1-0.2-0.4-0.3-0.6c-0.1-0.3-0.2-0.5-0.5-0.7c-0.2-0.1-0.5-0.2-0.7-0.1
					c-0.4,0.2-0.5,0.7-0.4,1.1c0,0.1,0.1,0.2-0.1,0.4c-0.1,0.1-0.2,0.1-0.4,0.1c-0.5-0.1-0.9-0.2-1.3-0.5c-0.4-0.2-0.8-0.6-0.9-1.1
					c-0.4-1.1,0.6-2,1.4-2.6c0.5-0.3,0.9-0.6,1.5-0.8c0.9-0.4,1.9-0.5,2.9-0.5c0.8,0,1.7,0.1,2.4,0.5c0.5,0.2,0.9,0.6,1.1,1.1
					c0.2,0.5,0.1,1.1-0.2,1.6s-0.7,0.8-1.2,1.1c-0.1,0.1-0.2,0.1-0.4,0.1C83.1,107.3,83.1,107.2,83.1,107z"/>
			</g>
			<g>
				<path class="black-stroke" d="M91,73.4c0.1-0.2,0.2-0.5,0.5-0.8c3.9-6,11.8-5,15.5,0.7c2.6,4,2.6,11.2-1.8,14.1c-1.7,1.1-3.4,1.1-5.3,1"
					/>
				<path class="black-stroke" d="M81.3,71.3c2.2,0.2,4.6,0.6,7,1.3c1.5,0.5,2.5,0.8,3.8,1.6c7.3,4.6,7.7,15,7.7,16.5
					c0.1,2.2,0.2,6.5-2.2,11.1c-3.1,5.9-8.4,8.5-11.4,10c-12.1,5.9-24.2,2.2-29.7-0.6c-2.3-1.3-3.9-2.6-4.9-4.5
					c-2.1-3.8-1-7.9-0.5-9.3l0.3-1c0.1-0.1-0.1-0.2-0.2-0.2c-4.5,0.5-9.4-0.4-12-4.6c-3.8-6.3,1.2-15.4,7.6-17.8
					c2.3-0.9,4.8-0.6,6.8,0.9c1.3,1,2.2,2.5,3,3.9l0,0l0,0c0.6-0.5,1.2-1,1.9-1.5"/>
				<path class="black-stroke" d="M61,81.3c-2.3-3.6-4.7-7.3-7-10.9l2.1-2.6c0.2-0.8,0.6-1.8,1.3-2.9c3-4.4,8-5.3,8.7-5.5
					c4.8-0.8,8.5,1.4,9.4,2l4.5,0.5l1.5,10.7c-1.5,2.6-3.3,4.3-4.5,5.2c-0.9,0.8-5.2,4-11.3,4c-1.9,0.1-3.4-0.2-4.5-0.5L61,81.3z"/>
				
					<ellipse transform="matrix(0.9443 -0.3291 0.3291 0.9443 -17.0659 25.0025)" class="black-fill" cx="65.3" cy="62.9" rx="2.9" ry="1.5"/>
				<path class="black-stroke" d="M61,102.7c1.5,0.4,3.6,0.8,6,0.8c3.2,0,5.8-0.6,7.5-1.2c-0.2-1.2-0.6-2.8-1.2-4.4c-1.1-2.5-1.6-3.6-2.7-4.3
					c-1.9-1.2-4.7-1.1-6.6,0.6c-1.1,1-1.5,2.3-2.1,4.2c-0.5,1.4-0.6,2.6-0.7,3.6L61,102.7z"/>
				<path class="black-stroke" d="M82,100.7c-0.1-0.8-0.1-1.9,0.1-3.2c0.2-1.7,0.4-3.1,1.1-4.3c1.2-2.1,4-4.4,6.2-3.5
					c1.3,0.5,1.9,2.1,2.1,2.6l1.6,4.6c-0.8,0.8-2.3,2.1-4.4,2.9c-2.5,1.1-4.7,1-5.9,0.9L82,100.7z"/>
				<path class="black-fill" d="M71.6,102.9c0.3-0.6,0.5-1.3,0.5-2c0-0.8-0.2-1.6-0.5-2.2l-1.7,1.3c-0.4,0.2-0.8-0.1-0.6-0.5l1.1-2.2
					c-0.5-0.4-1.1-0.5-1.7-0.5c-1.9,0-3.5,1.9-3.5,4.2c0,0.9,0.2,1.7,0.6,2.4L71.6,102.9z"/>
				<path class="black-fill" d="M90.3,99.1c0.2-0.5,0.4-1.1,0.4-1.7c0-0.7-0.2-1.3-0.5-1.9l-1.5,1.1c-0.3,0.2-0.6-0.1-0.5-0.4l0.9-1.9
					c-0.4-0.3-0.9-0.5-1.5-0.5c-1.6,0-3,1.6-3,3.5c0,0.8,0.2,1.5,0.5,2.1c0.2,0.4,0.6,0.8,0.9,1L90.3,99.1z"/>
				<path class="black-fill" d="M82.2,107c-0.1-0.5-0.5-1.1-1.1-0.9c-0.5,0.2-0.5,0.7-0.5,1.1c0.1,0.4,0,0.8-0.4,0.9
					c-0.4,0.2-0.9,0.3-1.2,0.1c-0.2-0.1-0.2-0.4-0.3-0.6c-0.1-0.3-0.2-0.5-0.5-0.7c-0.2-0.1-0.5-0.2-0.7-0.1
					c-0.4,0.2-0.5,0.7-0.4,1.1c0,0.1,0.1,0.2-0.1,0.4c-0.1,0.1-0.2,0.1-0.4,0.1c-0.5-0.1-0.9-0.2-1.3-0.5c-0.4-0.2-0.8-0.6-0.9-1.1
					c-0.4-1.1,0.6-2,1.4-2.6c0.5-0.3,0.9-0.6,1.5-0.8c0.9-0.4,1.9-0.5,2.9-0.5c0.8,0,1.7,0.1,2.4,0.5c0.5,0.2,0.9,0.6,1.1,1.1
					c0.2,0.5,0.1,1.1-0.2,1.6c-0.3,0.5-0.7,0.8-1.2,1.1c-0.1,0.1-0.2,0.1-0.4,0.1C82.2,107.3,82.2,107.2,82.2,107z"/>
			</g>
		</g>
	</g>
</g>
</svg>
