<?xml version="1.0" encoding="utf-8"?>
<!-- Generator: Adobe Illustrator 22.0.1, SVG Export Plug-In . SVG Version: 6.00 Build 0)  -->
<svg x="0px" y="0px" width="150" height="150" viewBox="0 0 147.5 152.6" style="enable-background:new 0 0 147.5 152.6;" xml:space="preserve">
	<g id="Layer_1">
		<g>
			<g>
				<path class="pink-stroke" d="M91.5,76.4H56.6c-1.5,0-2.6-0.9-2.3-1.9l1.2-6c0.2-0.8,1.2-1.3,2.3-1.3l16.3-1.3l16.1,1.3
					c1.1,0,2.1,0.6,2.3,1.3l1.3,6C94.2,75.5,93,76.4,91.5,76.4z"/>
				<path class="pink-stroke" d="M110.5,82.1c-1.4-2-3.7-3.3-6.3-3.3L96.8,77l-2.1-10.3c-0.3-1.2-1.3-2.1-2.6-2.1l-18-1.3l-18.4,1.3
					c-1.3,0-2.4,0.9-2.6,2.2l-1.8,10.3L44,78.8c-2.6,0-4.9,1.3-6.3,3.3c-2.3,0.8-4,3-4,5.5c0,2,1.1,3.8,2.6,4.9v10.9
					c0,4.2,3.5,7.7,7.7,7.7h60.1c4.2,0,7.7-3.5,7.7-7.7V92.5c1.6-1.1,2.6-2.8,2.6-4.9C114.5,85.1,112.8,82.8,110.5,82.1z"/>
				<circle class="pink-stroke" cx="40.1" cy="87.7" r="3.6"/>
				<g>
					<path class="pink-fill" d="M59.3,111v0.7c0,2.1-1.7,3.8-3.8,3.8h-9.2c-2.1,0-3.8-1.7-3.8-3.8V111H59.3z"/>
					<path class="pink-fill" d="M105.5,110.9v0.8c0,2.1-1.7,3.8-3.8,3.8h-9.2c-2.1,0-3.8-1.7-3.8-3.8V111L105.5,110.9z"/>
				</g>
				<g>
					<path class="pink-stroke" d="M104.4,108.3H43.8c-2.8,0-5.2-2.3-5.2-5.2v-3.2c0-2.8,2.3-5.2,5.2-5.2h60.5c2.8,0,5.2,2.3,5.2,5.2v3.2
						C109.6,105.9,107.2,108.3,104.4,108.3z"/>
					<line class="pink-stroke" x1="40.1" y1="96.8" x2="108.1" y2="96.8"/>
					<line class="pink-stroke" x1="38.6" y1="99.1" x2="109.6" y2="99.1"/>
					<line class="pink-stroke" x1="38.2" y1="101.5" x2="110" y2="101.5"/>
					<line class="pink-stroke" x1="38.6" y1="103.9" x2="109.5" y2="103.9"/>
					<line class="pink-stroke" x1="40.1" y1="106.3" x2="108" y2="106.3"/>
				</g>
				<circle class="pink-stroke" cx="108.1" cy="87.7" r="3.6"/>
			</g>
			<g>
				<path class="black-stroke" d="M90.7,76.4H55.7c-1.5,0-2.6-0.9-2.3-1.9l1.2-6c0.2-0.8,1.2-1.3,2.3-1.3l16.3-1.3l16.1,1.3
					c1.1,0,2.1,0.6,2.3,1.3l1.3,6C93.3,75.5,92.2,76.4,90.7,76.4z"/>
				<path class="black-stroke" d="M109.6,82.1c-1.4-2-3.7-3.3-6.3-3.3L96,77l-2.1-10.3c-0.3-1.2-1.3-2.1-2.6-2.1l-18-1.3l-18.4,1.3
					c-1.3,0-2.4,0.9-2.6,2.2l-1.8,10.3l-7.4,1.7c-2.6,0-4.9,1.3-6.3,3.3c-2.3,0.8-4,3-4,5.5c0,2,1.1,3.8,2.6,4.9v10.9
					c0,4.2,3.5,7.7,7.7,7.7h60.1c4.2,0,7.7-3.5,7.7-7.7V92.5c1.6-1.1,2.6-2.8,2.6-4.9C113.6,85.1,111.9,82.8,109.6,82.1z"/>
				<circle class="black-stroke" cx="39.2" cy="87.7" r="3.6"/>
				<g>
					<path class="black-fill" d="M58.5,111v0.7c0,2.1-1.7,3.8-3.8,3.8h-9.2c-2.1,0-3.8-1.7-3.8-3.8V111H58.5z"/>
					<path class="black-fill" d="M104.7,110.9v0.8c0,2.1-1.7,3.8-3.8,3.8h-9.2c-2.1,0-3.8-1.7-3.8-3.8V111L104.7,110.9z"/>
				</g>
				<g>
					<path class="black-stroke" d="M103.5,108.3H42.9c-2.8,0-5.2-2.3-5.2-5.2v-3.2c0-2.8,2.3-5.2,5.2-5.2h60.5c2.8,0,5.2,2.3,5.2,5.2v3.2
						C108.7,105.9,106.3,108.3,103.5,108.3z"/>
					<line class="black-stroke" x1="39.2" y1="96.8" x2="107.2" y2="96.8"/>
					<line class="black-stroke" x1="37.7" y1="99.1" x2="108.7" y2="99.1"/>
					<line class="black-stroke" x1="37.3" y1="101.5" x2="109.1" y2="101.5"/>
					<line class="black-stroke" x1="37.8" y1="103.9" x2="108.6" y2="103.9"/>
					<line class="black-stroke" x1="39.2" y1="106.3" x2="107.1" y2="106.3"/>
				</g>
				<circle class="black-stroke" cx="107.2" cy="87.7" r="3.6"/>
			</g>
		</g>
		<g>
			<path class="pink-fill" d="M146.2,0.8H4.1c-0.7,0-1.3,0.6-1.3,1.3v148.4c0,0.7,0.6,1.3,1.3,1.3h8.9c-0.1,0-0.2-0.1-0.2-0.2V17.2
				c0-0.1,0.1-0.2,0.2-0.2h124.4c0.1,0,0.2,0.1,0.2,0.2v134.4c0,0.1-0.1,0.2-0.2,0.2h8.9c0.7,0,1.3-0.6,1.3-1.3V2.1
				C147.5,1.3,146.9,0.8,146.2,0.8z"/>
			<g>
				<path class="black-stroke" d="M10.8,151.7c0,0.1-8.7,0.2-8.7,0.2c-0.7,0-1.3-0.6-1.3-1.3V2.1c0-0.7,0.6-1.3,1.3-1.3h142.1
					c0.7,0,1.3,0.6,1.3,1.3v148.4c0,0.7-0.6,1.3-1.3,1.3h-8.9L10.8,151.7z"/>
				<path class="black-stroke" d="M10.8,151.4V17.2c0-0.1,0.1-0.2,0.2-0.2h124.4c0.1,0,0.2,0.1,0.2,0.2v134.4"/>
			</g>
		</g>
		<rect x="16.9" y="24.1" class="no-fill" width="112.4" height="24.3"/>
		<rect x="16.9" y="125.9" class="no-fill" width="112.4" height="18.3"/>
	</g>
</svg>
