<?xml version="1.0" encoding="utf-8"?>
<!-- Generator: Adobe Illustrator 22.0.1, SVG Export Plug-In . SVG Version: 6.00 Build 0)  -->
<svg x="0px" y="0px" width="150" height="150" viewBox="0 0 147.5 152.6" style="enable-background:new 0 0 147.5 152.6;" xml:space="preserve">
	<g>
		<path class="pink-fill" d="M146.2,0.8H4.1c-0.7,0-1.3,0.6-1.3,1.3v148.4c0,0.7,0.6,1.3,1.3,1.3h8.9c-0.1,0-0.2-0.1-0.2-0.2V17.2
			c0-0.1,0.1-0.2,0.2-0.2h124.4c0.1,0,0.2,0.1,0.2,0.2v134.4c0,0.1-0.1,0.2-0.2,0.2h8.9c0.7,0,1.3-0.6,1.3-1.3V2.1
			C147.5,1.3,146.9,0.8,146.2,0.8z"/>
		<g>
			<path class="black-stroke" d="M10.8,151.7c0,0.1-8.7,0.2-8.7,0.2c-0.7,0-1.3-0.6-1.3-1.3V2.1c0-0.7,0.6-1.3,1.3-1.3h142.1
				c0.7,0,1.3,0.6,1.3,1.3v148.4c0,0.7-0.6,1.3-1.3,1.3h-8.9L10.8,151.7z"/>
			<path class="black-stroke" d="M10.8,151.4V17.2c0-0.1,0.1-0.2,0.2-0.2h124.4c0.1,0,0.2,0.1,0.2,0.2v134.4"/>
		</g>
	</g>
	<rect x="16.9" y="24.1" class="no-fill" width="112.4" height="24.3"/>
	<rect x="16.9" y="125.9" class="no-fill" width="112.4" height="18.3"/>
	<g>
		<g>
			<path class="pink-stroke" d="M104.3,99.7c3.3-4.1,5.2-9,5.2-14.2c0-14.8-15.3-26.8-34.2-26.8s-34.2,12-34.2,26.8s15.3,26.8,34.2,26.8
				c5.6,0,10.8-1,15.4-2.9l18.8,3L104.3,99.7z"/>
			<g>
				<g>
					<ellipse class="pink-fill" cx="56.4" cy="96.4" rx="1.7" ry="2.4"/>
					<rect x="54.6" y="72.3" class="pink-fill" width="3.5" height="19.3"/>
				</g>
				<path class="pink-fill" d="M84.3,82.6v-3.1h-5.1l0.8-4.1l-3-0.6L76,79.6h-4.5l1-5.5l-3-0.6l-1.1,6h-6.6v3.1h6L67,87h-5.2v3.1h4.6
					l-1,5.5l3,0.6l1.1-6H74L72.7,97l3,0.6l1.4-7.4h7.1V87h-6.5l0.8-4.4H84.3z M74.6,87h-4.5l0.8-4.4h4.5L74.6,87z"/>
				<g>
					<g>
						<path class="pink-fill" d="M89.4,91.4c0-0.9,0-2.2,0.3-3.4c0.4-1.4,1.3-2.6,2.4-3.2c0.6-0.3,1.1-0.5,1.6-0.7c0.2-0.1,0.4-0.1,0.6-0.2
							c1.3-0.5,2.4-1.8,2.6-3.3c0.3-1.8-0.9-3.2-0.9-3.2c-1.2-1.3-3.5-1.7-5.1-0.8C90,77.1,89.3,78,89,79l-3.3-1
							c0.6-1.9,1.9-3.5,3.6-4.4c3-1.6,7.1-1,9.4,1.5c0.2,0.3,2.3,2.7,1.8,6c-0.4,2.6-2.3,5-4.7,6c-0.3,0.1-0.5,0.2-0.8,0.3
							c-0.4,0.1-0.7,0.2-0.9,0.4c-0.4,0.2-0.7,0.7-0.9,1.3c-0.2,0.7-0.2,1.6-0.2,2.2L89.4,91.4z"/>
					</g>
					<ellipse class="pink-fill" cx="91.3" cy="96" rx="1.7" ry="2.4"/>
				</g>
			</g>
		</g>
		<g>
			<path class="black-stroke" d="M103.4,99.7c3.3-4.1,5.2-9,5.2-14.2c0-14.8-15.3-26.8-34.2-26.8s-34.2,12-34.2,26.8s15.3,26.8,34.2,26.8
				c5.6,0,10.8-1,15.4-2.9l18.8,3L103.4,99.7z"/>
			<g>
				<g>
					<ellipse class="black-fill" cx="55.4" cy="96.4" rx="1.7" ry="2.4"/>
					<rect x="53.6" y="72.3" class="black-fill" width="3.5" height="19.3"/>
				</g>
				<path class="black-fill" d="M83.3,82.6v-3.1h-5.1l0.8-4.1l-3-0.6L75,79.6h-4.5l1-5.5l-3-0.6l-1.1,6h-6.6v3.1h6L66,87h-5.2v3.1h4.6
					l-1,5.5l3,0.6l1.1-6h4.5L71.8,97l3,0.6l1.4-7.4h7.1V87h-6.5l0.8-4.4H83.3z M73.6,87h-4.5l0.8-4.4h4.5L73.6,87z"/>
				<g>
					<g>
						<path class="black-fill" d="M88.4,91.4c0-0.9,0-2.2,0.3-3.4c0.4-1.4,1.3-2.6,2.4-3.2c0.6-0.3,1.1-0.5,1.6-0.7c0.2-0.1,0.4-0.1,0.6-0.2
							c1.3-0.5,2.4-1.8,2.6-3.3c0.3-1.8-0.9-3.2-0.9-3.2c-1.2-1.3-3.5-1.7-5.1-0.8C89,77.1,88.3,78,88,79l-3.3-1
							c0.6-1.9,1.9-3.5,3.6-4.4c3-1.6,7.1-1,9.4,1.5c0.2,0.3,2.3,2.7,1.8,6c-0.4,2.6-2.3,5-4.7,6c-0.3,0.1-0.5,0.2-0.8,0.3
							c-0.4,0.1-0.7,0.2-0.9,0.4c-0.4,0.2-0.7,0.7-0.9,1.3c-0.2,0.7-0.2,1.6-0.2,2.2L88.4,91.4z"/>
					</g>
					<ellipse class="black-fill" cx="90.3" cy="96" rx="1.7" ry="2.4"/>
				</g>
			</g>
		</g>
	</g>
</svg>
