<?xml version="1.0" encoding="utf-8"?>
<!-- Generator: Adobe Illustrator 22.0.1, SVG Export Plug-In . SVG Version: 6.00 Build 0)  -->
<svg version="1.1" id="Layer_1" xmlns="http://www.w3.org/2000/svg" xmlns:xlink="http://www.w3.org/1999/xlink" x="0px" y="0px"
	 viewBox="0 0 147.5 152.6" style="enable-background:new 0 0 147.5 152.6;" xml:space="preserve">
<g>
	<g>
		<path class="pink-stroke" d="M98,84.5c2.1-3.8,2.4-7.6,2.4-7.6C101,71.4,99.3,66.7,99,66c-0.4-1-0.5-2.1-1-3c0,0,0-0.1,0-0.2
			c0-0.1,0.1-0.1,0.1-0.2c0.2-0.3,1.6-5.8,1.6-6.5c0,0,0-0.2,0-0.2c0,0-0.1,0.1-0.1,0.1c-0.1,0.3-1.7,2.9-4.1,5.2
			c-0.1,0.1-0.1,0.1-0.2,0.1c0-0.1,0-0.2,0-0.3c-0.4-2.3-1.3-4.6-1.6-4.5c-0.4,0.1,0.1,4.7-0.1,4.7c-0.1,0-0.2-0.1-0.2-0.2
			c0,0-3.4-1.8-6.3-2.6c-4.2-1.2-8.1-0.6-10-0.3c-2.2,0.3-3.1,0.7-5.7,0.8c-2,0.1-2.9-0.2-4.6-0.2c-0.8,0-4.8-0.2-8.3,0.8
			c-1.2,0.3-6.3,1.9-9.3,6.9c-2.8,4.8-1.8,9.6-1.4,11.9c0.5,2.6,1.8,5.8,2.5,5.7c0.4-0.1,0.5-0.9,0.7-1.8c0.3-1.6,0-2.2,0.3-3.6
			c0.1-0.5,0.3-1.3,0.8-2.1c0.9-1.4,2.3-2.1,2.9-2.4c1.2-0.5,2.4-0.7,3.7-0.8l0.1,0c-1,1.2-1.3,2.5-1.6,4.4c0,0-0.2,4.5,0.9,0.9
			c0.1-0.4,1.1-3.7,4.3-4.6c2-0.6,4.5-0.2,6,1.6c1.8,2.1,1.2,4.8,1.2,5.1c0,0-1.1,2.4,0.9-0.5c1.4-1.9,1.3-5-0.1-7
			c-0.1-0.1-0.1-0.2-0.2-0.3l0.1,0c1.1-0.2,2.7-0.5,5-0.7c11.5-1.3,14.2,0.5,15.3,1.9c0.4,0.5,0.7,1,0.8,1.3c1.2,2.4,1,4.7,0.7,7.8
			c-0.2,1.8-0.1,3.5-0.5,5.3c0,0-0.3,1.5,0.1,1.6c0,0,0.1,0,0.2,0c0,0,0.2,0,0.4-0.1c0.3-0.1,0.7-0.3,1-0.4l0.2-0.1
			c0.3-2.3,0.8-3.9,1.5-4.5c0.8-0.6,1.6-0.7,1.6-0.7c1.1-0.1,1.9,0.5,2.2,0.8c1.2,1,1.3,2.5,1.4,4c0.2,1.9-0.3,3.4-0.4,3.7
			c-0.2,0.7-0.7,2.1-1.6,3.5c-0.5,0.8-0.9,1.3-1,2.1c0,0.4,0,0.7-0.2,1.2c-0.1,0.2-0.4,0.8-0.9,0.9c-0.2,0-0.5-0.1-0.6-0.1
			c-0.2-0.1-0.4-0.2-0.5-0.3c-0.1-0.1-0.3-0.4-0.6-0.7l0,0.2c-2.1,5.7-3.2,8.7-6.4,11.6c-7.2,6.5-17.1,5.3-19.7,5
			c-4-0.5-11.2-1.4-14.7-7c-2.1-3.3-3.4-9-2-13.2c0.2-0.7,0.7-1.9,0.8-3.6c0.2-2.7-0.7-4.7-1.2-6c-0.3-0.8-0.5-1.6-0.7-2.3"/>
		<ellipse transform="matrix(0.9925 -0.1223 0.1223 0.9925 -10.1913 7.9355)" class="pink-fill" cx="59.6" cy="87" rx="1.4" ry="3.6"/>
		<ellipse class="pink-fill" cx="78.1" cy="86.3" rx="1.3" ry="3.5"/>
		<path class="pink-fill" d="M69.6,94.5c-0.4-0.2-0.9-0.4-1.2-0.9c-0.3-0.5-0.5-1.3,0-1.8c0.3-0.4,0.8-0.5,1.1-0.5c0.5-0.1,0.4,0,0.6,0
			c0,0,0.1,0,0-0.1c-0.1-0.1-0.1-0.1-0.2-0.2c-0.5-0.4-1.3-0.7-2.2-0.4c-0.7,0.3-1,0.9-1,0.9c-0.4,0.9,0.3,1.9,0.4,2
			c0.6,0.7,1.5,1,1.8,1c0.5,0.1,0.9,0.1,1,0.1C70,94.7,70.1,94.7,69.6,94.5z"/>
		<g>
			<path class="pink-stroke" d="M83.5,97c0.2,2.6-1.1,5.1-1.1,5.1c-1.1,2.2-2.3,4.5-4.7,6.2c-1.4,1-2.4,1.2-3.1,1.3c-0.6,0-0.9,0-2.1-0.3
				c-0.5-0.1-2.4-0.4-4.1-0.6c-2.5-0.3-3.1,0-4.1-0.7c-0.4-0.3-0.7-0.7-1.2-1.6c-1.5-2.4-2.3-4.9-3.1-5.6c-0.3-0.2-0.5-0.5-0.7-0.7
				c-0.2-0.2-0.4-0.4-0.4-0.5c0-0.1,0.3-0.2,0.4-0.2c1.2-0.1,10.3,0.8,15.5-0.4c2.1-0.5,5.6-1.7,7.2-2.1c0.7-0.2,1.3-0.5,1.3-0.5
				C83.4,96.6,83.5,96.9,83.5,97z"/>
			<path class="pink-fill" d="M72.7,103.6c0.2-0.2,0.4-0.4,0.7-0.7c0.5-0.5,1.1-1,1.8-1.3c0.7-0.3,1.4-0.5,2.2-0.6c0.3,0,2.7-0.2,4.8,1.3
				l0.8-2.5l0.1-2.9l-8.1,2.5l-7.7,0.5l-7.8-0.2l2.7,5.4c1.3-1.2,3.2-2,3.5-2.2c3-1.2,5.1-0.9,6.6-0.6l-0.1,0.9
				C72.3,103.4,72.3,104,72.7,103.6z"/>
		</g>
	</g>
	<g>
		<path class="black-stroke" d="M97.2,84.5c2.1-3.8,2.4-7.6,2.4-7.6c0.5-5.4-1.1-10.2-1.4-10.9c-0.4-1-0.5-2.1-1-3c0,0,0-0.1,0-0.2
			c0-0.1,0.1-0.1,0.1-0.2c0.2-0.3,1.6-5.8,1.6-6.5c0,0,0-0.2,0-0.2c0,0-0.1,0.1-0.1,0.1c-0.1,0.3-1.7,2.9-4.1,5.2
			c-0.1,0.1-0.1,0.1-0.2,0.1c0-0.1,0-0.2,0-0.3c-0.4-2.3-1.3-4.6-1.6-4.5c-0.4,0.1,0.1,4.7-0.1,4.7c-0.1,0-0.2-0.1-0.2-0.2
			c0,0-3.4-1.8-6.3-2.6c-4.2-1.2-8.1-0.6-10-0.3c-2.2,0.3-3.1,0.7-5.7,0.8c-2,0.1-2.9-0.2-4.6-0.2c-0.8,0-4.8-0.2-8.3,0.8
			c-1.2,0.3-6.3,1.9-9.3,6.9c-2.8,4.8-1.8,9.6-1.4,11.9c0.5,2.6,1.8,5.8,2.5,5.7c0.4-0.1,0.5-0.9,0.7-1.8c0.3-1.6,0-2.2,0.3-3.6
			c0.1-0.5,0.3-1.3,0.8-2.1c0.9-1.4,2.3-2.1,2.9-2.4c1.2-0.5,2.4-0.7,3.7-0.8l0.1,0c-1,1.2-1.3,2.5-1.6,4.4c0,0-0.2,4.5,0.9,0.9
			c0.1-0.4,1.1-3.7,4.3-4.6c2-0.6,4.5-0.2,6,1.6c1.8,2.1,1.2,4.8,1.2,5.1c0,0-1.1,2.4,0.9-0.5c1.4-1.9,1.3-5-0.1-7
			c-0.1-0.1-0.1-0.2-0.2-0.3l0.1,0c1.1-0.2,2.7-0.5,5-0.7C86,70.8,88.7,72.7,89.9,74c0.4,0.5,0.7,1,0.8,1.3c1.2,2.4,1,4.7,0.7,7.8
			c-0.2,1.8-0.1,3.5-0.5,5.3c0,0-0.3,1.5,0.1,1.6c0,0,0.1,0,0.2,0c0,0,0.2,0,0.4-0.1c0.3-0.1,0.7-0.3,1-0.4l0.2-0.1
			c0.3-2.3,0.8-3.9,1.5-4.5c0.8-0.6,1.6-0.7,1.6-0.7c1.1-0.1,1.9,0.5,2.2,0.8c1.2,1,1.3,2.5,1.4,4c0.2,1.9-0.3,3.4-0.4,3.7
			c-0.2,0.7-0.7,2.1-1.6,3.5c-0.5,0.8-0.9,1.3-1,2.1c0,0.4,0,0.7-0.2,1.2c-0.1,0.2-0.4,0.8-0.9,0.9c-0.2,0-0.5-0.1-0.6-0.1
			c-0.2-0.1-0.4-0.2-0.5-0.3c-0.1-0.1-0.3-0.4-0.6-0.7l0,0.2c-2.1,5.7-3.2,8.7-6.4,11.6c-7.2,6.5-17.1,5.3-19.7,5
			c-4-0.5-11.2-1.4-14.7-7c-2.1-3.3-3.4-9-2-13.2c0.2-0.7,0.7-1.9,0.8-3.6c0.2-2.7-0.7-4.7-1.2-6c-0.3-0.8-0.5-1.6-0.7-2.3"/>
		<ellipse transform="matrix(0.9925 -0.1223 0.1223 0.9925 -10.1968 7.8458)" class="black-fill" cx="58.8" cy="87" rx="1.4" ry="3.6"/>
		<ellipse class="black-fill" cx="77.4" cy="86.3" rx="1.3" ry="3.5"/>
		<path class="black-fill" d="M68.9,94.5c-0.4-0.2-0.9-0.4-1.2-0.9c-0.3-0.5-0.5-1.3,0-1.8c0.3-0.4,0.8-0.5,1.1-0.5c0.5-0.1,0.4,0,0.6,0
			c0,0,0.1,0,0-0.1c-0.1-0.1-0.1-0.1-0.2-0.2c-0.5-0.4-1.3-0.7-2.2-0.4c-0.7,0.3-1,0.9-1,0.9c-0.4,0.9,0.3,1.9,0.4,2
			c0.6,0.7,1.5,1,1.8,1c0.5,0.1,0.9,0.1,1,0.1C69.2,94.7,69.4,94.7,68.9,94.5z"/>
		<g>
			<path class="black-stroke" d="M82.7,97c0.2,2.6-1.1,5.1-1.1,5.1c-1.1,2.2-2.3,4.5-4.7,6.2c-1.4,1-2.4,1.2-3.1,1.3c-0.6,0-0.9,0-2.1-0.3
				c-0.5-0.1-2.4-0.4-4.1-0.6c-2.5-0.3-3.1,0-4.1-0.7c-0.4-0.3-0.7-0.7-1.2-1.6c-1.5-2.4-2.3-4.9-3.1-5.6c-0.3-0.2-0.5-0.5-0.7-0.7
				c-0.2-0.2-0.4-0.4-0.4-0.5c0-0.1,0.3-0.2,0.4-0.2c1.2-0.1,10.3,0.8,15.5-0.4c2.1-0.5,5.6-1.7,7.2-2.1c0.7-0.2,1.3-0.5,1.3-0.5
				C82.7,96.6,82.7,96.9,82.7,97z"/>
			<path class="black-fill" d="M72,103.6c0.2-0.2,0.4-0.4,0.7-0.7c0.5-0.5,1.1-1,1.8-1.3c0.7-0.3,1.4-0.5,2.2-0.6c0.3,0,2.7-0.2,4.8,1.3
				l0.8-2.5l0.1-2.9l-8.1,2.5l-7.7,0.5l-7.8-0.2l2.7,5.4c1.3-1.2,3.2-2,3.5-2.2c3-1.2,5.1-0.9,6.6-0.6l-0.1,0.9
				C71.6,103.4,71.6,104,72,103.6z"/>
		</g>
	</g>
</g>
<g>
	<path class="pink-fill" d="M146.2,0.8H4.1c-0.7,0-1.3,0.6-1.3,1.3v148.4c0,0.7,0.6,1.3,1.3,1.3h8.9c-0.1,0-0.2-0.1-0.2-0.2V17.2
		c0-0.1,0.1-0.2,0.2-0.2h124.4c0.1,0,0.2,0.1,0.2,0.2v134.4c0,0.1-0.1,0.2-0.2,0.2h8.9c0.7,0,1.3-0.6,1.3-1.3V2.1
		C147.5,1.3,146.9,0.8,146.2,0.8z"/>
	<g>
		<path class="black-stroke" d="M10.8,151.7c0,0.1-8.7,0.2-8.7,0.2c-0.7,0-1.3-0.6-1.3-1.3V2.1c0-0.7,0.6-1.3,1.3-1.3h142.1
			c0.7,0,1.3,0.6,1.3,1.3v148.4c0,0.7-0.6,1.3-1.3,1.3h-8.9L10.8,151.7z"/>
		<path class="black-stroke" d="M10.8,151.4V17.2c0-0.1,0.1-0.2,0.2-0.2h124.4c0.1,0,0.2,0.1,0.2,0.2v134.4"/>
	</g>
</g>
<rect x="16.9" y="24.1" class="no-fill" width="112.4" height="24.3"/>
<rect x="16.9" y="125.9" class="no-fill" width="112.4" height="18.3"/>
</svg>
