<?xml version="1.0" encoding="utf-8"?>
<!-- Generator: Adobe Illustrator 22.0.1, SVG Export Plug-In . SVG Version: 6.00 Build 0)  -->
<svg x="0px" y="0px" width="150" height="150" viewBox="0 0 147.5 152.6" style="enable-background:new 0 0 147.5 152.6;" xml:space="preserve">
	<g>
		<path class="pink-fill" d="M146.2,0.8H4.1c-0.7,0-1.3,0.6-1.3,1.3v148.4c0,0.7,0.6,1.3,1.3,1.3h8.9c-0.1,0-0.2-0.1-0.2-0.2V17.2
			c0-0.1,0.1-0.2,0.2-0.2h124.4c0.1,0,0.2,0.1,0.2,0.2v134.4c0,0.1-0.1,0.2-0.2,0.2h8.9c0.7,0,1.3-0.6,1.3-1.3V2.1
			C147.5,1.3,146.9,0.8,146.2,0.8z"/>
		<g>
			<path class="black-stroke" d="M10.8,151.7c0,0.1-8.7,0.2-8.7,0.2c-0.7,0-1.3-0.6-1.3-1.3V2.1c0-0.7,0.6-1.3,1.3-1.3h142.1
				c0.7,0,1.3,0.6,1.3,1.3v148.4c0,0.7-0.6,1.3-1.3,1.3h-8.9L10.8,151.7z"/>
			<path class="black-stroke" d="M10.8,151.4V17.2c0-0.1,0.1-0.2,0.2-0.2h124.4c0.1,0,0.2,0.1,0.2,0.2v134.4"/>
		</g>
	</g>
	<rect x="16.9" y="24.1" class="no-fill" width="112.4" height="24.3"/>
	<rect x="16.9" y="125.9" class="no-fill" width="112.4" height="18.3"/>
	<g>
		<g>
			<path class="pink-stroke" d="M69.6,60.3V77l-17.5,30.3c-2.7,4.7,0.7,10.5,6,10.5h35c5.4,0,8.7-5.8,6-10.5L81.7,77V60.3"/>
			<path class="pink-stroke" d="M82.9,60.3H68.3c-0.6,0-1.1-0.5-1.1-1.1V59c0-0.6,0.5-1.1,1.1-1.1h14.6c0.6,0,1.1,0.5,1.1,1.1v0.2
				C84,59.8,83.5,60.3,82.9,60.3z"/>
			<path class="pink-fill" d="M92.3,95.3l6.9,11.9c2.7,4.7-0.7,10.5-6,10.5h-35c-5.4,0-8.7-5.8-6-10.5L59,95.3L92.3,95.3z"/>
		</g>
		<g>
			<path class="black-stroke" d="M68.6,60.3V77l-17.5,30.3c-2.7,4.7,0.7,10.5,6,10.5h35c5.4,0,8.7-5.8,6-10.5L80.7,77V60.3"/>
			<path class="black-stroke" d="M81.9,60.3H67.4c-0.6,0-1.1-0.5-1.1-1.1V59c0-0.6,0.5-1.1,1.1-1.1h14.6c0.6,0,1.1,0.5,1.1,1.1v0.2
				C83,59.8,82.5,60.3,81.9,60.3z"/>
			<path class="black-fill" d="M91.3,95.3l6.9,11.9c2.7,4.7-0.7,10.5-6,10.5h-35c-5.4,0-8.7-5.8-6-10.5L58,95.3L91.3,95.3z"/>
		</g>
	</g>
</svg>
