<?xml version="1.0" encoding="utf-8"?>
<!-- Generator: Adobe Illustrator 22.0.1, SVG Export Plug-In . SVG Version: 6.00 Build 0)  -->
<svg version="1.1" id="Layer_1" xmlns="http://www.w3.org/2000/svg" xmlns:xlink="http://www.w3.org/1999/xlink" x="0px" y="0px"
	 viewBox="0 0 147.5 152.6" style="enable-background:new 0 0 147.5 152.6;" xml:space="preserve">
<style type="text/css">
	.pink-fill{fill:#F39978;}
	.black-stroke{fill:none;stroke:#333333;stroke-width:1.5;stroke-miterlimit:10;}
	.no-fill{fill:none;}
	.pink-stroke{fill:none;stroke:#F39978;stroke-width:1.5;stroke-miterlimit:10;}
</style>
<g>
	<g>
		<g>
			<path class="pink-fill" d="M146.1,0.8H4C3.3,0.8,2.7,1.4,2.7,2v148.4c0,0.7,0.6,1.3,1.3,1.3h8.9c-0.1,0-0.2-0.1-0.2-0.2V17.2
				c0-0.1,0.1-0.2,0.2-0.2h124.4c0.1,0,0.2,0.1,0.2,0.2v134.4c0,0.1-0.1,0.2-0.2,0.2h8.9c0.7,0,1.3-0.6,1.3-1.3V2
				C147.4,1.2,146.8,0.8,146.1,0.8z"/>
			<g>
				<path class="black-stroke" d="M10.8,151.6c0,0.1-8.7,0.2-8.7,0.2c-0.7,0-1.3-0.6-1.3-1.3V2c0-0.7,0.6-1.3,1.3-1.3h142.1
					c0.7,0,1.3,0.6,1.3,1.3v148.4c0,0.7-0.6,1.3-1.3,1.3h-8.9L10.8,151.6z"/>
				<path class="black-stroke" d="M10.8,151.3V17.2c0-0.1,0.1-0.2,0.2-0.2h124.4c0.1,0,0.2,0.1,0.2,0.2v134.4"/>
			</g>
		</g>
		<rect x="16.8" y="24.1" class="no-fill" width="112.4" height="24.3"/>
		<rect x="16.8" y="125.8" class="no-fill" width="112.4" height="18.3"/>
	</g>
	<g>
		<g>
			<g>
				<path class="pink-stroke" d="M74.8,116.2c-16,0-29-13-29-29s13-29,29-29s29,13,29,29S90.8,116.2,74.8,116.2z"/>
				<path class="pink-stroke" d="M61.9,80.2c0,0.1,0.2,0.1,0.2,0l4.5-9l3.2-6.5c0-0.1,0-0.2-0.1-0.2c-4.7,1.1-8.8,3.6-11.9,7
					c0,0,0,0.1,0,0.1L61.9,80.2z"/>
				<path class="pink-stroke" d="M87.5,80.2c0,0.1,0.2,0.1,0.2,0l4.2-8.6c0,0,0-0.1,0-0.1c-3.1-3.4-7.3-5.9-11.9-7c-0.1,0-0.2,0.1-0.1,0.2
					l3.8,7.7L87.5,80.2z"/>
				<path class="pink-stroke" d="M74.7,68l-9.5,19.1c0,0,0,0.1,0,0.1l9.5,19.1c0,0.1,0.2,0.1,0.2,0l9.5-19.1c0,0,0-0.1,0-0.1L74.9,68
					C74.8,67.9,74.7,67.9,74.7,68z"/>
				<path class="pink-stroke" d="M90.9,86.9c0,0,0,0.1,0,0.1l4.8,9.7c0,0.1,0.2,0.1,0.2,0c1.3-2.9,2.1-6.3,2.1-9.7c0-3.5-0.8-6.8-2.2-9.8
					c0-0.1-0.2-0.1-0.2,0L93,82.6L90.9,86.9z"/>
				<path class="pink-stroke" d="M58.7,86.9l-2-4.1L54,77.3c0-0.1-0.2-0.1-0.2,0c-1.5,3-2.2,6.3-2.2,9.8c0,3.4,0.7,6.7,2.1,9.7
					c0,0.1,0.2,0.1,0.2,0l4.8-9.7C58.7,86.9,58.7,86.9,58.7,86.9z"/>
				<path class="pink-stroke" d="M62.1,93.8c0-0.1-0.2-0.1-0.2,0l-4.3,8.7c0,0,0,0.1,0,0.1c3.2,3.5,7.4,6.1,12.2,7.1c0.1,0,0.2-0.1,0.1-0.2
					l-4.4-8.8L62.1,93.8z"/>
				<path class="pink-stroke" d="M87.5,93.8l-3.2,6.4l-4.6,9.4c0,0.1,0,0.2,0.1,0.2c4.8-1.1,9-3.6,12.2-7.1c0,0,0-0.1,0-0.1l-4.3-8.7
					C87.7,93.7,87.6,93.7,87.5,93.8z"/>
			</g>
			<circle class="pink-stroke" cx="74.8" cy="87.2" r="31.4"/>
		</g>
		<g>
			<g>
				<path class="black-stroke" d="M73.8,116.2c-16,0-29-13-29-29s13-29,29-29s29,13,29,29S89.8,116.2,73.8,116.2z"/>
				<path class="black-stroke" d="M60.9,80.2c0,0.1,0.2,0.1,0.2,0l4.5-9l3.2-6.5c0-0.1,0-0.2-0.1-0.2c-4.7,1.1-8.8,3.6-11.9,7
					c0,0,0,0.1,0,0.1L60.9,80.2z"/>
				<path class="black-stroke" d="M86.5,80.2c0,0.1,0.2,0.1,0.2,0l4.2-8.6c0,0,0-0.1,0-0.1c-3.1-3.4-7.3-5.9-11.9-7c-0.1,0-0.2,0.1-0.1,0.2
					l3.8,7.7L86.5,80.2z"/>
				<path class="black-stroke" d="M73.7,68l-9.5,19.1c0,0,0,0.1,0,0.1l9.5,19.1c0,0.1,0.2,0.1,0.2,0l9.5-19.1c0,0,0-0.1,0-0.1L73.9,68
					C73.9,67.9,73.7,67.9,73.7,68z"/>
				<path class="black-stroke" d="M89.9,86.9c0,0,0,0.1,0,0.1l4.8,9.7c0,0.1,0.2,0.1,0.2,0c1.3-2.9,2.1-6.3,2.1-9.7c0-3.5-0.8-6.8-2.2-9.8
					c0-0.1-0.2-0.1-0.2,0L92,82.6L89.9,86.9z"/>
				<path class="black-stroke" d="M57.7,86.9l-2-4.1L53,77.3c0-0.1-0.2-0.1-0.2,0c-1.5,3-2.2,6.3-2.2,9.8c0,3.4,0.7,6.7,2.1,9.7
					c0,0.1,0.2,0.1,0.2,0l4.8-9.7C57.7,86.9,57.7,86.9,57.7,86.9z"/>
				<path class="black-stroke" d="M61.1,93.8c0-0.1-0.2-0.1-0.2,0l-4.3,8.7c0,0,0,0.1,0,0.1c3.2,3.5,7.4,6.1,12.2,7.1c0.1,0,0.2-0.1,0.1-0.2
					l-4.4-8.8L61.1,93.8z"/>
				<path class="black-stroke" d="M86.5,93.8l-3.2,6.4l-4.6,9.4c0,0.1,0,0.2,0.1,0.2c4.8-1.1,9-3.6,12.2-7.1c0,0,0-0.1,0-0.1l-4.3-8.7
					C86.7,93.7,86.5,93.7,86.5,93.8z"/>
			</g>
			<circle class="black-stroke" cx="73.8" cy="87.2" r="31.4"/>
		</g>
	</g>
</g>
</svg>
