<?xml version="1.0" encoding="utf-8"?>
<!-- Generator: Adobe Illustrator 22.0.1, SVG Export Plug-In . SVG Version: 6.00 Build 0)  -->
<svg version="1.1" id="Layer_1" xmlns="http://www.w3.org/2000/svg" xmlns:xlink="http://www.w3.org/1999/xlink" x="0px" y="0px"
	 viewBox="0 0 154.3 154.3" style="enable-background:new 0 0 154.3 154.3;" xml:space="preserve">
<style type="text/css">
	.st0{fill:none;stroke:#333333;stroke-width:3;stroke-miterlimit:10;}
</style>
<g>
	<g>
		<path class="st0" d="M77.2,147.2c-38.6,0-70-31.4-70-70c0-38.6,31.4-70,70-70c38.6,0,70,31.4,70,70
			C147.2,115.8,115.8,147.2,77.2,147.2z"/>
		<path class="st0" d="M46.1,60.4c0.1,0.2,0.4,0.2,0.5,0l10.8-21.8L65.1,23c0.1-0.2-0.1-0.5-0.3-0.4c-11.3,2.6-21.3,8.6-28.8,16.8
			c-0.1,0.1-0.1,0.2,0,0.3L46.1,60.4z"/>
		<path class="st0" d="M107.8,60.4c0.1,0.2,0.4,0.2,0.5,0l10.2-20.7c0.1-0.1,0-0.3,0-0.3c-7.5-8.3-17.5-14.3-28.8-16.8
			c-0.2-0.1-0.5,0.2-0.3,0.4l9.2,18.6L107.8,60.4z"/>
		<path class="st0" d="M76.9,30.9L54.1,77c0,0.1,0,0.2,0,0.3l22.8,46.1c0.1,0.2,0.4,0.2,0.5,0l22.8-46.1c0-0.1,0-0.2,0-0.3
			L77.4,30.9C77.3,30.7,77,30.7,76.9,30.9z"/>
		<path class="st0" d="M116,76.5c0,0.1,0,0.2,0,0.3l11.6,23.5c0.1,0.2,0.4,0.2,0.6,0c3.2-7,5-15.1,5-23.3c0-8.4-1.9-16.5-5.2-23.6
			c-0.1-0.2-0.4-0.2-0.5,0L121.1,66L116,76.5z"/>
		<path class="st0" d="M38.4,76.5l-4.9-10L27,53.3c-0.1-0.2-0.4-0.2-0.5,0C23,60.5,21.2,68.5,21.2,77c0,8.3,1.8,16.2,5.1,23.3
			c0.1,0.2,0.4,0.2,0.5,0l11.6-23.5C38.4,76.7,38.4,76.6,38.4,76.5z"/>
		<path class="st0" d="M46.5,93.2c-0.1-0.2-0.4-0.2-0.5,0l-10.4,21.1c-0.1,0.1,0,0.2,0,0.3c7.7,8.5,17.9,14.6,29.5,17.2
			c0.2,0.1,0.4-0.2,0.3-0.4l-10.5-21.2L46.5,93.2z"/>
		<path class="st0" d="M107.9,93.2l-7.7,15.5L89,131.4c-0.1,0.2,0.1,0.5,0.3,0.4c11.6-2.6,21.8-8.7,29.5-17.2c0.1-0.1,0.1-0.2,0-0.3
			l-10.4-21.1C108.3,92.9,108,92.9,107.9,93.2z"/>
	</g>
	<circle class="st0" cx="77.2" cy="77.2" r="75.7"/>
</g>
</svg>
