<?xml version="1.0" encoding="utf-8"?>
<!-- Generator: Adobe Illustrator 22.0.1, SVG Export Plug-In . SVG Version: 6.00 Build 0)  -->
<svg version="1.1" id="Layer_1" xmlns="http://www.w3.org/2000/svg" xmlns:xlink="http://www.w3.org/1999/xlink" x="0px" y="0px"
	 viewBox="0 0 154 152.9" style="enable-background:new 0 0 154 152.9;" xml:space="preserve">
<style type="text/css">
	.pink-fill{fill:#F39978;}
	.black-stroke{fill:none;stroke:#333333;stroke-width:1.5;stroke-miterlimit:10;}
	.no-fill{fill:none;}
	.pink-stroke{fill:none;stroke:#F39978;stroke-width:1.5;stroke-miterlimit:10;}
</style>
<g>
	<path class="pink-fill" d="M145.7,0.8H3.6c-0.7,0-1.3,0.6-1.3,1.3v148.4c0,0.7,0.6,1.3,1.3,1.3h8.9c-0.1,0-0.2-0.1-0.2-0.2V17.2
		c0-0.1,0.1-0.2,0.2-0.2h124.4c0.1,0,0.2,0.1,0.2,0.2v134.4c0,0.1-0.1,0.2-0.2,0.2h8.9c0.7,0,1.3-0.6,1.3-1.3V2.1
		C147,1.3,146.4,0.8,145.7,0.8z"/>
	<g>
		<path class="black-stroke" d="M10.3,151.7c0,0.1-8.7,0.2-8.7,0.2c-0.7,0-1.3-0.6-1.3-1.3V2.1c0-0.7,0.6-1.3,1.3-1.3h142.1
			c0.7,0,1.3,0.6,1.3,1.3v148.4c0,0.7-0.6,1.3-1.3,1.3h-8.9L10.3,151.7z"/>
		<path class="black-stroke" d="M10.3,151.4V17.2c0-0.1,0.1-0.2,0.2-0.2h124.4c0.1,0,0.2,0.1,0.2,0.2v134.4"/>
	</g>
</g>
<rect x="16.4" y="24.1" class="no-fill" width="112.4" height="24.3"/>
<rect x="16.4" y="125.9" class="no-fill" width="112.4" height="18.3"/>
<g>
	<g>
		<g>
			<path class="pink-stroke" d="M73.4,114.4c-16.2,0-29.4-13.2-29.4-29.4s13.2-29.4,29.4-29.4s29.4,13.2,29.4,29.4S89.6,114.4,73.4,114.4z"
				/>
			<path class="pink-stroke" d="M60.4,78c0,0.1,0.2,0.1,0.2,0l4.5-9.1l3.2-6.5c0-0.1,0-0.2-0.1-0.2c-4.7,1.1-8.9,3.6-12.1,7c0,0,0,0.1,0,0.1
				L60.4,78z"/>
			<path class="pink-stroke" d="M86.3,78c0,0.1,0.2,0.1,0.2,0l4.3-8.7c0,0,0-0.1,0-0.1c-3.1-3.5-7.3-6-12.1-7c-0.1,0-0.2,0.1-0.1,0.2
				l3.9,7.8L86.3,78z"/>
			<path class="pink-stroke" d="M73.3,65.6l-9.6,19.3c0,0,0,0.1,0,0.1l9.6,19.3c0,0.1,0.2,0.1,0.2,0L83.1,85c0,0,0-0.1,0-0.1l-9.6-19.3
				C73.5,65.5,73.3,65.5,73.3,65.6z"/>
			<path class="pink-stroke" d="M89.7,84.7c0,0,0,0.1,0,0.1l4.9,9.9c0,0.1,0.2,0.1,0.3,0c1.3-2.9,2.1-6.3,2.1-9.8c0-3.5-0.8-6.9-2.2-9.9
				c0-0.1-0.2-0.1-0.2,0l-2.7,5.3L89.7,84.7z"/>
			<path class="pink-stroke" d="M57.2,84.7l-2.1-4.2L52.4,75c0-0.1-0.2-0.1-0.2,0c-1.5,3-2.2,6.4-2.2,9.9c0,3.5,0.8,6.8,2.1,9.8
				c0,0.1,0.2,0.1,0.2,0l4.9-9.9C57.2,84.8,57.2,84.7,57.2,84.7z"/>
			<path class="pink-stroke" d="M60.6,91.7c0-0.1-0.2-0.1-0.2,0l-4.4,8.9c0,0,0,0.1,0,0.1c3.2,3.6,7.5,6.1,12.4,7.2c0.1,0,0.2-0.1,0.1-0.2
				l-4.4-8.9L60.6,91.7z"/>
			<path class="pink-stroke" d="M86.3,91.7l-3.2,6.5l-4.7,9.5c0,0.1,0,0.2,0.1,0.2c4.9-1.1,9.1-3.7,12.4-7.2c0,0,0-0.1,0-0.1l-4.4-8.9
				C86.5,91.6,86.4,91.6,86.3,91.7z"/>
		</g>
		<circle class="pink-stroke" cx="73.4" cy="85" r="31.8"/>
	</g>
	<g>
		<g>
			<path class="black-stroke" d="M73,114.4c-16.2,0-29.4-13.2-29.4-29.4S56.8,55.6,73,55.6s29.4,13.2,29.4,29.4S89.2,114.4,73,114.4z"/>
			<path class="black-stroke" d="M59.9,78c0,0.1,0.2,0.1,0.2,0l4.5-9.1l3.2-6.5c0-0.1,0-0.2-0.1-0.2c-4.7,1.1-8.9,3.6-12.1,7c0,0,0,0.1,0,0.1
				L59.9,78z"/>
			<path class="black-stroke" d="M85.8,78c0,0.1,0.2,0.1,0.2,0l4.3-8.7c0,0,0-0.1,0-0.1c-3.1-3.5-7.3-6-12.1-7c-0.1,0-0.2,0.1-0.1,0.2
				l3.9,7.8L85.8,78z"/>
			<path class="black-stroke" d="M72.9,65.6l-9.6,19.3c0,0,0,0.1,0,0.1l9.6,19.3c0,0.1,0.2,0.1,0.2,0L82.6,85c0,0,0-0.1,0-0.1l-9.5-19.3
				C73.1,65.5,72.9,65.5,72.9,65.6z"/>
			<path class="black-stroke" d="M89.2,84.7c0,0,0,0.1,0,0.1l4.9,9.9c0,0.1,0.2,0.1,0.3,0c1.3-2.9,2.1-6.3,2.1-9.8c0-3.5-0.8-6.9-2.2-9.9
				c0-0.1-0.2-0.1-0.2,0l-2.7,5.3L89.2,84.7z"/>
			<path class="black-stroke" d="M56.7,84.7l-2.1-4.2L51.9,75c0-0.1-0.2-0.1-0.2,0c-1.5,3-2.2,6.4-2.2,9.9c0,3.5,0.8,6.8,2.1,9.8
				c0,0.1,0.2,0.1,0.2,0l4.9-9.9C56.7,84.8,56.7,84.7,56.7,84.7z"/>
			<path class="black-stroke" d="M60.1,91.7c0-0.1-0.2-0.1-0.2,0l-4.4,8.9c0,0,0,0.1,0,0.1c3.2,3.6,7.5,6.1,12.4,7.2c0.1,0,0.2-0.1,0.1-0.2
				l-4.4-8.9L60.1,91.7z"/>
			<path class="black-stroke" d="M85.9,91.7l-3.2,6.5l-4.7,9.5c0,0.1,0,0.2,0.1,0.2c4.9-1.1,9.1-3.7,12.4-7.2c0,0,0-0.1,0-0.1l-4.4-8.9
				C86.1,91.6,85.9,91.6,85.9,91.7z"/>
		</g>
		<circle class="black-stroke" cx="73" cy="85" r="31.8"/>
	</g>
</g>
</svg>
