<?xml version="1.0" encoding="utf-8"?>
<!-- Generator: Adobe Illustrator 22.0.1, SVG Export Plug-In . SVG Version: 6.00 Build 0)  -->
<svg version="1.1" xmlns="http://www.w3.org/2000/svg" xmlns:xlink="http://www.w3.org/1999/xlink" x="0px" y="0px"
	 viewBox="0 0 147.5 152.6" style="enable-background:new 0 0 147.5 152.6;" xml:space="preserve">
<g id="Layer_2">
</g>
<g id="Layer_1">
	<rect x="16.9" y="24.1" class="no-fill" width="112.4" height="24.3"/>
	<rect x="16.9" y="125.9" class="no-fill" width="112.4" height="18.3"/>
	<g>
		<g>
			<path class="pink-fill" d="M146.2,0.8H4.1c-0.7,0-1.3,0.6-1.3,1.3v148.4c0,0.7,0.6,1.3,1.3,1.3h8.9c-0.1,0-0.2-0.1-0.2-0.2V17.2
				c0-0.1,0.1-0.2,0.2-0.2h124.4c0.1,0,0.2,0.1,0.2,0.2v134.4c0,0.1-0.1,0.2-0.2,0.2h8.9c0.7,0,1.3-0.6,1.3-1.3V2.1
				C147.5,1.3,146.9,0.8,146.2,0.8z"/>
			<g>
				<path class="black-stroke" d="M10.8,151.7c0,0.1-8.7,0.2-8.7,0.2c-0.7,0-1.3-0.6-1.3-1.3V2.1c0-0.7,0.6-1.3,1.3-1.3h142.1
					c0.7,0,1.3,0.6,1.3,1.3v148.4c0,0.7-0.6,1.3-1.3,1.3h-8.9L10.8,151.7z"/>
				<path class="black-stroke" d="M10.8,151.4V17.2c0-0.1,0.1-0.2,0.2-0.2h124.4c0.1,0,0.2,0.1,0.2,0.2v134.4"/>
			</g>
		</g>
		<g>
			<g>
				<g>
					<path class="pink-stroke" d="M59.5,77.3v-7.1c0-8,6.6-14.6,14.6-14.6s14.6,6.6,14.6,14.6v7.1"/>
					<path class="pink-stroke" d="M62.7,77.3v-7.1c0-6.3,5.1-11.4,11.4-11.4s11.4,5.1,11.4,11.4v7.1"/>
				</g>
				<path class="pink-stroke" d="M92.3,77.3c3.7,4.3,6,9.8,6,15.9c0,13.4-10.8,24.1-24.1,24.1S50,106.5,50,93.2c0-6.1,2.3-11.7,6-15.9H92.3z
					"/>
				<circle class="pink-fill" cx="74.1" cy="93.4" r="3.8"/>
				<path class="pink-fill" d="M74.1,103.4L74.1,103.4c-0.9,0-1.6-0.7-1.6-1.6v-4.9c0-0.9,0.7-1.6,1.6-1.6l0,0c0.9,0,1.6,0.7,1.6,1.6v4.9
					C75.7,102.7,75,103.4,74.1,103.4z"/>
			</g>
			<g>
				<g>
					<path class="black-stroke" d="M58.7,77.3v-7.1c0-8,6.6-14.6,14.6-14.6s14.6,6.6,14.6,14.6v7.1"/>
					<path class="black-stroke" d="M61.9,77.3v-7.1c0-6.3,5.1-11.4,11.4-11.4s11.4,5.1,11.4,11.4v7.1"/>
				</g>
				<path class="black-stroke" d="M91.5,77.3c3.7,4.3,6,9.8,6,15.9c0,13.4-10.8,24.1-24.1,24.1s-24.1-10.8-24.1-24.1c0-6.1,2.3-11.7,6-15.9
					H91.5z"/>
				<circle class="black-fill" cx="73.3" cy="93.4" r="3.8"/>
				<path class="black-fill" d="M73.3,103.4L73.3,103.4c-0.9,0-1.6-0.7-1.6-1.6v-4.9c0-0.9,0.7-1.6,1.6-1.6l0,0c0.9,0,1.6,0.7,1.6,1.6v4.9
					C74.9,102.7,74.2,103.4,73.3,103.4z"/>
			</g>
		</g>
	</g>
</g>
</svg>
