<?xml version="1.0" encoding="utf-8"?>
<!-- Generator: Adobe Illustrator 22.0.1, SVG Export Plug-In . SVG Version: 6.00 Build 0)  -->
<svg version="1.1" xmlns="http://www.w3.org/2000/svg" xmlns:xlink="http://www.w3.org/1999/xlink" x="0px" y="0px"
	 viewBox="0 0 147.5 152.6" style="enable-background:new 0 0 147.5 152.6;" xml:space="preserve">
<g id="Layer_2">
</g>
<g id="Layer_1">
	<g>
		<path id="testing" class="pink-stroke" d="M66.3,112.8L66.3,112.8c3.1,0,6.2,0.1,9.2,0c3.6-0.1,7.1-0.9,10.3-2.7
			c7.2-4.2,10.3-16.5,1.9-23.2c-1.4-1.2-3-2.2-4.5-3.2c-3.1-1.8-6.3-3.1-9.4-4.8c-1-0.5-2-1.1-2.8-2c-1.2-1.3-0.6-3.1,1.1-3.5
			c0.6-0.2,1.3-0.2,1.9-0.2c5,0,10,0,15,0c0.8,0,1-0.3,1-1c-0.1-3.7-0.1-7.4,0-11c0-0.7-0.2-1-0.9-0.9c-5.5,0.1-11,0-16.6,0.1
			c-2.6,0-5.1,0.6-7.7,1.4c-9.1,3-12.4,17.2-3.7,23.5c2.5,1.8,5.1,3.3,7.8,4.7c1.9,1,3.9,1.9,5.7,3.2c0.8,0.6,1.6,1.2,2.2,2.1
			c1.2,1.8,0.4,3.8-1.6,4.4c-0.7,0.2-1.4,0.3-2.1,0.3c-5.5,0-11.1,0-16.7,0c-0.7,0-1,0.2-1,1c0.1,3.7,0.1,7.5,0,11.1
			c0,0.7,0.2,0.9,0.9,0.9C59.7,112.8,63,112.8,66.3,112.8z"/>
		<path id="testing_1_" class="black-stroke" d="M65.6,112.8L65.6,112.8c3.1,0,6.2,0.1,9.2,0c3.6-0.1,7.1-0.9,10.3-2.7
			c7.2-4.2,10.3-16.5,1.9-23.2c-1.4-1.2-3-2.2-4.5-3.2c-3.1-1.8-6.3-3.1-9.4-4.8c-1-0.5-2-1.1-2.8-2c-1.2-1.3-0.6-3.1,1.1-3.5
			c0.6-0.2,1.3-0.2,1.9-0.2c5,0,10,0,15,0c0.8,0,1-0.3,1-1c-0.1-3.7-0.1-7.4,0-11c0-0.7-0.2-1-0.9-0.9c-5.5,0.1-11,0-16.6,0.1
			c-2.6,0-5.1,0.6-7.7,1.4c-9.1,3-12.4,17.2-3.7,23.5c2.5,1.8,5.1,3.3,7.8,4.7c1.9,1,3.9,1.9,5.7,3.2c0.8,0.6,1.6,1.2,2.2,2.1
			c1.2,1.8,0.4,3.8-1.6,4.4c-0.7,0.2-1.4,0.3-2.1,0.3c-5.5,0-11.1,0-16.7,0c-0.7,0-1,0.2-1,1c0.1,3.7,0.1,7.5,0,11.1
			c0,0.7,0.2,0.9,0.9,0.9C59,112.8,62.3,112.8,65.6,112.8z"/>
	</g>
	<g>
		<path class="pink-fill" d="M146.2,0.8H4.1c-0.7,0-1.3,0.6-1.3,1.3v148.4c0,0.7,0.6,1.3,1.3,1.3h8.9c-0.1,0-0.2-0.1-0.2-0.2V17.2
			c0-0.1,0.1-0.2,0.2-0.2h124.4c0.1,0,0.2,0.1,0.2,0.2v134.4c0,0.1-0.1,0.2-0.2,0.2h8.9c0.7,0,1.3-0.6,1.3-1.3V2.1
			C147.5,1.3,146.9,0.8,146.2,0.8z"/>
		<g>
			<path class="black-stroke" d="M10.8,151.7c0,0.1-8.7,0.2-8.7,0.2c-0.7,0-1.3-0.6-1.3-1.3V2.1c0-0.7,0.6-1.3,1.3-1.3h142.1
				c0.7,0,1.3,0.6,1.3,1.3v148.4c0,0.7-0.6,1.3-1.3,1.3h-8.9L10.8,151.7z"/>
			<path class="black-stroke" d="M10.8,151.4V17.2c0-0.1,0.1-0.2,0.2-0.2h124.4c0.1,0,0.2,0.1,0.2,0.2v134.4"/>
		</g>
	</g>
	<rect x="16.9" y="24.1" class="no-fill" width="112.4" height="24.3"/>
	<rect x="16.9" y="125.9" class="no-fill" width="112.4" height="18.3"/>
</g>
</svg>
