<?xml version="1.0" encoding="utf-8"?>
<!-- Generator: Adobe Illustrator 22.0.1, SVG Export Plug-In . SVG Version: 6.00 Build 0)  -->
<svg x="0px" y="0px" width="150" height="150" viewBox="0 0 147.5 152.6" style="enable-background:new 0 0 147.5 152.6;" xml:space="preserve">
	<g>
		<path class="pink-fill" d="M146.2,0.8H4.1c-0.7,0-1.3,0.6-1.3,1.3v148.4c0,0.7,0.6,1.3,1.3,1.3h8.9c-0.1,0-0.2-0.1-0.2-0.2V17.2
			c0-0.1,0.1-0.2,0.2-0.2h124.4c0.1,0,0.2,0.1,0.2,0.2v134.4c0,0.1-0.1,0.2-0.2,0.2h8.9c0.7,0,1.3-0.6,1.3-1.3V2.1
			C147.5,1.3,146.9,0.8,146.2,0.8z"/>
		<g>
			<path class="black-stroke" d="M10.8,151.7c0,0.1-8.7,0.2-8.7,0.2c-0.7,0-1.3-0.6-1.3-1.3V2.1c0-0.7,0.6-1.3,1.3-1.3h142.1
				c0.7,0,1.3,0.6,1.3,1.3v148.4c0,0.7-0.6,1.3-1.3,1.3h-8.9L10.8,151.7z"/>
			<path class="black-stroke" d="M10.8,151.4V17.2c0-0.1,0.1-0.2,0.2-0.2h124.4c0.1,0,0.2,0.1,0.2,0.2v134.4"/>
		</g>
	</g>
	<rect x="16.9" y="24.1" class="no-fill" width="112.4" height="24.3"/>
	<rect x="16.9" y="125.9" class="no-fill" width="112.4" height="18.3"/>
	<g>
		<g>
			<circle class="pink-fill" cx="77.1" cy="85.7" r="2.1"/>
			<circle class="pink-fill" cx="61.6" cy="84.7" r="2.1"/>
			<path class="pink-stroke" d="M55.7,82.5c0.3-0.9,0.6-1.1,0.7-1.7c0.2-0.5,0.2-0.9,0.1-1.4c-0.1-2.9-0.4-6.1-0.1-9c0.1-0.8,0.1-1.3,0.3-2.1
				c0.1-0.5,0.3-1,0.5-1.5c1.4-3.7,4.4-5.9,5.2-6.5c4-2.9,8.2-3.2,10.8-3.3c2.7-0.1,7.1-0.4,11.4,2.2c5,3,6.7,8.1,7.6,10.9
				c2.7,8,0.9,14.7-2.3,26.8c-0.8,3.2-2.3,8-5.8,12.8c-2.2,3-4.2,4.5-5.9,5.4c-0.5,0.3-2.8,1.5-6,1.9c-2.1,0.3-4.5,0.5-6.7-0.7
				c-1.3-0.7-2-1.8-3.2-3.7c-2.1-3.5-3.6-6-5.2-10.7c-1.9-5.5-2.9-8.2-2-10.3c0.1-0.3,0.2-0.5,0.3-0.8c0.3-0.8,0.5-1.7,0.9-3.2
				c0.1-0.6,0.3-1.1,0.1-1.7c-0.1-0.4-0.3-1.1-0.6-1.7c-0.2-0.3-0.3-0.6-0.3-1C55.5,83.1,55.6,82.9,55.7,82.5z"/>
			<path class="pink-fill" d="M78.8,57.2L78.8,57.2c2.7,0.5,7.8,1.9,11.5,6.2c2.1,2.4,3.2,5.1,3.4,5.6c1,2.3,0.7,2.8,2.4,8.2
				c0.6,2,1.3,4,3.2,5.6c0.6,0.5,0.7,0.5,1.4,0.9c0.6,0.4,4.7,3.4,4.7,7.5c0,3.6-3,6-3.5,6.3c-3,2.3-6.3,1.9-9.6,1.5
				c-3.1-0.4-3.4-1.3-3.4-1.5c-0.1-0.3,0.1-0.5,0.5-1.5c0.6-1.5,0.9-2.2,0.8-2.8c-0.1-1.1-1-1.2-2.2-2.8c-0.1-0.1-1.3-1.7-1.8-3.8
				c-0.3-1.4-0.1-2.6,0.2-5c0.4-2.5,0.7-2.9,0.8-4.8c0.2-1.9,0.1-3.3,0-4.2c-0.2-2.3-0.6-6.4-3.2-10.3C83.1,61.1,81.5,59,78.8,57.2"
				/>
			<g>
				<path class="pink-fill" d="M66,99.4c-1-0.3-2.2-0.6-2.7-1.4c-0.3-0.4-0.4-0.8-0.4-1.3c0-0.5,0.2-1,0.3-1.5c0.1-0.2,0.1-0.5,0.1-0.8
					c0-0.1,0-0.3-0.1-0.4c0-0.1-0.1-0.2-0.2-0.2c0,0-0.1,0-0.1,0c-0.7,0.3-1.1,1-1.2,1.7c-0.1,0.5-0.1,0.9,0,1.4
					c0.1,0.5,0.4,1,0.7,1.4c0.6,0.7,1.4,1.3,2.3,1.7c0.3,0.1,0.5,0.2,0.8,0.3c0.2,0.1,0.5,0.2,0.7,0.2c0.4,0.1,1.2,0.1,1.2-0.5
					c0-0.1,0-0.1,0-0.2c0,0-0.1-0.1-0.1-0.1C66.8,99.7,66.4,99.6,66,99.4z"/>
			</g>
			<path class="pink-fill" d="M66.1,97.7c-0.1-0.3,1-0.8,1.8-1.1c0.6-0.2,1.1-0.4,1.5-0.1c0.2,0.2,0.4,0.5,0.3,0.7
				c-0.1,0.4-0.8,0.4-1.9,0.5C66.9,97.9,66.1,97.9,66.1,97.7z"/>
			<path class="pink-fill" d="M56.7,68c-0.3,0.3-0.6,0.7-0.9,1.3c-0.5,0.9-0.5,1.5-0.7,2.3c0,0-0.5,2-1.7,3.8c-0.6,1-0.9,1-2.1,2.2
				c-1.7,1.8-2.7,2.9-3.2,4.4C47.3,85,48.9,87.7,49,88c2,3.3,5.6,3.7,6,3.7l0.1-0.1c0.1-0.3,0.2-0.5,0.3-0.8c0.3-0.8,0.5-1.7,0.9-3.2
				c0.1-0.6,0.3-1.1,0.1-1.7c-0.1-0.4-0.3-1.1-0.6-1.7c-0.2-0.3-0.3-0.6-0.3-1c0-0.2,0-0.4,0.2-0.8c0.3-0.9,0.6-1.1,0.7-1.7
				c0.2-0.5,0.2-0.9,0.1-1.4c-0.1-2.9-0.4-6.1-0.1-9c0.1-0.8,0.1-1.3,0.3-2.1l0.1-0.3L56.7,68z"/>
		</g>
		<g>
			<circle class="black-fill" cx="76.4" cy="85.7" r="2.1"/>
			<circle class="black-fill" cx="60.9" cy="84.7" r="2.1"/>
			<path class="black-stroke" d="M55,82.5c0.3-0.9,0.6-1.1,0.7-1.7c0.2-0.5,0.2-0.9,0.1-1.4c-0.1-2.9-0.4-6.1-0.1-9c0.1-0.8,0.1-1.3,0.3-2.1
				c0.1-0.5,0.3-1,0.5-1.5c1.4-3.7,4.4-5.9,5.2-6.5c4-2.9,8.2-3.2,10.8-3.3c2.7-0.1,7.1-0.4,11.4,2.2c5,3,6.7,8.1,7.6,10.9
				c2.7,8,0.9,14.7-2.3,26.8c-0.8,3.2-2.3,8-5.8,12.8c-2.2,3-4.2,4.5-5.9,5.4c-0.5,0.3-2.8,1.5-6,1.9c-2.1,0.3-4.5,0.5-6.7-0.7
				c-1.3-0.7-2-1.8-3.2-3.7c-2.1-3.5-3.6-6-5.2-10.7c-1.9-5.5-2.9-8.2-2-10.3c0.1-0.3,0.2-0.5,0.3-0.8c0.3-0.8,0.5-1.7,0.9-3.2
				c0.1-0.6,0.3-1.1,0.1-1.7c-0.1-0.4-0.3-1.1-0.6-1.7c-0.2-0.3-0.3-0.6-0.3-1C54.8,83.1,54.9,82.9,55,82.5z"/>
			<path class="black-fill" d="M78.1,57.2L78.1,57.2c2.7,0.5,7.8,1.9,11.5,6.2c2.1,2.4,3.2,5.1,3.4,5.6c1,2.3,0.7,2.8,2.4,8.2
				c0.6,2,1.3,4,3.2,5.6c0.6,0.5,0.7,0.5,1.4,0.9c0.6,0.4,4.7,3.4,4.7,7.5c0,3.6-3,6-3.5,6.3c-3,2.3-6.3,1.9-9.6,1.5
				c-3.1-0.4-3.4-1.3-3.4-1.5c-0.1-0.3,0.1-0.5,0.5-1.5c0.6-1.5,0.9-2.2,0.8-2.8c-0.1-1.1-1-1.2-2.2-2.8c-0.1-0.1-1.3-1.7-1.8-3.8
				c-0.3-1.4-0.1-2.6,0.2-5c0.4-2.5,0.7-2.9,0.8-4.8c0.2-1.9,0.1-3.3,0-4.2c-0.2-2.3-0.6-6.4-3.2-10.3C82.4,61.1,80.8,59,78.1,57.2"
				/>
			<g>
				<path class="black-fill" d="M65.3,99.4c-1-0.3-2.2-0.6-2.7-1.4c-0.3-0.4-0.4-0.8-0.4-1.3c0-0.5,0.2-1,0.3-1.5c0.1-0.2,0.1-0.5,0.1-0.8
					c0-0.1,0-0.3-0.1-0.4c0-0.1-0.1-0.2-0.2-0.2c0,0-0.1,0-0.1,0c-0.7,0.3-1.1,1-1.2,1.7c-0.1,0.5-0.1,0.9,0,1.4
					c0.1,0.5,0.4,1,0.7,1.4c0.6,0.7,1.4,1.3,2.3,1.7c0.3,0.1,0.5,0.2,0.8,0.3c0.2,0.1,0.5,0.2,0.7,0.2c0.4,0.1,1.2,0.1,1.2-0.5
					c0-0.1,0-0.1,0-0.2c0,0-0.1-0.1-0.1-0.1C66.1,99.7,65.7,99.6,65.3,99.4z"/>
			</g>
			<path class="black-fill" d="M65.3,97.7c-0.1-0.3,1-0.8,1.8-1.1c0.6-0.2,1.1-0.4,1.5-0.1c0.2,0.2,0.4,0.5,0.3,0.7
				c-0.1,0.4-0.8,0.4-1.9,0.5C66.2,97.9,65.4,97.9,65.3,97.7z"/>
			<path class="black-fill" d="M56,68c-0.3,0.3-0.6,0.7-0.9,1.3c-0.5,0.9-0.5,1.5-0.7,2.3c0,0-0.5,2-1.7,3.8c-0.6,1-0.9,1-2.1,2.2
				c-1.7,1.8-2.7,2.9-3.2,4.4c-0.9,2.9,0.7,5.6,0.9,5.9c2,3.3,5.6,3.7,6,3.7l0.1-0.1c0.1-0.3,0.2-0.5,0.3-0.8
				c0.3-0.8,0.5-1.7,0.9-3.2c0.1-0.6,0.3-1.1,0.1-1.7c-0.1-0.4-0.3-1.1-0.6-1.7c-0.2-0.3-0.3-0.6-0.3-1c0-0.2,0-0.4,0.2-0.8
				c0.3-0.9,0.6-1.1,0.7-1.7c0.2-0.5,0.2-0.9,0.1-1.4c-0.1-2.9-0.4-6.1-0.1-9c0.1-0.8,0.1-1.3,0.3-2.1l0.1-0.3L56,68z"/>
		</g>
	</g>
</svg>
