<?xml version="1.0" encoding="utf-8"?>
<!-- Generator: Adobe Illustrator 22.0.1, SVG Export Plug-In . SVG Version: 6.00 Build 0)  -->
<svg width="150" height="150" x="0px" y="0px"
	 viewBox="0 0 147.5 152.6" style="enable-background:new 0 0 147.5 152.6;" xml:space="preserve">
	<g>
		<g>
			<path class="pink-stroke" d="M102.9,88c0.6,0.2,1.3,0.3,1.9,0.6c3.1,1.3,3,4.8,2.4,7.6c-1.6,7.3-16.6,20.3-34.3,19.6
				c-16-0.6-36.2-12.4-36.2-28.7c0-15.9,16.2-28.7,36.2-28.7c5.2,0,10.4,0.5,15.3,2.4c3.9,1.5,8.2,4,10.6,7.5c0.6,0.9,1,1.7,1.2,2.8
				c0.3,2.4-1.2,4.2-1.3,4.4c-1.9,2.2-4.6,2.2-7.2,2c-1.3-0.1-2.7,0-3.8,0.8c-1.7,1.3-1.6,3.6-0.6,5.2c1.2,2,3.5,2.9,5.9,3.4"/>
			<circle class="pink-fill" cx="70.9" cy="67.3" r="4.1"/>
			<circle class="pink-fill" cx="47.7" cy="82.4" r="4.1"/>
			<circle class="pink-fill" cx="51.8" cy="95.3" r="4.1"/>
			<path class="pink-stroke" d="M90.2,97.4c0.3,0.6,0.5,1.2,0.5,1.9c0,2.6-2.8,4.8-6.4,4.8S78,102,78,99.4s2.8-4.8,6.4-4.8c0.1,0,0.2,0,0.3,0
				"/>
			<circle class="pink-fill" cx="57.4" cy="72" r="4.1"/>
			<g>
				<path class="pink-stroke" d="M78.4,100.9c3.9-3.7,10.1-9.7,17.7-17c0.3-0.3,1-1,2.1-1.2c1.7-0.3,2.9,0.9,3.4,1.4c0.4,0.4,2.1,2,1.5,3.6
					c-0.3,0.8-1,1.3-1.4,1.5l-20.4,14.3"/>
				<path class="pink-stroke" d="M103.8,83.3c-1.4-1-1.8-2.5-1.8-2.7c-0.4-2,0.8-4,2.1-5.1c0.8-0.6,1-0.4,6-2.2c0.7-0.3,1.8-0.7,2.4-1.7
					c0.5-0.7,0.5-1.5,0.5-1.5c0.1,0,0,2.4-0.7,5.2c-0.9,4.1-1.6,7.1-4,8.2C107,84.2,105.2,84.3,103.8,83.3z"/>
				<path class="pink-fill" d="M101.9,79.9c-0.4,0.2-0.9,0.4-1.4,0.9c-0.3,0.3-1.1,1-1.3,1.9c-0.4,1.8,1.7,4.4,3.6,4.3c0.9-0.1,1.6-0.6,2-1
					c0.8-0.7,1.2-1.4,1.4-1.8"/>
			</g>
		</g>
		<g>
			<path class="black-stroke" d="M102.2,88c0.6,0.2,1.3,0.3,1.9,0.6c3.1,1.3,3,4.8,2.4,7.6c-1.6,7.3-16.6,20.3-34.3,19.6
				c-16-0.6-36.2-12.4-36.2-28.7c0-15.9,16.2-28.7,36.2-28.7c5.2,0,10.4,0.5,15.3,2.4c3.9,1.5,8.2,4,10.6,7.5c0.6,0.9,1,1.7,1.2,2.8
				c0.3,2.4-1.2,4.2-1.3,4.4c-1.9,2.2-4.6,2.2-7.2,2c-1.3-0.1-2.7,0-3.8,0.8c-1.7,1.3-1.6,3.6-0.6,5.2c1.2,2,3.5,2.9,5.9,3.4"/>
			<circle class="black-fill" cx="70.1" cy="67.3" r="4.1"/>
			<circle class="black-fill" cx="47" cy="82.4" r="4.1"/>
			<circle class="black-fill" cx="51" cy="95.3" r="4.1"/>
			<path class="black-stroke" d="M89.5,97.4c0.3,0.6,0.5,1.2,0.5,1.9c0,2.6-2.8,4.8-6.4,4.8s-6.4-2.1-6.4-4.8s2.8-4.8,6.4-4.8
				c0.1,0,0.2,0,0.3,0"/>
			<circle class="black-fill" cx="56.7" cy="72" r="4.1"/>
			<g>
				<path class="black-stroke" d="M77.6,100.9c3.9-3.7,10.1-9.7,17.7-17c0.3-0.3,1-1,2.1-1.2c1.7-0.3,2.9,0.9,3.4,1.4c0.4,0.4,2.1,2,1.5,3.6
					c-0.3,0.8-1,1.3-1.4,1.5l-20.4,14.3"/>
				<path class="black-stroke" d="M103.1,83.3c-1.4-1-1.8-2.5-1.8-2.7c-0.4-2,0.8-4,2.1-5.1c0.8-0.6,1-0.4,6-2.2c0.7-0.3,1.8-0.7,2.4-1.7
					c0.5-0.7,0.5-1.5,0.5-1.5c0.1,0,0,2.4-0.7,5.2c-0.9,4.1-1.6,7.1-4,8.2C106.3,84.2,104.5,84.3,103.1,83.3z"/>
				<path class="black-fill" d="M101.1,79.9c-0.4,0.2-0.9,0.4-1.4,0.9c-0.3,0.3-1.1,1-1.3,1.9c-0.4,1.8,1.7,4.4,3.6,4.3c0.9-0.1,1.6-0.6,2-1
					c0.8-0.7,1.2-1.4,1.4-1.8"/>
			</g>
		</g>
	</g>
	<g>
		<path class="pink-fill" d="M146.2,0.8H4.1c-0.7,0-1.3,0.6-1.3,1.3v148.4c0,0.7,0.6,1.3,1.3,1.3h8.9c-0.1,0-0.2-0.1-0.2-0.2V17.2
			c0-0.1,0.1-0.2,0.2-0.2h124.4c0.1,0,0.2,0.1,0.2,0.2v134.4c0,0.1-0.1,0.2-0.2,0.2h8.9c0.7,0,1.3-0.6,1.3-1.3V2.1
			C147.5,1.3,146.9,0.8,146.2,0.8z"/>
		<g>
			<path class="black-stroke" d="M10.8,151.7c0,0.1-8.7,0.2-8.7,0.2c-0.7,0-1.3-0.6-1.3-1.3V2.1c0-0.7,0.6-1.3,1.3-1.3h142.1
				c0.7,0,1.3,0.6,1.3,1.3v148.4c0,0.7-0.6,1.3-1.3,1.3h-8.9L10.8,151.7z"/>
			<path class="black-stroke" d="M10.8,151.4V17.2c0-0.1,0.1-0.2,0.2-0.2h124.4c0.1,0,0.2,0.1,0.2,0.2v134.4"/>
		</g>
	</g>
	<rect x="16.9" y="24.1" class="no-fill" width="112.4" height="24.3"/>
	<rect x="16.9" y="125.9" class="no-fill" width="112.4" height="18.3"/>
</svg>
