<?xml version="1.0" encoding="utf-8"?>
<!-- Generator: Adobe Illustrator 22.0.1, SVG Export Plug-In . SVG Version: 6.00 Build 0)  -->
<svg x="0px" y="0px" width="150" height="150" viewBox="0 0 147.5 152.6" style="enable-background:new 0 0 147.5 152.6;" xml:space="preserve">
	<g>
		<g>
			<path class="pink-stroke" d="M75.6,56.9c-16.7,0-30.2,13.5-30.2,30.2s13.5,30.2,30.2,30.2c16.7,0,30.2-13.5,30.2-30.2S92.3,56.9,75.6,56.9
				z M93,107.1c-0.3,0.6-1.5,1.6-1.9,1.9c-3,2.1-6.3,3.6-9.9,4.4c-1.1,0.2-2.3,0.4-3.4,0.5c-0.7,0.1-1.4,0.1-2,0.1
				c-4.7,0-8.9-1.1-12.9-3.2c-4.6-2.5-8.2-6.1-10.8-10.6c-1.5-2.6-2.4-5.4-2.9-8.3c-0.2-1-0.3-2-0.4-3c-0.1-1-0.1-2,0-3
				c0.2-2.9,0.7-5.6,1.8-8.3c1-2.6,3-5.9,4.7-8c0.2-0.2,0.2-0.2,0.4,0c8.9,8.9,17.8,17.8,26.7,26.7c3.5,3.5,7.1,7.1,10.6,10.6
				c0,0,0.1,0.1,0.1,0.1C93.2,106.9,93.1,107,93,107.1z M96,104.9c-0.2,0.2-0.2,0.2-0.3,0C83.2,92.4,70.7,79.9,58.2,67.5
				c-0.2-0.2-0.2-0.2,0-0.4c3.4-2.7,7.7-5.4,11.9-6.3c1.2-0.3,2.5-0.4,3.8-0.5c0.6,0,1.1,0,1.6-0.1c6.2,0.1,11.7,1.9,16.6,5.7
				c3.2,2.5,5.8,5.7,7.6,9.4c1.2,2.4,2,4.9,2.4,7.5c0.2,1.5,0.3,2.9,0.3,4.4c0,3.9-0.9,7.6-2.5,11.1C99,100.4,97.3,103.2,96,104.9z"
				/>
			<g>
				<g>
					<path class="pink-fill" d="M79.3,88.5c0.8-0.5,1.6-0.9,2.4-1.4c-3-1.7-5.9-3.3-8.8-5L79.3,88.5z"/>
					<path class="pink-fill" d="M71.7,85.4c0,2.5,0,4.9,0,7.4c1.6-0.9,3.2-1.8,4.7-2.7L71.7,85.4z"/>
				</g>
				<path class="pink-stroke" d="M64.9,73.9c1.2-0.1,2.4-0.1,3.6-0.2c2.7-0.1,5.5-0.1,8.2-0.1c2.4,0,4.8,0.1,7.2,0.2c2,0.1,4,0.2,6,0.5
					c2.2,0.3,3.7,1.8,4.2,3.9c0.3,1.5,0.5,3,0.6,4.5c0.2,2.5,0.2,5.1,0.1,7.6c-0.1,1.9-0.2,3.8-0.6,5.6c-0.3,1.5-1,2.6-2.3,3.4
					c-0.3,0.2-0.7,0.4-1,0.5"/>
				<path class="pink-stroke" d="M86.5,100.4c-1.7,0.1-3.3,0.2-5,0.2c-1.2,0-2.4,0.1-3.6,0.1c-1,0-2,0-3,0c-0.6,0-1.1,0-1.7,0
					c-1.5,0-3-0.1-4.5-0.1c-2.4-0.1-4.8-0.2-7.2-0.5c-2.5-0.3-4.1-1.8-4.6-4.2c-0.4-2.2-0.5-4.4-0.6-6.6c0-0.1,0.1-0.2-0.1-0.2
					c0-1.3,0-2.6,0-3.9c0.1,0,0.1-0.1,0.1-0.1c0-0.8,0.1-1.5,0.1-2.3c0.1-1.6,0.2-3.1,0.6-4.7c0.4-1.8,1.5-3,3.2-3.6
					c0.1,0,0.1,0,0.2-0.1"/>
			</g>
		</g>
		<g>
			<path class="black-stroke" d="M74.7,56.9c-16.7,0-30.2,13.5-30.2,30.2s13.5,30.2,30.2,30.2c16.7,0,30.2-13.5,30.2-30.2S91.4,56.9,74.7,56.9
				z M92.2,107.1c-0.3,0.6-1.5,1.6-1.9,1.9c-3,2.1-6.3,3.6-9.9,4.4c-1.1,0.2-2.3,0.4-3.4,0.5c-0.7,0.1-1.4,0.1-2,0.1
				c-4.7,0-8.9-1.1-12.9-3.2c-4.6-2.5-8.2-6.1-10.8-10.6c-1.5-2.6-2.4-5.4-2.9-8.3c-0.2-1-0.3-2-0.4-3c-0.1-1-0.1-2,0-3
				c0.2-2.9,0.7-5.6,1.8-8.3c1-2.6,3-5.9,4.7-8c0.2-0.2,0.2-0.2,0.4,0c8.9,8.9,17.8,17.8,26.7,26.7c3.5,3.5,7.1,7.1,10.6,10.6
				c0,0,0.1,0.1,0.1,0.1C92.3,106.9,92.3,107,92.2,107.1z M95.1,104.9c-0.2,0.2-0.2,0.2-0.3,0C82.3,92.4,69.8,79.9,57.3,67.5
				c-0.2-0.2-0.2-0.2,0-0.4c3.4-2.7,7.7-5.4,11.9-6.3c1.2-0.3,2.5-0.4,3.8-0.5c0.6,0,1.1,0,1.6-0.1c6.2,0.1,11.7,1.9,16.6,5.7
				c3.2,2.5,5.8,5.7,7.6,9.4c1.2,2.4,2,4.9,2.4,7.5c0.2,1.5,0.3,2.9,0.3,4.4c0,3.9-0.9,7.6-2.5,11.1
				C98.1,100.4,96.4,103.2,95.1,104.9z"/>
			<g>
				<g>
					<path class="black-fill" d="M78.4,88.5c0.8-0.5,1.6-0.9,2.4-1.4c-3-1.7-5.9-3.3-8.8-5L78.4,88.5z"/>
					<path class="black-fill" d="M70.8,85.4c0,2.5,0,4.9,0,7.4c1.6-0.9,3.2-1.8,4.7-2.7L70.8,85.4z"/>
				</g>
				<path class="black-stroke" d="M64,73.9c1.2-0.1,2.4-0.1,3.6-0.2c2.7-0.1,5.5-0.1,8.2-0.1c2.4,0,4.8,0.1,7.2,0.2c2,0.1,4,0.2,6,0.5
					c2.2,0.3,3.7,1.8,4.2,3.9c0.3,1.5,0.5,3,0.6,4.5c0.2,2.5,0.2,5.1,0.1,7.6c-0.1,1.9-0.2,3.8-0.6,5.6c-0.3,1.5-1,2.6-2.3,3.4
					c-0.3,0.2-0.7,0.4-1,0.5"/>
				<path class="black-stroke" d="M85.7,100.4c-1.7,0.1-3.3,0.2-5,0.2c-1.2,0-2.4,0.1-3.6,0.1c-1,0-2,0-3,0c-0.6,0-1.1,0-1.7,0
					c-1.5,0-3-0.1-4.5-0.1c-2.4-0.1-4.8-0.2-7.2-0.5c-2.5-0.3-4.1-1.8-4.6-4.2c-0.4-2.2-0.5-4.4-0.6-6.6c0-0.1,0.1-0.2-0.1-0.2
					c0-1.3,0-2.6,0-3.9c0.1,0,0.1-0.1,0.1-0.1c0-0.8,0.1-1.5,0.1-2.3c0.1-1.6,0.2-3.1,0.6-4.7c0.4-1.8,1.5-3,3.2-3.6
					c0.1,0,0.1,0,0.2-0.1"/>
			</g>
		</g>
	</g>
	<g>
		<path class="pink-fill" d="M146.2,0.8H4.1c-0.7,0-1.3,0.6-1.3,1.3v148.4c0,0.7,0.6,1.3,1.3,1.3h8.9c-0.1,0-0.2-0.1-0.2-0.2V17.2
			c0-0.1,0.1-0.2,0.2-0.2h124.4c0.1,0,0.2,0.1,0.2,0.2v134.4c0,0.1-0.1,0.2-0.2,0.2h8.9c0.7,0,1.3-0.6,1.3-1.3V2.1
			C147.5,1.3,146.9,0.8,146.2,0.8z"/>
		<g>
			<path class="black-stroke" d="M10.8,151.7c0,0.1-8.7,0.2-8.7,0.2c-0.7,0-1.3-0.6-1.3-1.3V2.1c0-0.7,0.6-1.3,1.3-1.3h142.1
				c0.7,0,1.3,0.6,1.3,1.3v148.4c0,0.7-0.6,1.3-1.3,1.3h-8.9L10.8,151.7z"/>
			<path class="black-stroke" d="M10.8,151.4V17.2c0-0.1,0.1-0.2,0.2-0.2h124.4c0.1,0,0.2,0.1,0.2,0.2v134.4"/>
		</g>
	</g>
	<rect x="16.9" y="24.1" class="no-fill" width="112.4" height="24.3"/>
	<rect x="16.9" y="125.9" class="no-fill" width="112.4" height="18.3"/>
</svg>
