<?xml version="1.0" encoding="utf-8"?>
<!-- Generator: Adobe Illustrator 22.0.1, SVG Export Plug-In . SVG Version: 6.00 Build 0)  -->
<svg version="1.1" id="Layer_1" xmlns="http://www.w3.org/2000/svg" xmlns:xlink="http://www.w3.org/1999/xlink" x="0px" y="0px"
	 viewBox="0 0 1331.7 708.6" style="enable-background:new 0 0 1331.7 708.6;" xml:space="preserve">
<style type="text/css">
	.st0{opacity:0.5;}
	.st1{fill:#F39877;}
	.st2{opacity:0.5;fill:#F39877;}
	.st3{fill:none;stroke:#000000;stroke-miterlimit:10;}
	.st4{fill:none;stroke:#333333;stroke-width:0.5;stroke-miterlimit:10;}
	.st5{fill:none;stroke:#333333;stroke-width:1.5;stroke-miterlimit:10;}
	.st6{fill:none;stroke:#333333;stroke-miterlimit:10;}
	.st7{fill:#333333;}
	.st8{fill:#FFFDF9;stroke:#333333;stroke-width:0.5;stroke-miterlimit:10;}
	.st9{fill:none;stroke:#F39877;stroke-width:1.5;stroke-miterlimit:10;}
	.st10{fill:#F39877;stroke:#333333;stroke-miterlimit:10;}
	.st11{fill:none;}
	.st12{fill:none;stroke:#333333;stroke-width:5;stroke-miterlimit:10;}
	.st13{fill:none;stroke:#F39877;stroke-miterlimit:10;}
</style>
<g>
	<g class="st0">
		<path class="st1" d="M1155.4,316.7l0.5,6.1l0,0.1c-2.7,1.2-5.8,1.7-8.9,1.1l0,0L1155.4,316.7z"/>
		<polygon class="st1" points="1155,312.2 1145,320.8 1143.9,307.7 1153.9,299.1 		"/>
		<path class="st1" d="M1151.7,296.2L1151.7,296.2l-8.2,7l-0.5-6l0,0C1145.7,296,1148.7,295.6,1151.7,296.2z"/>
		<path class="st1" d="M1163.8,309.4c0.2,2.1-0.2,4.2-1,6.2c-0.8,2-2,3.7-3.5,5l0-0.1l-0.6-6.7L1163.8,309.4L1163.8,309.4z"/>
		<path class="st1" d="M1162.9,305.4L1162.9,305.4l-4.6,3.9l-0.9-10.7l0,0l0-0.1C1160,300.3,1161.9,302.7,1162.9,305.4z"/>
		<path class="st1" d="M1047,307.7c0,1.3,0.1,3.3,1.1,5.5c1,2.3,3,4.7,8.9,7.8c5.3,2.8,9,3.7,22.2,7.6c1.9,0.6,4.7,1.5,6.4,2.1
			c0.9,3.7,2.7,8.3,6.7,12c0.8,0.8,1.6,1.4,2.5,2c-1.7,1.6-4.2,4.5-5.2,7.7c-1,2.9-0.5,4.4-1.2,8.8c-0.6,4.4-1.8,7.6-2.7,10.1
			c-2.3,6.4-3.6,6.2-5.8,12c-1.8,4.5-0.9,4.4-3.7,15.1c-1.2,4.8-2.1,8-3.7,12.1c-1.4,3.5-3.6,7.6-4.8,9.9
			c5.8,10.8,9.3,21.1,11.1,27.5c1.6,5.7,2.5,10.4,5.7,17.5c3.7,8.1,5.8,13.1,11.2,16c7,3.8,15.3,2.1,19.6,1.2
			c5.3-1.1,9.4-3.1,12.2-4.7c0.9-0.6,1.7-1.2,2.6-1.8c1.1-3,2.6-6.2,4.3-9.5c3.2-5.9,7.3-13.6,14.8-19.7c8.3-6.7,18.4-8.9,24.7-9.6
			c-0.9-1.6-2.4-4.5-3-6.9l-0.9-4.5l2.9-15.5c0,0,7.9-11.5,11.1-14.2c3-2.5,7.7-5.4,9.6-8.8c0.2-5.5,1.2-11.8,2.7-21.7
			c1.3-8.8,1.7-9.8,2.7-11c5.1-6.2,16.3-5,23.1-4.3c13,1.4,17.7,6.1,29.5,4.7c3.2-0.4,5.7-1.1,7.4-1.6c0.1-8.2-0.7-14.9-1.5-19.7
			c-1.4-8.8-3-18.2-9.4-27.8c-2.2-3.3-4.7-7.1-9.4-10.2c-2.8-1.9-3.9-2-12.4-5.6c-11.7-5-13.1-6.3-14.1-7.7
			c-2.3-3.1-4.3-8.7-1.7-13.7c2-3.9,6.3-5.3,8.1-6c3.9-1.4,5.4-0.3,9.2-1.4c2.4-0.7,7.6-3.6,10.9-7.2c6.7-7.3,10-26.5,10-26.5
			c-2.9,0.9-14.1-4.2-14.1-4.2c-6.9-5.4-13.7-10.7-20.6-16.1c0.6-3.9,1.1-7.7,1.7-11.6l-1.9-0.5c-2.5,0.9-6.6,2.4-7.9,3
			c-1,0.5-1.7,0.9-2.8,0.9c-1.1,0-1.6-0.3-2.6-0.1c-0.7,0.1-1.3,0.5-1.9,0.9c-2.5,1.8-3.4,3.9-6.2,6.4c-1.6,1.4-2.5,1.8-2.8,1.9
			c-1.6,0.6-2.7,0.3-4,0.5c-1.7,0.3-3.1,1.4-5,3.8c-3.5,4.2-4.7,7.4-8.7,14.2c-1.4,2.5-2.8,5-4.3,7.4c-1.7,2.7-2.8,4.4-3.4,7
			c-0.3,1.6-0.7,3.1-0.1,4.9c0.2,0.7,0.5,1.2,0.9,1.7c-2.2,4.1-5.1,8.4-6.8,10.4c-2.5,2.9-4.4,5.2-7.6,6.7c-2.3,1.1-3.1,0.9-8.7,1.7
			c-6.3,1-11,1.7-16.2,3.7c-4.6,1.8-4.2,3.1-8,3.7c-5.8,1-11.4-0.3-15-0.7c-23-2.5-23.8-3-29.9-0.7c-6.3,2.3-9.4,9.8-10.5,11.9
			c-2,3.9-1.7,5.5-5,12.2c-1.6,3.3-3.4,6.6-6.9,9.2C1049.2,306.6,1047.9,307.3,1047,307.7z M1132.6,303.1
			c3.7-8.9,14.2-13.1,23.5-9.3c9.3,3.8,13.8,14.2,10.2,23.1c-3.7,8.9-14.2,13.1-23.5,9.3C1133.4,322.4,1128.9,312,1132.6,303.1z"/>
		<path class="st1" d="M1140.5,310.5l0.9,11l0,0c-2.6-1.7-4.6-4.2-5.6-7l0.1-0.1L1140.5,310.5z"/>
		<path class="st1" d="M1139.5,299.4L1139.5,299.4l0.6,6.7l-5.1,4.4l0,0l0,0c-0.1-2,0.2-4,1-6C1136.7,302.5,1138,300.8,1139.5,299.4
			z"/>
	</g>
	<path class="st2" d="M1212.2,282.3c0.2,0,0.4,0.4,0.5,0.6c1.2,2.5,4.6,3.3,13.6,7.1c8.5,3.6,9.6,3.7,12.4,5.6
		c4.7,3.2,7.2,6.9,9.4,10.2c6.3,9.6,8,19,9.4,27.8c0.8,4.8,1.6,11.5,1.5,19.7c-1.7,0.5-4.3,1.2-7.4,1.6c-11.7,1.4-16.5-3.3-29.5-4.7
		c-6.7-0.7-17.9-2-23.1,4.3c-1-0.1-2-0.3-3-0.4c2.6-8.6,5.1-17.1,7.7-25.7c4-11.3,5.6-20.7,6.3-27.6
		C1210.8,293.3,1211.1,282.3,1212.2,282.3z"/>
	<path class="st2" d="M1117.9,273.8c-5.8,1-11.4-0.3-15-0.7c-23-2.5-23.8-3-29.9-0.7c-6.3,2.3-9.4,9.8-10.5,11.9
		c-2,3.9-1.7,5.5-5,12.2c-1.6,3.3-3.4,6.6-6.9,9.2c-1.5,1.1-2.8,1.8-3.7,2.2c0,1.3,0.1,3.3,1.1,5.5c1,2.3,3,4.7,8.9,7.8
		c5.3,2.8,9,3.7,22.2,7.6c1.7,0.5,4.8,1.6,6.6,2.2c-0.6-2.5-0.8-4.7-0.9-6.1c-0.8-9.8,1.8-18.2,7.2-26.7c3-4.8,6.2-8.3,7.8-10.7
		L1117.9,273.8z"/>
	<path class="st2" d="M1161.7,425.4c3.1,0.9,5.9,1.8,8.4,2.5c-0.2-0.9-0.3-1.7-0.3-1.7s1.7-9.3,2.5-13.5c-6.1-2-15.9-5.2-26.2-8.2
		c-16.1-4.7-24.3-7.1-32.6-8.3c-8.2-1.2-21.7-1.8-37.1,0.5c-0.2,0.7-0.4,1.4-0.6,2.2c-1.2,4.8-2.1,8-3.7,12.1
		c-0.3,0.8-0.7,1.7-1.1,2.6c14.9-2.3,29.2-1.9,37.5-1c8,0.9,14.6,2.6,27.6,5.8C1145.3,420.7,1154.3,423.2,1161.7,425.4z"/>
	<path class="st1" d="M1029.5,345.2c-0.3-0.9-0.6-1.8-0.9-2.5c3.7,0.2,6.6,0.3,9.4,0.7c1,2.4,2.5,6.2,3.1,9.7c0.2,1.3,1,6.3,0.1,11
		c-1.8,9.5-10.9,15.9-14,17.9c-3-2-5.4-3.5-7.7-4.8c3.3-2,9.6-6.5,11.3-13.1c0.4-1.4,0.5-2.5,0.6-3.5
		C1032,355,1030.8,349.4,1029.5,345.2z"/>
	<path class="st1" d="M1021.8,355.7c0.4-1.4,0.7-3,0.7-4.9c0.1-3-0.8-6.3-1.4-8.2c-1.9,0-3.2-0.1-5.3-0.5c-0.8-0.2-1.6-0.4-2.4-0.6
		c0.2,1.4,0.4,3.2,0.3,4.3c-0.2,4.1-1.7,7.1-2.4,8.5c-2.5,4.8-6.9,8.2-9.3,9.8c0.4,0.4,0.9,0.9,1.3,1.3c2.6,2.6,4.9,4.5,6.9,6.1
		c2.8-2,7.9-6.3,10.4-12.1C1020.8,358.4,1021.3,357.2,1021.8,355.7z"/>
	<path class="st2" d="M1327.1,640c-1.3,5.9-4.9,10.2-7.1,12.7c-3.5,4.1-7.3,8.6-12.2,8.2c-3.2-0.3-5.3-2.6-9.1-6.8
		c-2.7-3-5.9-6.5-6.8-11.7c-0.7-3.8,0.2-6.2,1-10.1c2.3-10.6,1.8-15.4,1.5-20c-0.4-5.3-1.3-6.9-1.8-7.6c-1.7-2.5-4.5-3.7-10-6.1
		c-4.2-1.8-6.1-2.1-11.4-4.5c-1.2-0.5-3-1.4-4.2-1.9c0.7-1.6,0.6-3.7,1-5.9c1.3-6.9,6.8-9.4,14.8-19.4c2.4,2.2,4.6,4.7,5.6,6
		c3.6,4.5,7.9,11.6,8.6,12.8c0,0,1.8,3,4.9,5.3c0.6,0.5,1.5,1,2.7,1.3c1,0.2,1.9,0.2,2.5,0.1c2.2,0.8,5.3,2.4,7.8,5.3
		c2,2.3,2.5,4.2,4.8,11.2c3.7,10.9,3.6,9.8,4.9,14.5c2,7.1,3,10.7,2.9,13.4C1327.5,637.9,1327.4,639,1327.1,640z"/>
	<path class="st1" d="M1275,545.4c0.5,0.4,1,0.9,1.8,1.4c2.2,1.5,4.7,2.7,8.2,5.9c1.6,1.4,2.4,2.3,2.7,3.6c0.7,2.8-1.2,5.5-2.2,6.9
		c-9.4,13.1-16.1,15.4-17.5,23c-0.6,3.1-0.1,5.9-2.3,7.5c-0.8,0.6-2.2,1.2-6.9,0.5c-5.1-0.8-9.2-2.8-17.4-6.9
		c-1.9-1-4.3-2.2-5.4-4.8c-0.3-0.8-0.5-2.3-0.6-3.4c0.8,0.4,1.6,0.8,2.5,1.2c0,0.5,0,1.2,0.2,1.4c0.6,0.7,2.5,0.1,3.2-0.2
		c6.2-2.2,10.6-12.6,10.6-12.6c4.4-10.6,6.2-21.7,6.8-30.9c0,0,0.1-0.5-0.2-0.7c-0.2-0.2-1,0.1-1.5,0.5c-0.8-0.7-1.7-1.5-2.7-2.4
		c-0.6-0.6-1.1-1.1-1.5-1.6c1.1-0.5,2.8-1.2,4.2-1.3c4.7-0.4,8.5,2.8,11.7,5.6C1273.1,541.9,1272.7,543.3,1275,545.4z"/>
	<path class="st2" d="M942.8,655.4c1.4-1.2,3-3.2,5-6.5c3.8-6.2,6.9-11.1,8.4-18.8c0.4-2.2,1-7.6,2.1-18.3c0.2-2,0.5-4.5,1.7-7.4
		c0.4-1,2.1-4.9,6.1-8.5c3.2-2.8,6.4-4.2,9.1-5.2c1.3-0.5,3.1-1.1,4.2-1.4c-1-0.9-2-2.2-3.9-3.9c-5.3-4.8-11.8-7.6-12.3-7.8
		c-2.2-0.9-3.8-1.3-5-2.3c-1.4,2.9-3.8,7.6-6.9,11.5c-3.5,4.4-6.1,6.3-10,9.8c-6.3,5.7-12.2,11.1-16,18.6
		c-1.7,3.4-5.9,11.8-3.7,21.9c2.2,10.2,9.4,15.7,11.5,17.3c3.3,2.5,5.1,2.8,6.4,2.6C940.5,656.8,941.6,656.4,942.8,655.4z"/>
	<path class="st1" d="M1001.3,578.7c0.4-0.2,0.9-0.5,1.4-0.9c4-2.8,4.8-4.9,5-5.8c0.3-1.1,0.1-2.7-0.1-3.7c-0.1,0-0.1,0-0.1,0
		c-2.3,1.2-4.4,2.4-6.2,3.4c-0.8,1-2,2.3-2.6,2.7c-1.9,1.2-4.3,1-7.8-0.2c-12-4.2-18.6-13.8-18.6-13.8c0,0-4-5.8-3.7-11.3
		c0-0.6,0.1-2.2,1.1-2.8c0.1-0.1,0.5-0.1,0.9-0.1c0.6-1.3,1.3-2.7,1.8-3.9c-1-0.1-2.6-0.2-3.6,0c-3.8,0.9-5.6,4.5-6.2,5.7
		c-1.5,3-0.3,3.8-1.2,7.7c-1.4,6.2-4.9,7-5.5,13c-0.1,1.5-0.3,3.5,0.8,5.3c1.3,2,3.2,2.4,6.2,3.7c0.5,0.2,7.1,3,12.3,7.8
		c3.3,3,4,4.9,6.3,5c1.6,0.1,2.9-0.8,5.5-2.7c4.3-3.1,4.1-4.2,7.2-6.2C997.5,579.6,999,579.9,1001.3,578.7z"/>
</g>
<g>
	<polygon class="st1" points="1653.1,142.1 1655.3,129.1 1653.1,131.3 1652.2,114.1 1656.3,119.6 1659.7,90.6 1657.3,98.7 
		1655.3,81.4 1653.1,110.4 1650.2,108.5 1648.1,121.4 1646,124.3 1640.6,117.1 1645.4,117.3 1623.7,85.5 1638,114.8 1634.8,115.1 
		1641.7,125.1 1640.7,128.4 1631.7,120.2 1631.6,123.2 1609.4,102.9 1633,130.1 1634.5,127.9 1640,134.4 1629.8,133.2 1642,138.4 
		1640.2,139.8 1651.2,143.8 	"/>
	<polygon class="st1" points="1650.3,145.7 1649.1,161.2 1652.2,159 1655.2,167.4 1655.2,170.3 1658.2,166.4 1657.7,187 
		1662.4,168.8 1665.4,176.2 1666.3,178.5 1666.6,173.7 1667.6,170.7 1670.1,174.9 1688,205.9 1682.4,187.5 1682,190.4 1673.1,168.3 
		1681.3,170.3 1679.9,168.3 1686.4,170.3 1673.6,162.2 1672.4,159.4 1678.6,160.4 1670.6,151 1674.9,148.7 1652.7,144.9 	"/>
	<polygon class="st1" points="1643,102.1 1640.3,84.8 1644.7,88 1636.6,60.5 1640.2,80 1633.6,77 	"/>
	<path class="st1" d="M1432.2,573.3c8.5,6.3,19.6,14.5,19.6,14.5l-23.8-35.2l-1.3-8.5h6l-10-10.7l39.9-18.3l-13.2-16.1l6.6-28.2
		l-7.8,4l-27.6-42.4c0,0,9.8,2.5,14.6,3.7c2.4-1.6,4.9-2.6,6.6-3.3c-3.9-1.2-11.1-3.6-11.1-3.6l5.7-9.5l-26.5,4.8l1.3,14.3l3.7-6.4
		l28,58.6h-8.8l16.3,21.5l-35.5,20.1l5.7,15.1l-5.7,26.1l7.9-7.5C1422.6,566.1,1426.9,569.3,1432.2,573.3z"/>
	<path class="st1" d="M1645.1,264.8c15.5-6.6,32.4-13.7,32.4-13.7l8.8-39.7V241l4.7-4.2l-3.1,10.1l17.8-10.4v-6.3
		c0,0-7.2,0.3-11,0.4c0-0.1-0.1-0.1-0.1-0.2c-1.6-2.4-3.3-5-5.9-7.4c7.1,0,25.1,0,25.1,0l-1.8,13.7l10.2,1.7l-51.3,26.5l-16.4,13.9
		l12.4,8.3l-48.5-5.7v3.5l-36.7-10.6l-16.1,5.5l1.7,7.2l39.5,38.2l1.8-13.4l25.7,22.7l-11.6,13.2l11.6,5.2c0,0-10.3,2.8-16.2,4.4
		c-0.3-0.8-0.6-1.6-0.8-2.4l-0.9-4.5c0,0,0.8-4.2,1.5-8.2c0.9-1.8,1.8-3.5,1.8-3.5l-5.9-6v4.2l-27.9-13.5l-15-3.1l9.8-7.7
		l-60.8-45.2v9.7l-26.4-18.9c0,0,0,7.7,0,11.9c-1.3-0.5-2.8-1.1-4.4-1.5c-1.1-0.3-2.2-0.6-3.3-0.8c0-6.6,0-20.7,0-20.7l14.3,4.3
		l-19.6-37.7l11.4-2.3l10.7-10.4l-2.9,9.1c0,0,6.4-0.8,9-1.1c-1.3,2.6-1.6,4.1-2.7,7c-4.2,0.3-14.8,1.1-14.8,1.1l25.8,41.2l7.8-12.3
		l28.9,32.2l18.9-14.5l38.7,13.4l12.9-17.8l-4.6,16.3C1619.6,275.5,1631.9,270.4,1645.1,264.8z"/>
	<path class="st1" d="M1491.9,336.2c-6.3-0.9-11.3-1.6-11.3-1.6l9.6,9.5l-29.7,3l34.6,82.2l6.7-8.9l18.1,27.3c0,0-18.8,5.3-24.8,6.9
		c-0.8,1.8-1.7,3.7-2.8,5.7c0,0.1-0.1,0.1-0.1,0.2c6.2,2.9,27.7,13,27.7,13l-12.6-14.8l10.9-1.8l17.2-2.4l-38.4-60l-3,7.9
		l-18.8-46.8l16.7-3.6c0,0,11,0,15.9,0c2.5-2.7,4.7-5.2,6.2-6.9c0,0,0-0.1,0-0.1c0.7-1.3,1.8-3.3,2.8-5.4
		C1512.2,339,1500.7,337.4,1491.9,336.2z"/>
	<path class="st1" d="M1660.1,416.4c-0.2-0.5-0.5-1.1-0.7-1.6c0.9-6,2.6-16.8,2.6-16.8l-51.7,4.5l12.6,7.1l-57.4,13.7
		c0,0,4-12.7,6.2-19.6c0.8-0.4,1.5-0.8,2.1-1.1c0.9-0.6,1.7-1.2,2.6-1.8c0.6,1.2,1.3,2.5,1.9,3.8c-1,2.7-2.4,6.4-2.4,6.4l27.2-5.1
		l-6.9-6.5l39.3-16.8l-6.7,9.7l41.1-4.1l-3.2,18.2l9.9-4.7c0,0-9.7,15-13.8,21.4C1662,420.9,1661.1,418.7,1660.1,416.4z"/>
	<path class="st1" d="M1566.9,197.3l-10.3-13v6.9l-10.8-3.6l-4.7,6.1l24.4,26.8l50.1-21l52.8,18.6l8.9-17.1l-6.5,5l0.2-12.2
		c0,0-8.4-3.2-10.8-4.1c-1.2,0.9-2.4,2.1-3.3,3.6c-0.2,0.4-0.4,0.8-0.5,1.1c2.3,1.8,8.7,6.7,8.7,6.7l0.6,8.1l-31.1-14.1l1.2,4.6
		l-27.9-8.5l-2.1,2.7l-14.3,10l3.1-8.7l-27,17.3l-17.8-17.3l11.1,4.3"/>
	<path class="st1" d="M1775,551c-14.1,0.5-74.5,2.5-74.5,2.5l7.3-22.9l-8.9,6.1c0,0,6.1-12,9-17.6c2.5,0.1,3.5-0.3,4.1-0.8
		c0.6-0.5,1-1,1.3-1.6c0.5,0.3,1.3,0.6,2.1,1c-0.5,7.3-1.7,27.4-1.7,27.4l46.9-3.2l-12,7.2l29.4,1.8
		C1777.9,550.9,1776.8,550.9,1775,551z"/>
	<path class="st1" d="M1634.2,472.1c0-1.3,0-2.6,0-3.8c-0.5-1-0.8-1.9-1-2.7c-1.8-1.1-3.7-2.3-5.6-3.6c-3.4,5.2-9.4,14.4-9.4,14.4
		l8.7-2.9l-8.3,20.3l57.5-24.9l-4.8-4.3l46-16.9c0,0,1.8,13.8,2.7,20.7c0.6,0.8,1.4,1.7,3,2.8c0.5,0.3,0.9,0.6,1.4,0.9
		c0-12.2,0-41.8,0-41.8l-19.7,16.3l1.4-7.8l-51.8,29.2l4.6,1.8l-24.8,9.7C1634.2,479.5,1634.2,475.9,1634.2,472.1z"/>
	<path class="st1" d="M1409.1,247.8l-10.4-8.8l14.8-2.3l-5.1-32.9l9.8,13.1l5.5-32.6l18.9,23.2l5.4-17.1l6.2,25l8.4-10.8l3.4,34.8
		l9.4-0.7l-18.6,29.2l8.9,52.3l5.8-13l22.9,20.8c0,0,0-3.7,0-6.1c2.5,1.4,5.2,2.6,8.4,3.7c0,5.9,0,20.1,0,20.1l-29.5-27.1l-11,19.8
		l-16.1-66.7l-27.1-6.7L1409.1,247.8z"/>
	<path class="st1" d="M1700.1,273.1c-2.9,2-6,4.2-8.5,5.9c2.1-11.8,8.4-46.8,8.4-46.8l-13.7,28.8l-0.9-10.8l-13.2,34.6l-10.3-20
		l1.4,19l-14.6,13.5l9.4,5l-6.1,11l8,4.7l2.7,10.1l2.2-2.9l22.1,18.8l-25.5,11.3l2.7-7.2l-18.8,11.3l-9.7-29.7c0,0,3.5-2.3,5.6-3.6
		c-0.6-3.4-0.9-6.4-1.1-8.7c-3.1,2.3-10.4,7.7-10.4,7.7l11.8,45.8l61.8-25.2l-17.9-11.2l-4.6-6.4l11.4,5.1l0.5-5.1l15,12.9
		l-2.1-12.9l19.3-15.6l-4-5.4l1.2-11.4l0.9-6.7l-9.8,2.2l6-12.2l-9.5,1.8l12.4-17.7l-14.4,8.7l4.2-7.1
		C1711.9,264.8,1706.2,268.8,1700.1,273.1z"/>
	<polygon class="st1" points="1430.9,184.3 1425.2,147.6 1434.9,157.8 1413.3,100 1423.7,139.5 1406,125.4 	"/>
	<polygon class="st1" points="1724.4,277.1 1726,274.3 1743.6,243.5 1747.2,260.3 1768.9,209.1 1746.7,243.1 1743.6,226.6 	"/>
	<polygon class="st1" points="1716.1,336.1 1722.1,329.8 1716.1,327.5 1762.6,327.5 	"/>
	<polygon class="st1" points="1733.1,179.5 1693,162.4 1694.2,168 1682,163.5 1704.6,176.1 1698.8,168.1 	"/>
</g>
<g>
	<path class="st3" d="M1155.2,255.7"/>
	<path class="st4" d="M1135.5,302.8c3.7-8.9,14.2-13.1,23.5-9.3c9.3,3.8,13.8,14.2,10.2,23.1c-3.7,8.9-14.2,13.1-23.5,9.3
		C1136.4,322.1,1131.8,311.7,1135.5,302.8z M1162.2,320.1L1162.2,320.1c1.5-1.3,2.7-2.9,3.6-4.9c0.8-2,1.1-4.1,1-6.2l-0.1,0.1
		l-5,4.3L1162.2,320.1z M1149.9,323.5L1149.9,323.5c3.1,0.6,6.2,0.2,8.9-1l0-0.1l-0.5-6.1L1149.9,323.5z M1146.8,307.3l1.1,13.1
		l10-8.6l-1.1-13.1L1146.8,307.3z M1138.8,314.1L1138.8,314.1c1,2.9,2.9,5.4,5.5,7.1l0,0l-0.9-11L1138.8,314.1z M1142.5,299.2
		L1142.5,299.2c-1.6,1.3-2.8,3-3.6,5c-0.8,2-1.1,4-1,6l0,0l0,0l5.1-4.4L1142.5,299.2z M1154.6,295.9L1154.6,295.9
		c-3-0.6-6-0.2-8.7,1l0,0l0.5,6L1154.6,295.9z M1165.8,305.1L1165.8,305.1c-1-2.8-2.9-5.2-5.4-6.9l0,0.1l0,0l0.9,10.7L1165.8,305.1z
		"/>
	<path class="st5" d="M1070.7,420.3c-1.9,2.3-4.8,5.6-8.6,9.4c-9.6,9.7-15.1,12.7-22.1,18.6c-5.2,4.4-20.2,17.4-27.9,37.8
		c-3,7.9-4.1,14.8-4.5,19.4c-2.1,0.3-5.2,1-8.8,2.4c-2.7,1.1-7.1,2.8-10.6,6.4c-3.4,3.4-4.5,7-5.8,10.9c-1.8,5.3-4.8,12.7-9.3,22.1"
		/>
	<path class="st5" d="M1097.4,344.7c-1.6,1.5-3.8,3.9-5,7.5c-1,2.9-0.5,4.4-1.2,8.8c-0.6,4.4-1.8,7.6-2.7,10.1
		c-2.3,6.4-3.6,6.2-5.8,12c-1.8,4.5-0.9,4.4-3.7,15.1c-1.2,4.8-2.1,8-3.7,12.1c-1.4,3.5-3.6,7.6-4.8,9.9
		c5.8,10.8,9.3,21.1,11.1,27.5c1.6,5.7,2.5,10.4,5.7,17.5c3.7,8.1,5.8,13.1,11.2,16c7,3.8,15.3,2.1,19.6,1.2
		c5.3-1.1,9.4-3.1,12.2-4.7c0.9-0.6,1.7-1.2,2.6-1.8c1.1-3,2.6-6.2,4.3-9.5c3.2-5.9,7.3-13.6,14.8-19.7c8.3-6.7,18.4-8.9,24.7-9.6
		c-0.9-1.6-2.4-4.5-3-6.9l-0.9-4.5l2.9-15.5c0,0,7.9-11.5,11.1-14.2c3.2-2.7,8-5.2,9.6-9"/>
	<path class="st5" d="M1243.4,580.9c-5.5-2-9.4-4.4-11.9-6.3c-4.9-3.5-6.2-5.8-13.4-11.6c-3.5-2.8-5.3-4.3-8-6
		c-8.3-5.2-13-5.1-17-10.1c-1.8-2.3-2.7-4.7-3.2-6.2c-10.2-6.3-23.8-16.2-36.9-31.2c-9.8-11.3-15.1-24.7-19.8-33.7"/>
	<path class="st5" d="M1261.4,538.6c-1-0.8-2.5-2-4.2-3.7c-3.7-3.6-4.1-5.1-6.5-6.8c-2.2-1.5-4.3-1.9-7.8-2.6
		c-5.4-1-7.2-0.1-10.7-1.6c-2.4-1-4-2.6-5-3.7c-0.7-2.5-1.9-6.1-3.4-10.4c-4-11.3-9.8-28-21.4-44.9c-5.1-7.5-13.3-17.8-25.6-28.2"/>
	<path class="st5" d="M1098,480.7c-0.6,1.9-1.5,4.6-3,7.7c-1.4,3.1-7.6,15.6-21.6,25.8c-4.1,3-10.5,6.9-19.3,9.9
		c-1.1,3-2.7,6.9-5.1,11.3c-2.3,4.2-6.6,11.9-14.6,19.1c-3.9,3.5-5.2,3.3-23.9,13.4c-4.7,2.5-8.5,4.6-10.9,6"/>
	<path class="st5" d="M1117.7,348.7c-2.3,0.4-6.4,0.9-11.3-0.3c-1.7-0.4-6.9-1.8-11.3-6c-6.5-6.2-7.2-14.6-7.5-17.9
		c-0.8-9.8,1.8-18.2,7.2-26.7c3-4.8,6.2-8.3,7.8-10.7"/>
	<path class="st5" d="M1198.9,346.2c-3.1,4.1-6.1,7.1-8.5,9.3c-3.5,3.2-5.5,4.9-8.8,6.3c-5.3,2.1-10.1,1.5-11.9,1.3
		c-3.6-0.5-7.7-0.7-17.2-4.8c-3.5-1.5-6.3-2.7-8.2-3.4"/>
	<path class="st5" d="M1062,321.6c-2.7,3.6-4.4,6.9-5.5,9.3c-2,4.3-3.7,8.4-2.9,13.3c0.2,1.3,0.6,2.4,0.9,3.1
		c-1.9-1-4.8-2.5-8.6-3.5c-4.7-1.3-8.6-1.5-14.6-1.8c-7.4-0.3-8.6,0.2-12.6-0.7c-3.9-0.8-6.9-2.3-8.9-3.3c0.8-0.8,2-2.1,3.1-3.8
		c1-1.6,4.4-7.1,3.5-13.9c-0.1-1-1.1-3.5-3.1-8.6c-2.2-5.5-3.3-8.4-4.6-10.6c-0.5-0.8-2.6-4.1-6.2-7.5c-2.3-2.2-4.8-4.5-6.6-3.8
		c-1.1,0.4-1.4,1.7-2.4,4.4c-1.3,3.3-2.3,5.1-3.5,7.1c-1.9,3-3.2,3.7-3.1,5.5c0.1,1.7,1.3,2.9,1.5,3.1c2.3,2.2,5.9,1.3,6.4,1.1
		c4.2-1.2,5.6-5.8,5.8-6.2"/>
	<path class="st5" d="M986.7,307.3c-1.9-0.4-3.5-0.3-4.4-0.1c-1.2,0.2-2.7,0.5-4,1.6c-0.3,0.2-0.9,0.8-1.7,3
		c-0.8,2.1-1.1,3.6-1.7,6.6c-0.9,4.5-1,4.3-0.9,4.6c0.2,2.9,2.6,4.1,6,7.6c1.6,1.7,3.7,4.7,7.9,10.8c2.9,4.3,3.7,5.7,5.4,8.2
		c4.5,6.8,9.1,11.2,12.8,14.9c13,12.7,16.4,9.6,33.1,23.7c4.2,3.6,10.5,9.3,20.7,12.7c1.2,0.4,2.8,1.3,5.2,1.4
		c7.2,0.3,12.8-5.9,14.9-8.5"/>
	<path class="st5" d="M989.2,301.4c-1.3-0.6-2.4-1.2-3.1-1.6c-2.1-1.2-2.8-1.7-4.2-1.9c-0.5,0-1.3-0.1-2.1,0.2
		c-1.7,0.7-2.4,2.7-2.8,3.6c-3.4,9.3-5.2,9.8-4.9,14.2c0.1,1.3,0.4,3.4,1.6,5.9"/>
	<path class="st5" d="M991.8,297.2c-0.9-0.5-1.6-0.9-2-1.2c-1.8-1.1-3.5-2.5-6.2-4.4c-0.4-0.3-0.9-0.6-1.6-0.7
		c-1.5-0.3-2.7,0.5-3,0.7c-1.4,0.9-1.8,2.4-2.2,3.4c-2.2,6.9-3.3,10.4-3.8,13.3c-0.3,1.6-0.5,2.9-0.7,3.8"/>
	<path class="st5" d="M993.5,293.1c-0.8-0.9-1.8-1.9-2.9-3.1c-2.1-2.1-2.8-2.8-3.9-3.1c-0.6-0.2-1.8-0.6-2.9,0
		c-1.7,0.9-1.7,3.4-1.7,3.5"/>
	<path class="st5" d="M997.6,309.7c0.7,0.3,1.6,0.8,2.2,1.9c0.6,1,0.5,2.1-0.3,5.1c-1,3.8-2.1,5.9-4,9.9c-0.7,1.5-1.2,2.3-2,2.5
		c-1.6,0.3-3.2-2.5-3.3-2.6c-2.1-3.8,0.2-8.6,0.7-9.7c-0.6,0.2-1.3,0.4-2,0.6c-1.9,0.5-3.6,0.7-5.1,0.8c0.3,0.9,0.6,1.9,0.7,3.2
		c0.1,0.8,0.1,1.5,0.1,2.1c0.9-0.2,2-0.3,3.3-0.1c0.4,0.1,0.7,0.1,1.1,0.2"/>
	<path class="st5" d="M1248.1,398.4c-0.8,3.4-1.4,7.3-1.5,9c-0.5,6.8,0.7,11,0.7,21.5c0,2.9-0.1,3.9-0.5,5.1c-0.5,1.6-2,4.5-9.3,8.6
		c-6.8,3.9-10.8,6.2-16.5,5.8c-4.4-0.3-7.5-2.2-10.2-3.7c-10.7-6.4-14.5-17-16.1-21.5c-1.9-5.3-2.5-8.9-0.5-12.9
		c1.6-3.2,3.8-5.1,8.2-7.1c4.9-2.3,12.3-6.7,20.2-11.5"/>
	<path class="st5" d="M1222.2,368c0.3-0.5,1.4-2.1,3.3-3.3c0.9-0.6,3-1.9,4.3-1.1c0.5,0.3,0.8,0.9,1.4,2.2c0.8,1.6,0.7,2.3,1.1,2.4
		c0.5,0.1,1-0.8,2.5-2.4c1.4-1.5,2-2.2,3.1-2.7c0.5-0.3,2.4-1,4.3-0.3c0.2,0.1,1.9,0.8,2.8,2.5c0.6,1.3,0.5,2.4,1,2.5
		c0.4,0.1,0.8-0.4,1.3-0.9c1.3-1.4,3-2.2,4.1-2.4c1.7-0.4,3.7,0.2,5,1.3c0.3,0.3,1.9,1.6,2.2,3.7c0.1,0.8,0,1.2,0.4,1.7
		c0.6,0.6,1.7,0.2,2.8,0.3c2.5,0,5,2.2,5.7,4.2c0.4,1.3,0.1,2.3-0.5,4.3c-2.4,8.2-3.6,12.3-4.1,16.3c-0.2,1.2-0.3,2.5-1.3,3.3
		c-1.6,1.3-4.6,0.1-5.7-0.3c-2.4-0.9-2.8-1.8-4.6-1.8c-0.8,0-1.5,0.3-2.9,0.8c-2.5,0.9-2.4,1.3-3.4,1.4c-1.4,0.1-2.7-0.7-5.5-2.4
		c-2.1-1.3-2.1-1.6-3.2-1.9c-1.7-0.5-3.5-0.4-4.2-0.3c-1.7,0.2-1.9,0.7-2.9,0.5c-1.1-0.2-1.9-1-2.8-1.9c-1.3-1.3-1.2-1.8-2-2.2
		c-0.9-0.4-1.3,0.2-3.1,0.3c-1.1,0.1-2.7,0.1-3.7-0.8c-1-0.9-0.9-2.4-0.8-4.1c0.5-4.8,1.8-6.4,3.1-11.2
		C1220.9,371.9,1220.7,370.5,1222.2,368z"/>
	<path class="st6" d="M1245.3,354.4c0.7,1.8,0.8,2.4,1.1,5.4c0.3,2.9,0.1,5.4-0.2,7.2"/>
	<path class="st5" d="M1263.5,392.9c1-0.2,5.4-1,7.6-4.1c1.2-1.8,3-5.9,1-8.3c-1.4-1.6-3.7-1.7-4.4-1.7"/>
	<path class="st5" d="M1241.8,253.5c-3.4,3.5-8.5,6.7-10.8,7.4c-3.8,1.1-5.3,0.1-9.2,1.4c-1.8,0.6-6.1,2.1-8.1,6
		c-2.6,4.9-0.5,10.6,1.7,13.7c1,1.3,2.4,2.7,14.1,7.7c8.5,3.6,9.6,3.7,12.4,5.6c4.7,3.2,7.2,6.9,9.4,10.2c6.3,9.6,8,19,9.4,27.8
		c0.8,4.8,1.6,11.5,1.5,19.7c-1.7,0.5-4.3,1.2-7.4,1.6c-11.7,1.4-16.5-3.3-29.5-4.7c-6.7-0.7-17.9-2-23.1,4.3c-1,1.2-1.4,2.2-2.7,11
		c-2,13.2-3,19.9-2.7,26.8c0.1,3.1,0.8,8.1,1.8,13.3"/>
	<path class="st5" d="M1168.2,247.2c-2.3,4.6-4.8,8-6.7,10.3c-2.5,2.9-4.4,5.2-7.6,6.7c-2.3,1.1-3.1,0.9-8.7,1.7
		c-6.3,1-11,1.7-16.2,3.7c-4.6,1.8-4.2,3.1-8,3.7c-5.8,1-11.4-0.3-15-0.7c-23-2.5-23.8-3-29.9-0.7c-6.3,2.3-9.4,9.8-10.5,11.9
		c-2,3.9-1.7,5.5-5,12.2c-1.6,3.3-3.4,6.6-6.9,9.2c-1.5,1.1-2.8,1.8-3.7,2.2c0,1.3,0.1,3.3,1.1,5.5c1,2.3,3,4.7,8.9,7.8
		c5.3,2.8,9,3.7,22.2,7.6c2.5,0.7,4.5,1.4,5.6,1.7"/>
	<path class="st7" d="M1237.7,223c-0.3,1.6-0.9,3.8-2.4,6c-1.5,2.3-3.3,3.5-3,4.1c0.2,0.4,1.2,0.2,5.2,0c1.4-0.1,1.7,0,1.9,0.2
		c0.6,0.9-1.3,4-4.1,5.4c-2.4,1.2-4.2,0.7-4.5,1.5c-0.5,1.4,4.9,2.8,5.6,6.2c1.1,4.9-8.7,10.2-7.9,11.6c0.5,0.8,4.2-0.2,7.1-2.1
		c2.6-1.6,3.7-3.5,4.3-3.2c1,0.6-1.7,6.4-0.7,6.9c0.7,0.4,2.3-2.3,3.6-1.9c1,0.4,0.7,2.7,1.5,5.2c1.1,3.5,3.6,5.8,3.9,5.6
		c0.3-0.2-1-1.9-1.3-4.9c-0.1-0.8-0.3-2.9,0.6-5.2c0.9-2.5,1.9-2.5,2.8-5.1c0.9-2.6,0.6-4.7,0.9-4.7c0.4,0,0.1,3.3,2.1,5.8
		c2.3,3,7.1,3.7,7.9,2.6c0.5-0.8-1.4-1.9-2.4-5.4c-0.2-0.6-1.1-4.1,0.6-7.5c0.4-0.7,0.8-1.6,1.5-1.7c1.4-0.1,1.8,4.8,3,4.9
		c1.2,0.1,2.7-4.5,3.2-8.8c0.7-6-1.4-10.9-0.9-11c0.4-0.1,0.8,3.1,3.4,5.1c3.1,2.3,7.9,1.5,8,0.7c0.1-0.5-1.7-0.7-3.4-2.4
		c-0.6-0.6-1.6-1.9-2.2-5.1c-1.3-5.9,0.9-7.3-0.6-9.7c-2-3.2-6.9-2.5-7.3-5.1c-0.2-1.1,0.7-1.3,0.9-2.8c0.4-3-2.5-6.3-5.1-8
		c-2.5-1.7-4-1.4-6.4-3.7c-0.7-0.7-1.8-1.9-1.5-2.8c0.5-1.3,3.4-1,3.6-1.7c0.1-0.8-3.8-3.1-8.6-3.2c-4.3,0-6.6,1.7-8.4,0.2
		c-0.8-0.7-1.2-1.9-1.1-2.8c0.2-1.7,2-2.9,3.6-3.2c2.4-0.4,4.3,1.5,4.5,1.3c0.2-0.3-2.2-4.1-6.2-4.9c-4.9-1-8.4,3.4-11.4,1.5
		c-0.7-0.4-0.5-0.6-1.9-2.6c-1.5-2.1-4.4-6.1-8.8-7.1c-1.5-0.4-3.1-0.3-3.2,0c-0.1,0.4,2,0.7,3.9,2.2c2.4,1.9,4.4,5.7,3.2,7.5
		c-0.8,1.2-3.2,1.6-4.1,0.7c-1.3-1.3,0.9-4.6,0-5.2c-0.9-0.6-4.3,1.9-6.2,5.4c-0.4,0.8-3.8,7.3-0.2,11.2c2.9,3.1,7.8,2.1,8.2,2.1
		c-0.6,3.9-1.1,7.7-1.7,11.6C1223.9,212.2,1230.8,217.6,1237.7,223z"/>
	<path class="st5" d="M1215.9,255c-1.9,2.2-3.6,3.8-4.9,4.9c-2.2,1.9-3.1,2.3-4.1,2.5c-1.7,0.3-3.2-0.4-4.1-0.9
		c-4-1.8-8.1-3.2-10.4-3.8c-2.1-0.5-5.9-1.2-10.2-1.3c-1.4,0-2.3,0-3.5-0.4c-2.2-0.7-2.8-1.9-5.8-4.9c-3.8-3.7-4.9-3.7-5.5-5.8
		c-0.6-1.8-0.2-3.3,0.1-4.9c0.6-2.7,1.7-4.3,3.4-7c1.5-2.4,2.8-4.9,4.3-7.4c3.9-6.8,5.2-10,8.7-14.2c2-2.4,3.3-3.5,5-3.8
		c1.3-0.2,2.4,0.1,4-0.5c0.3-0.1,1.2-0.5,2.8-1.9c2.8-2.5,3.6-4.6,6.2-6.4c0.6-0.4,1.1-0.7,1.9-0.9c1.1-0.2,1.6,0.1,2.6,0.1
		c1.1,0,1.8-0.4,2.8-0.9c1.2-0.6,7.3-2.5,9.8-3.3"/>
	<path class="st5" d="M1173,427c-8.1-2.5-19.6-5.8-33.6-9.3c-13-3.2-19.6-4.9-27.6-5.8c-8.7-1-21.3-1.6-36.8,1"/>
	<path class="st5" d="M1175.1,411.8c-6.1-2-14.9-4.9-25.8-8c-16.1-4.7-24.3-7.1-32.6-8.3c-8.3-1.2-20.8-2.1-36.6,0.5"/>
	<path class="st5" d="M1041,343c1,2.2,2.3,5.4,3,9.4c0.2,1.3,1,6.3,0.1,11c-2,10.3-11.5,16.2-13.7,17.5"/>
	<path class="st5" d="M1031.6,342.3c1.7,4.3,3.4,10.4,2.6,17.5c-0.1,1.1-0.2,2.2-0.6,3.5c-1.9,7-7.8,11-10.9,12.8"/>
	<path class="st5" d="M1024,342.1c0.6,1.7,1.4,4.5,1.4,7.9c-0.1,4-1.3,6.9-2,8.4c-2.7,6.4-7.5,10.1-10,11.9"/>
	<path class="st5" d="M1016.3,340.9c0.2,1,0.3,2.4,0.2,4.1c-0.2,4.1-1.7,7.1-2.4,8.5c-2.7,5.3-6.9,8.2-9,9.5"/>
	<path class="st5" d="M1240.8,580.3c-0.1,0.3-0.1,0.7,0.2,1c0.6,0.7,2.5,0.1,3.2-0.2c6.2-2.2,10.6-12.6,10.6-12.6
		c4.4-10.6,6.2-21.7,6.8-30.9c0,0,0.1-0.5-0.2-0.7c-0.3-0.2-0.8-0.2-1.1,0.3"/>
	<path class="st5" d="M1255.9,533.3c0.9-0.5,2.3-1,4-1.2c4.7-0.4,8.5,2.8,11.7,5.6c5.3,4.6,3.7,5.6,8.1,8.6c2.2,1.5,4.7,2.7,8.2,5.9
		c1.6,1.4,2.4,2.3,2.7,3.6c0.7,2.8-1.2,5.5-2.2,6.9c-9.4,13.1-16.1,15.4-17.5,23c-0.6,3.1-0.1,5.9-2.3,7.5c-0.8,0.6-2.2,1.2-6.9,0.5
		c-5.1-0.8-9.2-2.8-17.4-6.9c-1.9-1-4.3-2.2-5.4-4.8c-0.5-1.2-0.6-2.4-0.6-3.1"/>
	<path class="st5" d="M1286,566.6c2.5,2.3,4.3,4.4,5.3,5.8c3.6,4.5,7.9,11.6,8.6,12.8c0,0,1.8,3,4.9,5.3c0.6,0.5,1.5,1,2.7,1.3
		c1,0.2,1.9,0.2,2.5,0.1c2.2,0.8,5.3,2.4,7.8,5.3c2,2.3,2.5,4.2,4.8,11.2c3.7,10.9,3.6,9.8,4.9,14.5c2,7.1,3,10.7,2.9,13.4
		c-0.5,7.7-5,13-7.6,16c-3.5,4.1-7.3,8.6-12.2,8.2c-3.2-0.3-5.3-2.6-9.1-6.8c-2.7-3-5.9-6.5-6.8-11.7c-0.7-3.8,0.2-6.2,1-10.1
		c2.3-10.6,1.8-15.4,1.5-20c-0.4-5.3-1.3-6.9-1.8-7.6c-1.7-2.5-4.5-3.7-10-6.1c-4.2-1.8-6.1-2.1-11.4-4.5c-1.6-0.7-2.8-1.3-3.6-1.7"
		/>
	<path class="st5" d="M1003.3,572.4c-0.3,0.4-0.8,1.1-1.6,1.6c-1.9,1.2-4.3,1-7.8-0.2c-12-4.2-18.6-13.8-18.6-13.8
		c0,0-4-5.8-3.7-11.3c0-0.6,0.1-2.2,1.1-2.8c0.2-0.1,0.5-0.2,0.6-0.2"/>
	<path class="st5" d="M975.2,541.9c-0.8-0.1-1.9-0.3-3.3,0.1c-3.8,0.9-5.6,4.5-6.2,5.7c-1.5,3-0.3,3.8-1.2,7.7
		c-1.4,6.2-4.9,7-5.5,13c-0.1,1.5-0.3,3.5,0.8,5.3c1.3,2,3.2,2.4,6.2,3.7c0.5,0.2,7.1,3,12.3,7.8c3.3,3,4,4.9,6.3,5
		c1.6,0.1,2.9-0.8,5.5-2.7c4.3-3.1,4.1-4.2,7.2-6.2c3.7-2.4,5.1-1.5,8.3-3.8c4-2.8,4.8-4.9,5-5.8c0.3-1.3,0.2-2.5,0-3.3"/>
	<path class="st5" d="M981.9,589.1c-1,0.3-2.3,0.7-3.9,1.4c-2.6,1.1-5.9,2.4-9.1,5.2c-4,3.5-5.7,7.5-6.1,8.5c-1.2,3-1.5,5.4-1.7,7.4
		c-1.1,10.7-1.7,16.1-2.1,18.3c-1.5,7.7-4.5,12.6-8.4,18.8c-3.8,6.2-6,7.8-8.4,8c-1.3,0.1-3.1-0.1-6.4-2.6
		c-2.1-1.6-9.3-7.1-11.5-17.3c-2.2-10.2,2-18.5,3.7-21.9c3.8-7.6,9.7-12.9,16-18.6c3.9-3.5,6.5-5.4,10-9.8c3.4-4.3,5.5-8.4,6.8-11.2
		"/>
	<path class="st4" d="M1215.4,288.7c-1.2-0.4-3-1.1-5.3-1.5c-4-0.8-6.2-0.4-9.6-0.8c-2.1-0.2-5.2-0.8-8.8-2.4"/>
	<path class="st4" d="M1125.3,274.5c1.5-0.1,3.8,0,6.4,0.7c2.5,0.7,3.4,1.4,5.4,1.8c1.7,0.4,4.1,0.5,7.4-0.4"/>
	<path class="st4" d="M1202.6,509.3c-1.4-4.2-3.2-9-5.7-14c-2.6-5.4-5.4-10.1-8-14"/>
	<path class="st4" d="M1225.4,541c-1.3-1.7-2.8-3.5-4.7-5.3c-3.6-3.5-7.3-6-10.3-7.6"/>
	<path class="st4" d="M1053.9,449.9c-4.9,3.2-11.5,8.2-17.8,15.9c-7,8.6-10.9,17-13,22.8"/>
	<path class="st4" d="M1083.8,494.7c-3.9,4.5-10.2,10.6-19.4,15.1c-3.7,1.8-7.2,3.1-10.3,4"/>
	<path class="st4" d="M1021.5,527c-0.8-1.2-1.7-2.7-2.4-4.5c-1.4-3.4-1.8-6.6-1.9-8.7"/>
	<path class="st4" d="M1049.3,519.4c-2.1,1.4-5.1,3.2-9.1,4.4c-2.5,0.7-4.7,1.1-6.6,1.3"/>
	<path class="st4" d="M1196.1,223.3c0,0-4.3-1.5-6.9,4.4"/>
	<path class="st4" d="M1255.5,390.7c0,0,0.8-5.2,2.6-9.3"/>
	<path class="st4" d="M1242.2,387.5c0,0,2.8-9.3,3.3-13.5"/>
	<path class="st4" d="M1229.5,383.7c0,0,2.3-4.9,2.7-9.6"/>
	<path class="st4" d="M1085.1,363c0,0,4-1.1,6.9-9.4"/>
	<path class="st4" d="M1236.1,433.4c1.4-1.7,4-5.4,4.9-10.9c0.9-5.1-0.1-9.2-0.7-11.2"/>
	<path class="st5" d="M1246.7,359.7c1.7,0.2,5.8,0.3,10.1-2.1c2.7-1.5,4.4-3.4,5.3-4.6"/>
	<path class="st4" d="M1207.5,362.4c-1,3.6-1.9,8.5-1.9,14.4c0,4.4,0.6,8.2,1.3,11.2"/>
	<path class="st8" d="M1210.3,223.6c0.2,0,0.5,0,0.8,0.1c3.5,1,6.9,2.2,10.3,3.6c2.6,1.1,4.1,2.7,4.2,5.7c0.1,1.9-0.3,4-0.8,5.9
		c-0.3,1-0.4,2-0.8,2.9c-0.3,0.6-0.8,1.1-1.4,1.1c-0.4,0-0.8-0.2-1.2-0.5c-1.3-0.9-2.7-1.7-4-2.6c-1.1-0.7-2.4-1.3-3.2-2.4
		c-0.9-1.2-1.4-2.5-1.9-3.9c-0.9-2.6-1.7-5.3-2.4-8C1209.5,224.3,1209.4,223.6,1210.3,223.6z"/>
	<path class="st8" d="M1205.1,210.6c-0.2-1.5-0.6-3.3-1.2-4.9c-0.7-1.7-1.4-2.8-1.6-3.1c-0.4-0.5-1.2-1.3-1.9-1.9
		c-1.7,1.6-2.7,3.3-4.8,5.3c-0.2,1.6-0.3,3.7,0.3,4.8c0.3,0.6,0.9,1,2.1,1.9c0.2,0.2,2.7,2,5.7,2.8c0.4,0.1,1,0.3,1.4-0.1
		c0.6-0.4,0.4-1.5,0.4-1.5C1205.4,213.3,1205.4,212.1,1205.1,210.6z"/>
</g>
<g>
	<g>
		<circle class="st5" cx="405.1" cy="102.8" r="19.8"/>
		<circle class="st9" cx="405.1" cy="102.8" r="7.3"/>
	</g>
	<g>
		<circle class="st5" cx="493.4" cy="102.8" r="19.8"/>
		<circle class="st9" cx="493.4" cy="102.8" r="7.3"/>
	</g>
	<g>
		<circle class="st5" cx="581.7" cy="102.8" r="19.8"/>
		<circle class="st9" cx="581.7" cy="102.8" r="7.3"/>
	</g>
	<g>
		<circle class="st5" cx="670" cy="102.8" r="19.8"/>
		<circle class="st9" cx="670" cy="102.8" r="7.3"/>
	</g>
	<g>
		<circle class="st5" cx="758.3" cy="102.8" r="19.8"/>
		<circle class="st9" cx="758.3" cy="102.8" r="7.3"/>
	</g>
</g>
<g>
	<g>
		<circle class="st5" cx="405.1" cy="178.9" r="19.8"/>
		<circle class="st9" cx="405.1" cy="178.9" r="7.3"/>
	</g>
	<g>
		<circle class="st5" cx="493.4" cy="178.9" r="19.8"/>
		<circle class="st9" cx="493.4" cy="178.9" r="7.3"/>
	</g>
	<g>
		<circle class="st5" cx="581.7" cy="178.9" r="19.8"/>
		<circle class="st9" cx="581.7" cy="178.9" r="7.3"/>
	</g>
	<g>
		<circle class="st5" cx="670" cy="178.9" r="19.8"/>
		<circle class="st9" cx="670" cy="178.9" r="7.3"/>
	</g>
	<g>
		<circle class="st5" cx="758.3" cy="178.9" r="19.8"/>
		<circle class="st9" cx="758.3" cy="178.9" r="7.3"/>
	</g>
</g>
<g>
	<g>
		<circle class="st5" cx="405.1" cy="255.1" r="19.8"/>
		<circle class="st9" cx="405.1" cy="255.1" r="7.3"/>
	</g>
	<g>
		<circle class="st5" cx="493.4" cy="255.1" r="19.8"/>
		<circle class="st9" cx="493.4" cy="255.1" r="7.3"/>
	</g>
	<g>
		<circle class="st5" cx="581.7" cy="255.1" r="19.8"/>
		<circle class="st9" cx="581.7" cy="255.1" r="7.3"/>
	</g>
	<g>
		<circle class="st5" cx="670" cy="255.1" r="19.8"/>
		<circle class="st9" cx="670" cy="255.1" r="7.3"/>
	</g>
	<g>
		<circle class="st5" cx="758.3" cy="255.1" r="19.8"/>
		<circle class="st9" cx="758.3" cy="255.1" r="7.3"/>
	</g>
</g>
<g>
	<g>
		<circle class="st5" cx="405.1" cy="331.2" r="19.8"/>
		<circle class="st9" cx="405.1" cy="331.2" r="7.3"/>
	</g>
	<g>
		<circle class="st5" cx="493.4" cy="331.2" r="19.8"/>
		<circle class="st9" cx="493.4" cy="331.2" r="7.3"/>
	</g>
	<g>
		<circle class="st5" cx="581.7" cy="331.2" r="19.8"/>
		<circle class="st9" cx="581.7" cy="331.2" r="7.3"/>
	</g>
	<g>
		<circle class="st5" cx="670" cy="331.2" r="19.8"/>
		<circle class="st9" cx="670" cy="331.2" r="7.3"/>
	</g>
	<g>
		<circle class="st5" cx="758.3" cy="331.2" r="19.8"/>
		<circle class="st9" cx="758.3" cy="331.2" r="7.3"/>
	</g>
</g>
<g>
	<g>
		<circle class="st5" cx="405.1" cy="407.3" r="19.8"/>
		<circle class="st9" cx="405.1" cy="407.3" r="7.3"/>
	</g>
	<g>
		<circle class="st5" cx="493.4" cy="407.3" r="19.8"/>
		<circle class="st9" cx="493.4" cy="407.3" r="7.3"/>
	</g>
	<g>
		<circle class="st5" cx="581.7" cy="407.3" r="19.8"/>
		<circle class="st9" cx="581.7" cy="407.3" r="7.3"/>
	</g>
	<g>
		<circle class="st5" cx="670" cy="407.3" r="19.8"/>
		<circle class="st9" cx="670" cy="407.3" r="7.3"/>
	</g>
	<g>
		<circle class="st5" cx="758.3" cy="407.3" r="19.8"/>
		<circle class="st9" cx="758.3" cy="407.3" r="7.3"/>
	</g>
</g>
<g>
	<g>
		<circle class="st5" cx="405.1" cy="483.5" r="19.8"/>
		<circle class="st9" cx="405.1" cy="483.5" r="7.3"/>
	</g>
	<g>
		<circle class="st5" cx="493.4" cy="483.5" r="19.8"/>
		<circle class="st9" cx="493.4" cy="483.5" r="7.3"/>
	</g>
	<g>
		<circle class="st5" cx="581.7" cy="483.5" r="19.8"/>
		<circle class="st9" cx="581.7" cy="483.5" r="7.3"/>
	</g>
	<g>
		<circle class="st5" cx="670" cy="483.5" r="19.8"/>
		<circle class="st9" cx="670" cy="483.5" r="7.3"/>
	</g>
	<g>
		<circle class="st5" cx="758.3" cy="483.5" r="19.8"/>
		<circle class="st9" cx="758.3" cy="483.5" r="7.3"/>
	</g>
</g>
<g>
	<g>
		<circle class="st5" cx="405.1" cy="559.6" r="19.8"/>
		<circle class="st9" cx="405.1" cy="559.6" r="7.3"/>
	</g>
	<g>
		<circle class="st5" cx="493.4" cy="559.6" r="19.8"/>
		<circle class="st9" cx="493.4" cy="559.6" r="7.3"/>
	</g>
	<g>
		<circle class="st5" cx="581.7" cy="559.6" r="19.8"/>
		<circle class="st9" cx="581.7" cy="559.6" r="7.3"/>
	</g>
	<g>
		<circle class="st5" cx="670" cy="559.6" r="19.8"/>
		<circle class="st9" cx="670" cy="559.6" r="7.3"/>
	</g>
	<g>
		<circle class="st5" cx="758.3" cy="559.6" r="19.8"/>
		<circle class="st9" cx="758.3" cy="559.6" r="7.3"/>
	</g>
</g>
<path class="st5" d="M253.9,46.8V35.9c0-6.6-5.4-12-12-12h-70.6c-6.6,0-12,5.4-12,12v10.9H253.9z"/>
<path class="st5" d="M232.2,23.9c0-12.7-5.4-23.1-12-23.1H193c-6.6,0-12,10.4-12,23.1H232.2z"/>
<path class="st5" d="M823.2,150.1h10.9c6.6,0,12-3.8,12-8.5V91.5c0-4.7-5.4-8.5-12-8.5h-10.9V150.1z"/>
<path class="st5" d="M823.2,281.3h10.9c6.6,0,12-3.8,12-8.5v-50.1c0-4.7-5.4-8.5-12-8.5h-10.9V281.3z"/>
<path class="st10" d="M846.1,227.1"/>
<path class="st10" d="M846.1,270.1"/>
<g>
	<path class="st5" d="M846.1,227.1c16.9,0,28.1-13.8,28.1-30.7v-28.8c0-16.9-11.2-30.7-28.1-30.7v-43c40.7,0,71.2,33.1,71.2,73.7
		v28.8c0,40.7-30.5,73.7-71.2,73.7V227.1z"/>
</g>
<g>
	<g>
		<path class="st5" d="M341.7,204.4H112.5c-5,0-9.1-4.1-9.1-9.1v-31.5c0-5,4.1-9.1,9.1-9.1h229.2c5,0,9.1,4.1,9.1,9.1v31.5
			C350.8,200.3,346.7,204.4,341.7,204.4z"/>
		<rect x="111.3" y="162.3" class="st11" width="231.6" height="34.4"/>
	</g>
	<g>
		<path class="st5" d="M341.7,280.2H112.5c-5,0-9.1-4.1-9.1-9.1v-31.5c0-5,4.1-9.1,9.1-9.1h229.2c5,0,9.1,4.1,9.1,9.1v31.5
			C350.8,276.1,346.7,280.2,341.7,280.2z"/>
		<rect x="111.3" y="238.1" class="st11" width="231.6" height="34.4"/>
	</g>
	<g>
		<path class="st5" d="M341.7,356.1H112.5c-5,0-9.1-4.1-9.1-9.1v-31.5c0-5,4.1-9.1,9.1-9.1h229.2c5,0,9.1,4.1,9.1,9.1v31.5
			C350.8,352,346.7,356.1,341.7,356.1z"/>
		<rect x="111.3" y="314" class="st11" width="231.6" height="34.4"/>
	</g>
	<g>
		<path class="st5" d="M341.7,431.9H112.5c-5,0-9.1-4.1-9.1-9.1v-31.5c0-5,4.1-9.1,9.1-9.1h229.2c5,0,9.1,4.1,9.1,9.1v31.5
			C350.8,427.8,346.7,431.9,341.7,431.9z"/>
		<rect x="111.3" y="389.9" class="st11" width="231.6" height="34.4"/>
	</g>
	<g>
		<path class="st5" d="M341.7,507.8H112.5c-5,0-9.1-4.1-9.1-9.1v-31.5c0-5,4.1-9.1,9.1-9.1h229.2c5,0,9.1,4.1,9.1,9.1v31.5
			C350.8,503.7,346.7,507.8,341.7,507.8z"/>
		<rect x="111.3" y="465.7" class="st11" width="231.6" height="34.4"/>
	</g>
	<g>
		<path class="st5" d="M341.7,128.5H112.5c-5,0-9.1-4.1-9.1-9.1V87.9c0-5,4.1-9.1,9.1-9.1h229.2c5,0,9.1,4.1,9.1,9.1v31.5
			C350.8,124.4,346.7,128.5,341.7,128.5z"/>
		<rect x="111.3" y="86.4" class="st11" width="231.6" height="34.4"/>
	</g>
	<g>
		<path class="st5" d="M341.7,583.6H112.5c-5,0-9.1-4.1-9.1-9.1V543c0-5,4.1-9.1,9.1-9.1h229.2c5,0,9.1,4.1,9.1,9.1v31.5
			C350.8,579.5,346.7,583.6,341.7,583.6z"/>
		<rect x="111.3" y="541.6" class="st11" width="231.6" height="34.4"/>
	</g>
</g>
<path class="st2" d="M234.6,23.9c0-12.7-5.4-23.1-12-23.1h-27.3c-6.6,0-12,10.4-12,23.1H234.6z"/>
<circle class="st2" cx="408.2" cy="102.8" r="19.8"/>
<circle class="st2" cx="496.5" cy="102.8" r="19.8"/>
<circle class="st2" cx="584.8" cy="102.8" r="19.8"/>
<circle class="st2" cx="673.1" cy="102.8" r="19.8"/>
<circle class="st2" cx="761.4" cy="102.8" r="19.8"/>
<circle class="st2" cx="408.2" cy="178.9" r="19.8"/>
<circle class="st2" cx="496.5" cy="178.9" r="19.8"/>
<circle class="st2" cx="584.8" cy="178.9" r="19.8"/>
<circle class="st2" cx="673.1" cy="178.9" r="19.8"/>
<circle class="st2" cx="761.4" cy="178.9" r="19.8"/>
<circle class="st2" cx="408.2" cy="255.1" r="19.8"/>
<circle class="st2" cx="496.5" cy="255.1" r="19.8"/>
<circle class="st2" cx="584.8" cy="255.1" r="19.8"/>
<circle class="st2" cx="673.1" cy="255.1" r="19.8"/>
<circle class="st2" cx="761.4" cy="255.1" r="19.8"/>
<circle class="st2" cx="408.2" cy="331.2" r="19.8"/>
<circle class="st2" cx="496.5" cy="331.2" r="19.8"/>
<circle class="st2" cx="584.8" cy="331.2" r="19.8"/>
<circle class="st2" cx="673.1" cy="331.2" r="19.8"/>
<circle class="st2" cx="761.4" cy="331.2" r="19.8"/>
<circle class="st2" cx="408.2" cy="407.3" r="19.8"/>
<circle class="st2" cx="496.5" cy="407.3" r="19.8"/>
<circle class="st2" cx="584.8" cy="407.3" r="19.8"/>
<circle class="st2" cx="673.1" cy="407.3" r="19.8"/>
<circle class="st2" cx="761.4" cy="407.3" r="19.8"/>
<circle class="st2" cx="408.2" cy="483.5" r="19.8"/>
<circle class="st2" cx="496.5" cy="483.5" r="19.8"/>
<circle class="st2" cx="584.8" cy="483.5" r="19.8"/>
<circle class="st2" cx="673.1" cy="483.5" r="19.8"/>
<circle class="st2" cx="761.4" cy="483.5" r="19.8"/>
<circle class="st2" cx="408.2" cy="559.6" r="19.8"/>
<circle class="st2" cx="496.5" cy="559.6" r="19.8"/>
<circle class="st2" cx="584.8" cy="559.6" r="19.8"/>
<circle class="st2" cx="673.1" cy="559.6" r="19.8"/>
<circle class="st2" cx="761.4" cy="559.6" r="19.8"/>
<g class="st0">
	<path class="st1" d="M849.1,227.1c16.9,0,28.1-13.8,28.1-30.7v-28.8c0-16.9-11.2-30.7-28.1-30.7v-43c40.7,0,71.2,33.1,71.2,73.7
		v28.8c0,40.7-30.5,73.7-71.2,73.7V227.1z"/>
</g>
<path class="st12" d="M1267.4,378.6c24.9,7.2,46.5,22.5,49.4,47.9c3.8,32.9-16.3,62.9-37.5,85.9c-47.2,51-104.6,92.4-167.3,122.3
	c-76.1,36.2-150.4,46.9-233.9,38.4c-90.7-9.2-181.1-23.6-272.4-14.5c-68.7,6.8-135.4,21.3-202.8,34.7
	c-61.2,12.2-123.9,15.9-186,10.5c-57.1-4.9-123.5-14.4-175.3-40.5C23,653.9,6.3,637.9,3.1,617.5c-6.3-39.8,37.2-71.1,73-72.1"/>
<path class="st12" d="M994.5,291.3c-26.3-31.8-64-15.7-71.9,23.3c-4.6,22.7,0.3,46.2,7.1,68.3c6.9,22.1,15.7,43.7,19.3,66.5
	c5.3,33.8-5.4,74.2-36.9,92.2c-22.8,13-52,9-76.5,3.7c-5.2-1.1-9.4-2.3-12.5-3.3"/>
<polyline class="st6" points="1562.2,494 1586.6,487 1585.1,490.5 1609.3,485.3 1589.7,540 1589.7,531.4 1585.8,543.7 1598.4,552.7 
	1597.8,547.8 1620.9,566.4 1618.6,559 1634.8,575.4 1580,601.2 1562.2,603.7 1553.8,685.4 1550.6,670.8 1541.8,725.2 "/>
<path class="st13" d="M806.6,615.7H105.1c-12.6,0-22.8-10.3-22.8-22.8V69.6c0-12.6,10.3-22.8,22.8-22.8h701.5
	c12.6,0,22.8,10.3,22.8,22.8v523.3C829.4,605.4,819.1,615.7,806.6,615.7z"/>
<path class="st5" d="M800.4,615.7H98.9c-12.6,0-22.8-10.3-22.8-22.8V69.6c0-12.6,10.3-22.8,22.8-22.8h701.5
	c12.6,0,22.8,10.3,22.8,22.8v523.3C823.2,605.4,812.9,615.7,800.4,615.7z"/>
<circle class="st2" cx="1242.2" cy="383.7" r="38.9"/>
<circle class="st2" cx="991.8" cy="314.6" r="42.1"/>
<polyline class="st13" points="1020.7,288.7 1020.7,272.6 1003.2,277.7 972.4,264.3 974,288.7 959.9,279 964.7,276.5 952.9,270.1 
	"/>
</svg>
