<?xml version="1.0" encoding="utf-8"?>
<!-- Generator: Adobe Illustrator 22.0.1, SVG Export Plug-In . SVG Version: 6.00 Build 0)  -->
<svg version="1.1" id="Layer_1" xmlns="http://www.w3.org/2000/svg" xmlns:xlink="http://www.w3.org/1999/xlink" x="0px" y="0px"
	 viewBox="0 0 995.7 605.7" style="enable-background:new 0 0 995.7 605.7;" xml:space="preserve">
<style type="text/css">
	.st0{fill:none;stroke:#F39877;stroke-width:4.0956;stroke-miterlimit:10;}
	.st1{fill:none;stroke:#F39877;stroke-width:1.0239;stroke-miterlimit:10;}
	.st2{fill:#F39877;}
	.st3{fill:#333333;}
	.st4{fill:none;stroke:#333333;stroke-width:4.0956;stroke-miterlimit:10;}
	.st5{fill:none;stroke:#333333;stroke-width:1.0239;stroke-miterlimit:10;}
	.st6{fill:none;}
	.st7{fill:#FFFAEC;stroke:#F29877;stroke-width:0.8984;stroke-miterlimit:10;}
	.st8{fill:#88C540;}
</style>
<g>
	<g>
		<path class="st0" d="M897.1,567.8H14.4c-5.4,0-9.8-4.4-9.8-9.8V71.5c0-5.4,4.4-9.8,9.8-9.8h882.7c5.4,0,9.8,4.4,9.8,9.8V558
			C906.9,563.4,902.5,567.8,897.1,567.8z"/>
		<path class="st1" d="M708.5,543.8H41.1c-2.9,0-5.1-2.4-5.1-5.1V91.7c0-2.9,2.4-5.1,5.1-5.1h667.4c2.9,0,5.1,2.4,5.1,5.1v446.8
			C713.6,541.4,711.4,543.8,708.5,543.8z"/>
		<path class="st1" d="M883.8,543.8H735.6c-3,0-5.3-2.5-5.3-5.3V91.9c0-3,2.5-5.3,5.3-5.3h148.2c3,0,5.3,2.5,5.3,5.3v446.5
			C889.1,541.4,886.7,543.8,883.8,543.8z"/>
		<ellipse class="st2" cx="809.7" cy="164.7" rx="63.5" ry="60.4"/>
		<path class="st1" d="M877.6,377.2H741.9c-1.7,0-3.3-1.4-3.3-3.3V99.7c0-1.7,1.4-3.3,3.3-3.3h135.7c1.7,0,3.3,1.4,3.3,3.3V374
			C880.8,375.7,879.3,377.2,877.6,377.2z"/>
		<line class="st0" x1="737.6" y1="417.1" x2="883" y2="417.1"/>
		<line class="st0" x1="737.6" y1="427.6" x2="883" y2="427.6"/>
		<line class="st0" x1="737.6" y1="438" x2="883" y2="438"/>
		<line class="st0" x1="737.6" y1="448.5" x2="883" y2="448.5"/>
		<line class="st0" x1="737.6" y1="459" x2="883" y2="459"/>
		<line class="st0" x1="737.6" y1="469.4" x2="883" y2="469.4"/>
		<line class="st0" x1="737.6" y1="480" x2="883" y2="480"/>
		<line class="st0" x1="737.6" y1="490.4" x2="883" y2="490.4"/>
		<line class="st0" x1="737.6" y1="500.9" x2="883" y2="500.9"/>
		<line class="st0" x1="737.6" y1="511.4" x2="883" y2="511.4"/>
		<line class="st0" x1="737.6" y1="521.9" x2="883" y2="521.9"/>
		<line class="st0" x1="737.6" y1="532.3" x2="883" y2="532.3"/>
		<ellipse class="st2" cx="809.7" cy="302" rx="63.5" ry="60.4"/>
		<polygon class="st2" points="97.7,605.2 61.9,568.3 849.6,568.9 812.7,604.7 		"/>
		<g>
			<path class="st3" d="M125.1,572.3c0.7,0.3,0.9,0.8,1,1.5c0.3,3-0.2,5.7-1.2,8.5c-0.3,0.8-0.6,1.6-0.6,2.6c0,0.9,0.4,1.8,0.9,2.6
				c0.3,0.4,0.6,0.5,1.1,0.3c0.6-0.2,1-0.8,1.1-1.4c0.1-0.7-0.2-1.2-0.9-1.5c-0.2-0.1-0.4-0.2-0.6-0.2c-0.4-0.1-0.6-0.4-0.5-0.9
				c0.1-0.5,0.4-0.9,0.8-0.9c0.5,0,1-0.1,1.5-0.1c0.3,0,0.5-0.1,0.5-0.4c0.1-0.5,0.2-1,0.5-1.5c0.8-1.4,2.4-1.9,3.9-1.6
				c1,0.2,1.4,0.9,1.2,1.9c-0.1,0.8-0.5,1.4-1.1,1.8s-1.2,0.8-1.9,0.9c-0.3,0.1-0.4,0.2-0.3,0.5c0.2,0.8,0.5,1.5,1,2.3
				c0.4,0.6,1,0.6,1.5,0.1c0.4-0.4,0.6-0.9,0.8-1.4c0.4-0.9,0.7-1.8,1-2.8c0.3-1.2,0.9-2.4,2.2-3c0.4-0.2,0.7-0.3,1.2-0.4
				c0.6-0.1,1,0.1,1.4,0.6c0.2,0.3,0.4,0.3,0.6,0c0.2-0.2,0.3-0.4,0.5-0.6c0.4-0.5,1.2-0.6,1.7-0.2c0.5,0.4,0.6,1,0.3,1.6
				c0,0.1-0.1,0.2-0.2,0.3c-0.8,1.2-1,2.6-0.8,4c0,0.2,0.1,0.3,0.1,0.5c0.2,0.4,0.5,0.5,0.8,0.3c0.5-0.2,0.9-0.5,1.1-1
				c0.4-0.7,0.7-1.4,0.9-2.2c0.1-0.4,0.1-0.7-0.2-1.1c-0.8-0.9-0.6-2.8,0.6-3.6c0.6-0.4,1.1-0.3,1.3,0.4c0.1,0.3,0.2,0.6,0.1,1
				c-0.1,0.5,0.1,0.8,0.5,1c0.6,0.3,1.2,0.5,1.9,0.3c0.8-0.1,0.9,0.1,0.8,0.8c-0.1,0.4-0.3,0.8-0.5,1.2c-0.4,0.6-0.7,1.3-0.6,2.2
				c0,0.2,0,0.4,0.2,0.5c0.2,0.1,0.4-0.1,0.6-0.2c0.3-0.3,0.5-0.6,0.6-0.9c0.5-0.9,0.8-1.9,1.2-3c0.2-0.5,0.2-0.9,0-1.4
				c-0.4-0.7-0.2-1.4,0.3-2c0.5-0.6,1.2-0.9,2-0.7c0.5,0.1,0.6,0.3,0.5,0.8c-0.1,0.4-0.2,0.8-0.1,1.2c0,0.8,0.5,1.2,1.3,1
				c0.3,0,0.6-0.2,0.8-0.2c0.6-0.2,1-0.1,1.2,0.3c0.2,0.4,0.2,0.8-0.2,1.2c-0.3,0.3-0.5,0.6-0.8,1c-0.4,0.5-0.4,1-0.2,1.6
				c0.2,0.4,0.5,0.6,0.9,0.4c0.7-0.3,1.2-0.8,1.6-1.4c0.4-0.7,0.8-1.4,1.2-2.2c0.3-0.5,0.7-0.8,1.2-1.1c0.5-0.3,0.8-0.1,0.8,0.4
				c0,0.7,0,1.3-0.1,2c-0.1,1-0.7,1.8-1.5,2.6c-1.3,1.1-2.9,1.7-4.6,1.8c-1.4,0-1.9-1.1-1.8-2.2c0.1-0.6,0.4-1.2,0.8-1.6
				c0.5-0.7,0.5-0.8-0.4-1c-0.4-0.1-0.8-0.1-1.2-0.4c-0.1-0.1-0.3,0-0.4,0.1c-0.2,0.2-0.4,0.5-0.6,0.8c-0.5,1-0.8,2-1.4,3.1
				c-0.4,0.7-0.9,1.3-1.6,1.8c-0.2,0.2-0.5,0.3-0.7,0.4c-0.7,0.3-1.3,0.1-1.6-0.6c-0.3-0.7-0.4-1.4-0.2-2.2c0.2-0.7,0.5-1.3,1-1.8
				c0.2-0.2,0.3-0.4,0.5-0.6c0.1-0.2,0.1-0.3-0.2-0.3c-0.2,0-0.3,0-0.5,0c-0.3,0-0.5-0.1-0.8-0.2c-0.4-0.2-0.5-0.2-0.7,0.2
				c-0.2,0.5-0.3,1-0.5,1.4c-0.4,1.4-0.9,2.7-2,3.7c-0.5,0.4-1,0.7-1.5,0.9c-1.2,0.4-2.6-0.5-2.3-1.9c-0.2,0.1-0.3,0.3-0.5,0.5
				c-0.7,0.9-1.6,1.5-2.8,1.8c-1,0.2-1.6-0.1-1.8-1.1c-0.1-0.4-0.2-0.9-0.3-1.4c-0.2,0.3-0.3,0.6-0.4,0.9c-0.2,0.4-0.5,0.8-0.8,1.2
				c-0.7,0.7-1.5,0.8-2.4,0.3c-1-0.6-1.6-1.6-2.2-2.8c-0.1-0.3-0.3-0.7-0.3-1.1c-0.1-0.5-0.1-0.6-0.8-0.4c0.8,0.9,1.2,1.9,0.9,3.2
				c-0.2,0.8-0.8,1.4-1.5,1.8c-1.4,0.8-3.5,0.3-4.4-1.7c-0.4,0.5-0.8,0.9-1.3,1.3c-0.7,0.6-1.5,1.1-2.5,1.2
				c-0.9,0.1-1.7-0.1-2.3-0.9c-0.2-0.3-0.2-0.1-0.3,0c-0.5,0.6-1.1,1.1-1.8,1.4c-0.7,0.3-1.2,0.2-1.6-0.4c-0.5-0.7-0.8-1.5-0.9-2.5
				c-0.5,0.5-0.8,1.1-1.1,1.7c-0.3,0.8-0.4,1.7-0.5,2.6c0,0.8,0,1.6,0,2.5c0.1,1.1,0,2.3-0.3,3.4c-0.2,0.8-0.7,1.4-1.4,1.8
				c-1.2,0.7-2.5,0.3-3.1-0.9c-0.5-1.1-0.5-2.3-0.2-3.4c0.2-0.8,0.6-1.5,1.1-2.2s1-1.2,1.3-1.9c0.2-0.5,0.3-1,0.3-1.5
				c-0.2,0.1-0.2,0.3-0.3,0.4c-0.2,0.4-0.5,0.8-0.8,1.1c-0.9,0.8-2,0.8-2.9-0.1c-0.7-0.8-1-1.7-1.1-2.8c0-0.1,0-0.2-0.1-0.4
				c0-0.3,0-0.6,0-0.9c0.1-0.5,0.1-1,0.3-1.5c0.5-1.6,1.4-3,3-3.7c0.9-0.4,1.8-0.3,2.4,0.3c0.2,0.3,0.3,0.2,0.4-0.1
				c0.2-0.6,0.6-1.1,1.2-1.2c0.6-0.1,1.1,0.2,1.3,0.8c0.1,0.3,0,0.6-0.1,0.9c-0.4,1.3-0.7,2.8-0.8,4.2c0,0.3-0.1,0.7,0,1.1
				c0.5-0.3,0.7-0.8,0.9-1.2c0.3-0.8,0.3-1.6,0.5-2.5c0.3-1.2,0.9-2.2,2-2.7c1.1-0.6,1.9-0.4,2.8,0.5c0.1-0.1,0.2-0.3,0.3-0.4
				c0.5-0.6,1.1-1,1.8-1.1c0.4-0.1,0.7,0,1,0.3c0.3,0.3,0.1,0.6,0,0.9c-0.2,0.5-0.4,1-0.5,1.6c-0.2,1.1-0.3,2.4,0,3.5
				c0.1,0.6,0.6,0.9,1.3,0.7c0.5-0.2,0.8-0.5,0.9-1c0.1-0.4,0.1-0.8,0.1-1.2c-0.3-2-0.5-4.1-0.3-6.2c0.1-1.5,0.4-3,0.9-4.4
				c0.4-1,0.9-1.7,2-2.2C124.5,572.3,124.8,572.3,125.1,572.3z M105.4,587.7c0,0.4,0,0.7,0.1,1.1c0.1,0.4,0.4,0.5,0.6,0.4
				c0.9-0.4,1.6-1,1.7-2c0.2-1,0.2-2,0.3-3.1c0-0.4,0-0.6-0.4-0.8c-0.3-0.2-0.6,0-0.8,0.2c-0.6,0.5-1.1,1.1-1.3,1.9
				C105.4,586.1,105.4,586.9,105.4,587.7z M137.3,583.7c0,0.5,0,1,0.2,1.5c0.1,0.2,0.2,0.4,0.4,0.5c0.5,0.2,1.7-0.6,1.7-1.1
				c0.1-1,0.1-2,0.2-3.1c0-0.5-0.4-0.8-0.9-0.7c-0.5,0.2-0.9,0.5-1.2,1C137.3,582.5,137.2,583.1,137.3,583.7z M116.5,583.8
				c0-0.1,0-0.1,0-0.2c0-0.3,0-0.5-0.3-0.6c-0.3-0.1-0.5-0.1-0.8,0.1s-0.5,0.4-0.6,0.6c-0.6,1-0.7,2.2-0.4,3.3
				c0.1,0.6,0.5,0.8,1.1,0.7c0.5-0.1,1-0.5,1-1C116.5,585.6,116.4,584.7,116.5,583.8z M123.5,582.3c0.1-0.1,0.1-0.1,0.1-0.2
				c0.4-1.1,0.8-2.3,1-3.5c0.2-1,0.3-2,0.1-3.1c0-0.1,0-0.3-0.2-0.4c-0.2,0-0.2,0.1-0.3,0.3c-0.3,0.5-0.6,1-0.7,1.6
				c-0.3,1.3-0.3,2.7-0.1,4C123.4,581.3,123.5,581.8,123.5,582.3z M107.7,592.7c-0.2,0-0.2,0.2-0.2,0.3c-0.5,0.9-0.9,1.8-1,2.9
				c-0.1,0.4-0.1,0.7,0.1,1.1c0.1,0.2,0.2,0.6,0.5,0.6s0.3-0.4,0.4-0.6c0.2-1,0.3-2,0.3-3.1C107.7,593.4,107.7,593.1,107.7,592.7z
				 M131.7,581.1c-0.8,0-1.2,0.4-1.3,1c0,0.1-0.1,0.2,0.1,0.2c0.4,0.1,1.5-0.4,1.7-0.8c0.1-0.2,0-0.3-0.2-0.4
				C131.9,581.1,131.8,581.2,131.7,581.1z"/>
		</g>
		<g>
			<circle class="st2" cx="851.1" cy="397.1" r="13.9"/>
		</g>
		<circle class="st2" cx="774.1" cy="397.1" r="13.9"/>
	</g>
	<g>
		<path class="st4" d="M894.6,567.8H11.9c-5.4,0-9.8-4.4-9.8-9.8V71.5c0-5.4,4.4-9.8,9.8-9.8h882.7c5.4,0,9.8,4.4,9.8,9.8V558
			C904.4,563.4,900,567.8,894.6,567.8z"/>
		<path class="st5" d="M706,543.8H38.6c-2.9,0-5.1-2.4-5.1-5.1V91.7c0-2.9,2.4-5.1,5.1-5.1H706c2.9,0,5.1,2.4,5.1,5.1v446.8
			C711.1,541.4,708.9,543.8,706,543.8z"/>
		<path class="st5" d="M881.3,543.8H733.1c-3,0-5.3-2.5-5.3-5.3V91.9c0-3,2.5-5.3,5.3-5.3h148.2c3,0,5.3,2.5,5.3,5.3v446.5
			C886.6,541.4,884.1,543.8,881.3,543.8z"/>
		<ellipse class="st5" cx="807.1" cy="164.7" rx="63.5" ry="60.4"/>
		<path class="st5" d="M875,377.2H739.4c-1.7,0-3.3-1.4-3.3-3.3V99.7c0-1.7,1.4-3.3,3.3-3.3H875c1.7,0,3.3,1.4,3.3,3.3V374
			C878.3,375.7,876.8,377.2,875,377.2z"/>
		<line class="st4" x1="735.1" y1="417.1" x2="880.5" y2="417.1"/>
		<line class="st4" x1="735.1" y1="427.6" x2="880.5" y2="427.6"/>
		<line class="st4" x1="735.1" y1="438" x2="880.5" y2="438"/>
		<line class="st4" x1="735.1" y1="448.5" x2="880.5" y2="448.5"/>
		<line class="st4" x1="735.1" y1="459" x2="880.5" y2="459"/>
		<line class="st4" x1="735.1" y1="469.4" x2="880.5" y2="469.4"/>
		<line class="st4" x1="735.1" y1="480" x2="880.5" y2="480"/>
		<line class="st4" x1="735.1" y1="490.4" x2="880.5" y2="490.4"/>
		<line class="st4" x1="735.1" y1="500.9" x2="880.5" y2="500.9"/>
		<line class="st4" x1="735.1" y1="511.4" x2="880.5" y2="511.4"/>
		<line class="st4" x1="735.1" y1="521.9" x2="880.5" y2="521.9"/>
		<line class="st4" x1="735.1" y1="532.3" x2="880.5" y2="532.3"/>
		<polygon class="st3" points="796.6,194.1 796.6,135.3 830.3,164.7 		"/>
		<ellipse class="st5" cx="807.1" cy="302" rx="63.5" ry="60.4"/>
		<polygon class="st3" points="819.3,272.6 819.3,331.4 785.5,302 		"/>
		<rect x="94.3" y="135.3" class="st6" width="564.7" height="360.6"/>
		<polygon class="st5" points="95.2,605.2 59.4,568.3 847.1,568.9 810.2,604.7 		"/>
		<g>
			<circle class="st5" cx="848.6" cy="397.1" r="13.9"/>
		</g>
		<circle class="st5" cx="771.6" cy="397.1" r="13.9"/>
		<path class="st7" d="M56.9,481.8c-4.1-14.3-4.8-30.7-6.5-43.4c-4.2-30.8-6.4-61.8-7-92.9c-1.2-60.1,3.5-120.2,11.1-179.8
			c3.4-26.4,12-49,42-52.3c89.1-9.8,178.2-15.6,267.8-16c93.4-0.3,187.4,3.4,279.9,17.1c25.5,3.8,41.7,11.2,45.5,38
			c14.2,101.1,15.8,204.3,3.3,305.7c-4.5,35.5-18.1,55.7-54.8,60.6C553.2,530,465,532,379.4,532.1c-91.4,0.1-182.7-5.5-273.6-15.5
			c-12.5-1.4-25.8-3.2-35.3-11.3C63.7,499.5,59.6,491.1,56.9,481.8z"/>
	</g>
	<g>
		<g>
			<g>
				<path class="st8" d="M953,35.5c5.2-5.2,18.1-18.1,18.1-18.1l7.2,7.2c0,0-14,14-18.5,18.5c4.9,4.9,18.5,18.5,18.5,18.5l-7.2,7.2
					c0,0-12.9-12.9-18.5-18.5c-4.9,4.9-18.5,18.5-18.5,18.5l-7.2-7.2c0,0,13.2-13.2,18.5-18.5c-4.2-4.2-18.5-18.5-18.5-18.5l7.2-7.2
					c0,0,14.2,14.2,18.5,18.5C952.7,35.7,952.8,35.6,953,35.5z"/>
				<path class="st8" d="M953,35.5c5.2-5.2,18.1-18.1,18.1-18.1l7.2,7.2c0,0-14,14-18.5,18.5c4.9,4.9,18.5,18.5,18.5,18.5l-7.2,7.2
					c0,0-12.9-12.9-18.5-18.5c-4.9,4.9-18.5,18.5-18.5,18.5l-7.2-7.2c0,0,13.2-13.2,18.5-18.5c-4.2-4.2-18.5-18.5-18.5-18.5l7.2-7.2
					c0,0,14.2,14.2,18.5,18.5C952.7,35.7,952.8,35.6,953,35.5z"/>
			</g>
		</g>
		<circle class="st6" cx="952.6" cy="43.1" r="43.1"/>
	</g>
</g>
<rect x="1536.7" y="1827.9" class="st6" width="589.7" height="370.8"/>
</svg>
