<?xml version="1.0" encoding="utf-8"?>
<!-- Generator: Adobe Illustrator 22.0.1, SVG Export Plug-In . SVG Version: 6.00 Build 0)  -->
<svg version="1.1" id="Layer_1" xmlns="http://www.w3.org/2000/svg" xmlns:xlink="http://www.w3.org/1999/xlink" x="0px" y="0px"
	 viewBox="0 0 885.3 532.8" style="enable-background:new 0 0 885.3 532.8;" xml:space="preserve">
<style type="text/css">
	.st0{fill:#FFFEFA;}
	.st1{fill:none;stroke:#F39877;stroke-width:4;stroke-miterlimit:10;}
	.st2{fill:none;stroke:#F39877;stroke-miterlimit:10;}
	.st3{fill:#F39877;}
	.st4{fill:#333333;}
	.st5{fill:none;}
	.st6{fill:none;stroke:#333333;stroke-width:2;stroke-miterlimit:10;}
</style>
<path class="st0" d="M69.3,405.9c-19.6-99.1-15.6-196.8-2.9-296.4c3.2-24.8,11.3-46,39.7-49.1c84.1-9.2,168.3-14.6,252.9-15
	c54.5-0.2,109.1,1.8,163.5,5.3c24.5,1.6,122.6,8,135.7,23.1c5.4,6.3,6.9,15,8.1,23.3c13.4,94.9,14.9,191.7,3.1,286.8
	c-1.4,11-3,22.1-8,32c-8.9,17.4-27,22-45,23.9c-80.7,8.9-161.9,13.5-243.1,13.5c-101.2,0.1-193.4-6.7-274.7-16.7
	c-5.7-1.4-13.6-4.4-19.9-11.2C71.9,418.2,70,409.7,69.3,405.9z"/>
<path class="st1" d="M873.7,496.3H11.6c-5.3,0-9.6-4.3-9.6-9.6V11.6C2,6.3,6.3,2,11.6,2h862.1c5.3,0,9.6,4.3,9.6,9.6v475.1
	C883.3,492,879,496.3,873.7,496.3z"/>
<path class="st2" d="M689.5,472.8H37.7c-2.8,0-5-2.3-5-5V31.3c0-2.8,2.3-5,5-5h651.8c2.8,0,5,2.3,5,5v436.4
	C694.5,470.5,692.3,472.8,689.5,472.8z"/>
<path class="st2" d="M860.7,472.8H716c-2.9,0-5.2-2.4-5.2-5.2V31.5c0-2.9,2.4-5.2,5.2-5.2h144.7c2.9,0,5.2,2.4,5.2,5.2v436.1
	C865.9,470.5,863.5,472.8,860.7,472.8z"/>
<ellipse class="st3" cx="788.3" cy="102.6" rx="62" ry="59"/>
<path class="st2" d="M854.6,310.1H722.1c-1.7,0-3.2-1.4-3.2-3.2V39.1c0-1.7,1.4-3.2,3.2-3.2h132.5c1.7,0,3.2,1.4,3.2,3.2V307
	C857.8,308.7,856.3,310.1,854.6,310.1z"/>
<line class="st1" x1="717.9" y1="349.1" x2="859.9" y2="349.1"/>
<line class="st1" x1="717.9" y1="359.3" x2="859.9" y2="359.3"/>
<line class="st1" x1="717.9" y1="369.5" x2="859.9" y2="369.5"/>
<line class="st1" x1="717.9" y1="379.8" x2="859.9" y2="379.8"/>
<line class="st1" x1="717.9" y1="390" x2="859.9" y2="390"/>
<line class="st1" x1="717.9" y1="400.2" x2="859.9" y2="400.2"/>
<line class="st1" x1="717.9" y1="410.5" x2="859.9" y2="410.5"/>
<line class="st1" x1="717.9" y1="420.7" x2="859.9" y2="420.7"/>
<line class="st1" x1="717.9" y1="430.9" x2="859.9" y2="430.9"/>
<line class="st1" x1="717.9" y1="441.2" x2="859.9" y2="441.2"/>
<line class="st1" x1="717.9" y1="451.4" x2="859.9" y2="451.4"/>
<line class="st1" x1="717.9" y1="461.6" x2="859.9" y2="461.6"/>
<polygon class="st4" points="778,131.3 778,73.9 810.9,102.6 "/>
<ellipse class="st3" cx="788.3" cy="236.7" rx="62" ry="59"/>
<polygon class="st4" points="800.2,208 800.2,265.4 767.2,236.7 "/>
<rect x="92.1" y="73.9" class="st5" width="551.5" height="352.2"/>
<polygon class="st3" points="93,532.8 58,496.8 827.3,497.3 791.3,532.3 "/>
<g>
	<path class="st4" d="M119.7,500.7c0.7,0.3,0.9,0.8,1,1.5c0.3,2.9-0.2,5.6-1.2,8.3c-0.3,0.8-0.6,1.6-0.6,2.5c0,0.9,0.4,1.8,0.9,2.5
		c0.3,0.4,0.6,0.5,1.1,0.3c0.6-0.2,1-0.8,1.1-1.4c0.1-0.7-0.2-1.2-0.9-1.5c-0.2-0.1-0.4-0.2-0.6-0.2c-0.4-0.1-0.6-0.4-0.5-0.9
		c0.1-0.5,0.4-0.9,0.8-0.9c0.5,0,1-0.1,1.5-0.1c0.3,0,0.5-0.1,0.5-0.4c0.1-0.5,0.2-1,0.5-1.5c0.8-1.4,2.3-1.9,3.8-1.6
		c1,0.2,1.4,0.9,1.2,1.9c-0.1,0.8-0.5,1.4-1.1,1.8c-0.6,0.4-1.2,0.8-1.9,0.9c-0.3,0.1-0.4,0.2-0.3,0.5c0.2,0.8,0.5,1.5,1,2.2
		c0.4,0.6,1,0.6,1.5,0.1c0.4-0.4,0.6-0.9,0.8-1.4c0.4-0.9,0.7-1.8,1-2.7c0.3-1.2,0.9-2.3,2.1-2.9c0.4-0.2,0.7-0.3,1.2-0.4
		c0.6-0.1,1,0.1,1.4,0.6c0.2,0.3,0.4,0.3,0.6,0c0.2-0.2,0.3-0.4,0.5-0.6c0.4-0.5,1.2-0.6,1.7-0.2c0.5,0.4,0.6,1,0.3,1.6
		c0,0.1-0.1,0.2-0.2,0.3c-0.8,1.2-1,2.5-0.8,3.9c0,0.2,0.1,0.3,0.1,0.5c0.2,0.4,0.5,0.5,0.8,0.3c0.5-0.2,0.9-0.5,1.1-1
		c0.4-0.7,0.7-1.4,0.9-2.1c0.1-0.4,0.1-0.7-0.2-1.1c-0.8-0.9-0.6-2.7,0.6-3.5c0.6-0.4,1.1-0.3,1.3,0.4c0.1,0.3,0.2,0.6,0.1,1
		c-0.1,0.5,0.1,0.8,0.5,1c0.6,0.3,1.2,0.5,1.9,0.3c0.8-0.1,0.9,0.1,0.8,0.8c-0.1,0.4-0.3,0.8-0.5,1.2c-0.4,0.6-0.7,1.3-0.6,2.1
		c0,0.2,0,0.4,0.2,0.5c0.2,0.1,0.4-0.1,0.6-0.2c0.3-0.3,0.5-0.6,0.6-0.9c0.5-0.9,0.8-1.9,1.2-2.9c0.2-0.5,0.2-0.9,0-1.4
		c-0.4-0.7-0.2-1.4,0.3-2c0.5-0.6,1.2-0.9,2-0.7c0.5,0.1,0.6,0.3,0.5,0.8c-0.1,0.4-0.2,0.8-0.1,1.2c0,0.8,0.5,1.2,1.3,1
		c0.3,0,0.6-0.2,0.8-0.2c0.6-0.2,1-0.1,1.2,0.3c0.2,0.4,0.2,0.8-0.2,1.2c-0.3,0.3-0.5,0.6-0.8,1c-0.4,0.5-0.4,1-0.2,1.6
		c0.2,0.4,0.5,0.6,0.9,0.4c0.7-0.3,1.2-0.8,1.6-1.4c0.4-0.7,0.8-1.4,1.2-2.1c0.3-0.5,0.7-0.8,1.2-1.1c0.5-0.3,0.8-0.1,0.8,0.4
		c0,0.7,0,1.3-0.1,2c-0.1,1-0.7,1.8-1.5,2.5c-1.3,1.1-2.8,1.7-4.5,1.8c-1.4,0-1.9-1.1-1.8-2.1c0.1-0.6,0.4-1.2,0.8-1.6
		c0.5-0.7,0.5-0.8-0.4-1c-0.4-0.1-0.8-0.1-1.2-0.4c-0.1-0.1-0.3,0-0.4,0.1c-0.2,0.2-0.4,0.5-0.6,0.8c-0.5,1-0.8,2-1.4,3
		c-0.4,0.7-0.9,1.3-1.6,1.8c-0.2,0.2-0.5,0.3-0.7,0.4c-0.7,0.3-1.3,0.1-1.6-0.6c-0.3-0.7-0.4-1.4-0.2-2.1c0.2-0.7,0.5-1.3,1-1.8
		c0.2-0.2,0.3-0.4,0.5-0.6c0.1-0.2,0.1-0.3-0.2-0.3c-0.2,0-0.3,0-0.5,0c-0.3,0-0.5-0.1-0.8-0.2c-0.4-0.2-0.5-0.2-0.7,0.2
		c-0.2,0.5-0.3,1-0.5,1.4c-0.4,1.4-0.9,2.6-2,3.6c-0.5,0.4-1,0.7-1.5,0.9c-1.2,0.4-2.5-0.5-2.2-1.9c-0.2,0.1-0.3,0.3-0.5,0.5
		c-0.7,0.9-1.6,1.5-2.7,1.8c-1,0.2-1.6-0.1-1.8-1.1c-0.1-0.4-0.2-0.9-0.3-1.4c-0.2,0.3-0.3,0.6-0.4,0.9c-0.2,0.4-0.5,0.8-0.8,1.2
		c-0.7,0.7-1.5,0.8-2.3,0.3c-1-0.6-1.6-1.6-2.1-2.7c-0.1-0.3-0.3-0.7-0.3-1.1c-0.1-0.5-0.1-0.6-0.8-0.4c0.8,0.9,1.2,1.9,0.9,3.1
		c-0.2,0.8-0.8,1.4-1.5,1.8c-1.4,0.8-3.4,0.3-4.3-1.7c-0.4,0.5-0.8,0.9-1.3,1.3c-0.7,0.6-1.5,1.1-2.4,1.2c-0.9,0.1-1.7-0.1-2.2-0.9
		c-0.2-0.3-0.2-0.1-0.3,0c-0.5,0.6-1.1,1.1-1.8,1.4c-0.7,0.3-1.2,0.2-1.6-0.4c-0.5-0.7-0.8-1.5-0.9-2.4c-0.5,0.5-0.8,1.1-1.1,1.7
		c-0.3,0.8-0.4,1.7-0.5,2.5c0,0.8,0,1.6,0,2.4c0.1,1.1,0,2.2-0.3,3.3c-0.2,0.8-0.7,1.4-1.4,1.8c-1.2,0.7-2.4,0.3-3-0.9
		c-0.5-1.1-0.5-2.2-0.2-3.3c0.2-0.8,0.6-1.5,1.1-2.1c0.5-0.6,1-1.2,1.3-1.9c0.2-0.5,0.3-1,0.3-1.5c-0.2,0.1-0.2,0.3-0.3,0.4
		c-0.2,0.4-0.5,0.8-0.8,1.1c-0.9,0.8-2,0.8-2.8-0.1c-0.7-0.8-1-1.7-1.1-2.7c0-0.1,0-0.2-0.1-0.4c0-0.3,0-0.6,0-0.9
		c0.1-0.5,0.1-1,0.3-1.5c0.5-1.6,1.4-2.9,2.9-3.6c0.9-0.4,1.8-0.3,2.3,0.3c0.2,0.3,0.3,0.2,0.4-0.1c0.2-0.6,0.6-1.1,1.2-1.2
		c0.6-0.1,1.1,0.2,1.3,0.8c0.1,0.3,0,0.6-0.1,0.9c-0.4,1.3-0.7,2.7-0.8,4.1c0,0.3-0.1,0.7,0,1.1c0.5-0.3,0.7-0.8,0.9-1.2
		c0.3-0.8,0.3-1.6,0.5-2.4c0.3-1.2,0.9-2.1,2-2.6c1.1-0.6,1.9-0.4,2.7,0.5c0.1-0.1,0.2-0.3,0.3-0.4c0.5-0.6,1.1-1,1.8-1.1
		c0.4-0.1,0.7,0,1,0.3c0.3,0.3,0.1,0.6,0,0.9c-0.2,0.5-0.4,1-0.5,1.6c-0.2,1.1-0.3,2.3,0,3.4c0.1,0.6,0.6,0.9,1.3,0.7
		c0.5-0.2,0.8-0.5,0.9-1c0.1-0.4,0.1-0.8,0.1-1.2c-0.3-2-0.5-4-0.3-6.1c0.1-1.5,0.4-2.9,0.9-4.3c0.4-1,0.9-1.7,2-2.1
		C119.1,500.7,119.4,500.7,119.7,500.7z M100.5,515.7c0,0.4,0,0.7,0.1,1.1c0.1,0.4,0.4,0.5,0.6,0.4c0.9-0.4,1.6-1,1.7-2
		c0.2-1,0.2-2,0.3-3c0-0.4,0-0.6-0.4-0.8c-0.3-0.2-0.6,0-0.8,0.2c-0.6,0.5-1.1,1.1-1.3,1.9C100.5,514.1,100.5,514.9,100.5,515.7z
		 M131.6,511.8c0,0.5,0,1,0.2,1.5c0.1,0.2,0.2,0.4,0.4,0.5c0.5,0.2,1.7-0.6,1.7-1.1c0.1-1,0.1-2,0.2-3c0-0.5-0.4-0.8-0.9-0.7
		c-0.5,0.2-0.9,0.5-1.2,1C131.6,510.6,131.5,511.2,131.6,511.8z M111.3,511.9c0-0.1,0-0.1,0-0.2c0-0.3,0-0.5-0.3-0.6
		c-0.3-0.1-0.5-0.1-0.8,0.1c-0.3,0.2-0.5,0.4-0.6,0.6c-0.6,1-0.7,2.1-0.4,3.2c0.1,0.6,0.5,0.8,1.1,0.7c0.5-0.1,1-0.5,1-1
		C111.3,513.7,111.2,512.8,111.3,511.9z M118.2,510.4c0.1-0.1,0.1-0.1,0.1-0.2c0.4-1.1,0.8-2.2,1-3.4c0.2-1,0.3-2,0.1-3
		c0-0.1,0-0.3-0.2-0.4c-0.2,0-0.2,0.1-0.3,0.3c-0.3,0.5-0.6,1-0.7,1.6c-0.3,1.3-0.3,2.6-0.1,3.9
		C118.1,509.5,118.2,509.9,118.2,510.4z M102.7,520.6c-0.2,0-0.2,0.2-0.2,0.3c-0.5,0.9-0.9,1.8-1,2.8c-0.1,0.4-0.1,0.7,0.1,1.1
		c0.1,0.2,0.2,0.6,0.5,0.6c0.3,0,0.3-0.4,0.4-0.6c0.2-1,0.3-2,0.3-3C102.7,521.3,102.7,521,102.7,520.6z M126.2,509.3
		c-0.8,0-1.2,0.4-1.3,1c0,0.1-0.1,0.2,0.1,0.2c0.4,0.1,1.5-0.4,1.7-0.8c0.1-0.2,0-0.3-0.2-0.4C126.4,509.3,126.3,509.4,126.2,509.3z
		"/>
</g>
<g>
	<circle class="st3" cx="828.8" cy="329.6" r="13.6"/>
	<g>
		<line class="st6" x1="823.6" y1="324.4" x2="834" y2="334.8"/>
		<line class="st6" x1="834" y1="324.4" x2="823.6" y2="334.8"/>
	</g>
</g>
<circle class="st3" cx="753.6" cy="329.6" r="13.6"/>
</svg>
